<?xml version="1.0" encoding="us-ascii" standalone="no"?><svg xmlns="http://www.w3.org/2000/svg" xmlns:xlink="http://www.w3.org/1999/xlink" contentStyleType="text/css" height="298px" preserveAspectRatio="none" style="width:205px;height:298px;background:#FFFFFF;" version="1.1" viewBox="0 0 205 298" width="205px" zoomAndPan="magnify"><defs/><g><ellipse cx="102.5" cy="20" fill="#222222" rx="10" ry="10" style="stroke:#222222;stroke-width:1.0;"/><rect fill="#F1F1F1" height="33.9688" rx="12.5" ry="12.5" style="stroke:#181818;stroke-width:0.5;" width="136" x="34.5" y="50"/><text fill="#000000" font-family="sans-serif" font-size="12" lengthAdjust="spacing" textLength="116" x="44.5" y="71.1387">Rechercher le livre</text><rect fill="#F1F1F1" height="33.9688" rx="12.5" ry="12.5" style="stroke:#181818;stroke-width:0.5;" width="143" x="31" y="103.9688"/><text fill="#000000" font-family="sans-serif" font-size="12" lengthAdjust="spacing" textLength="123" x="41" y="125.1074">S&#233;lectionner le livre</text><rect fill="#F1F1F1" height="33.9688" rx="12.5" ry="12.5" style="stroke:#181818;stroke-width:0.5;" width="143" x="31" y="157.9375"/><text fill="#000000" font-family="sans-serif" font-size="12" lengthAdjust="spacing" textLength="123" x="41" y="179.0762">Confirmer l'emprunt</text><rect fill="#F1F1F1" height="33.9688" rx="12.5" ry="12.5" style="stroke:#181818;stroke-width:0.5;" width="183" x="11" y="211.9063"/><text fill="#000000" font-family="sans-serif" font-size="12" lengthAdjust="spacing" textLength="163" x="21" y="233.0449">Recevoir une confirmation</text><ellipse cx="102.5" cy="276.875" fill="none" rx="11" ry="11" style="stroke:#222222;stroke-width:1.0;"/><ellipse cx="102.5" cy="276.875" fill="#222222" rx="6" ry="6" style="stroke:#222222;stroke-width:1.0;"/><line style="stroke:#181818;stroke-width:1.0;" x1="102.5" x2="102.5" y1="30" y2="50"/><polygon fill="#181818" points="98.5,40,102.5,50,106.5,40,102.5,44" style="stroke:#181818;stroke-width:1.0;"/><line style="stroke:#181818;stroke-width:1.0;" x1="102.5" x2="102.5" y1="83.9688" y2="103.9688"/><polygon fill="#181818" points="98.5,93.9688,102.5,103.9688,106.5,93.9688,102.5,97.9688" style="stroke:#181818;stroke-width:1.0;"/><line style="stroke:#181818;stroke-width:1.0;" x1="102.5" x2="102.5" y1="137.9375" y2="157.9375"/><polygon fill="#181818" points="98.5,147.9375,102.5,157.9375,106.5,147.9375,102.5,151.9375" style="stroke:#181818;stroke-width:1.0;"/><line style="stroke:#181818;stroke-width:1.0;" x1="102.5" x2="102.5" y1="191.9063" y2="211.9063"/><polygon fill="#181818" points="98.5,201.9063,102.5,211.9063,106.5,201.9063,102.5,205.9063" style="stroke:#181818;stroke-width:1.0;"/><line style="stroke:#181818;stroke-width:1.0;" x1="102.5" x2="102.5" y1="245.875" y2="265.875"/><polygon fill="#181818" points="98.5,255.875,102.5,265.875,106.5,255.875,102.5,259.875" style="stroke:#181818;stroke-width:1.0;"/><!--SRC=[Aov9B2hXiWfAJSv8BG9XXPnKXPpCig9KQowhuCChSrAJIpBpy_9G9Pppyz8oYt91WkgfkGL5fNabrc13KiloCuiKIlDI5P8XIX91kgsvYalo2m00]--></g></svg>