<?xml version="1.0" encoding="us-ascii" standalone="no"?><svg xmlns="http://www.w3.org/2000/svg" xmlns:xlink="http://www.w3.org/1999/xlink" contentStyleType="text/css" height="564px" preserveAspectRatio="none" style="width:692px;height:564px;background:#FFFFFF;" version="1.1" viewBox="0 0 692 564" width="692px" zoomAndPan="magnify"><defs/><g><ellipse cx="284.875" cy="20" fill="#222222" rx="10" ry="10" style="stroke:#222222;stroke-width:1.0;"/><rect fill="#F1F1F1" height="33.9688" rx="12.5" ry="12.5" style="stroke:#181818;stroke-width:0.5;" width="267" x="151.375" y="50"/><text fill="#000000" font-family="sans-serif" font-size="12" lengthAdjust="spacing" textLength="247" x="161.375" y="71.1387">Se connecter &#224; la biblioth&#232;que en ligne</text><polygon fill="#F1F1F1" points="219.875,103.9688,349.875,103.9688,361.875,115.9688,349.875,127.9688,219.875,127.9688,207.875,115.9688,219.875,103.9688" style="stroke:#181818;stroke-width:0.5;"/><text fill="#000000" font-family="sans-serif" font-size="11" lengthAdjust="spacing" textLength="130" x="219.875" y="119.7769">Est un administrateur?</text><text fill="#000000" font-family="sans-serif" font-size="11" lengthAdjust="spacing" textLength="17" x="190.875" y="113.3745">oui</text><text fill="#000000" font-family="sans-serif" font-size="11" lengthAdjust="spacing" textLength="21" x="361.875" y="113.3745">non</text><rect fill="#F1F1F1" height="33.9688" rx="12.5" ry="12.5" style="stroke:#181818;stroke-width:0.5;" width="182" x="24.5" y="137.9688"/><text fill="#000000" font-family="sans-serif" font-size="12" lengthAdjust="spacing" textLength="162" x="34.5" y="159.1074">Ajouter/Supprimer un livre</text><rect fill="#F1F1F1" height="33.9688" rx="12.5" ry="12.5" style="stroke:#181818;stroke-width:0.5;" width="209" x="11" y="191.9375"/><text fill="#000000" font-family="sans-serif" font-size="12" lengthAdjust="spacing" textLength="189" x="21" y="213.0762">G&#233;rer les comptes utilisateurs</text><rect fill="#F1F1F1" height="33.9688" rx="12.5" ry="12.5" style="stroke:#181818;stroke-width:0.5;" width="180" x="25.5" y="260.9063"/><text fill="#000000" font-family="sans-serif" font-size="12" lengthAdjust="spacing" textLength="160" x="35.5" y="282.0449">Consulter les statistiques</text><rect fill="#F1F1F1" height="33.9688" rx="12.5" ry="12.5" style="stroke:#181818;stroke-width:0.5;" width="120" x="55.5" y="329.875"/><text fill="#000000" font-family="sans-serif" font-size="12" lengthAdjust="spacing" textLength="100" x="65.5" y="351.0137">Se d&#233;connecter</text><rect fill="#F1F1F1" height="33.9688" rx="12.5" ry="12.5" style="stroke:#181818;stroke-width:0.5;" width="136" x="386.25" y="137.9688"/><text fill="#000000" font-family="sans-serif" font-size="12" lengthAdjust="spacing" textLength="116" x="396.25" y="159.1074">Rechercher le livre</text><polygon fill="#F1F1F1" points="417.75,191.9375,490.75,191.9375,502.75,203.9375,490.75,215.9375,417.75,215.9375,405.75,203.9375,417.75,191.9375" style="stroke:#181818;stroke-width:0.5;"/><text fill="#000000" font-family="sans-serif" font-size="11" lengthAdjust="spacing" textLength="73" x="417.75" y="207.7456">Livre trouv&#233;?</text><text fill="#000000" font-family="sans-serif" font-size="11" lengthAdjust="spacing" textLength="17" x="388.75" y="201.3433">oui</text><rect fill="#F1F1F1" height="33.9688" rx="12.5" ry="12.5" style="stroke:#181818;stroke-width:0.5;" width="143" x="270" y="225.9375"/><text fill="#000000" font-family="sans-serif" font-size="12" lengthAdjust="spacing" textLength="123" x="280" y="247.0762">S&#233;lectionner le livre</text><rect fill="#F1F1F1" height="33.9688" rx="12.5" ry="12.5" style="stroke:#181818;stroke-width:0.5;" width="143" x="270" y="294.9063"/><text fill="#000000" font-family="sans-serif" font-size="12" lengthAdjust="spacing" textLength="123" x="280" y="316.0449">Confirmer l'emprunt</text><rect fill="#F1F1F1" height="33.9688" rx="12.5" ry="12.5" style="stroke:#181818;stroke-width:0.5;" width="183" x="250" y="363.875"/><text fill="#000000" font-family="sans-serif" font-size="12" lengthAdjust="spacing" textLength="163" x="260" y="385.0137">Recevoir une confirmation</text><rect fill="#F1F1F1" height="33.9688" rx="12.5" ry="12.5" style="stroke:#181818;stroke-width:0.5;" width="228" x="453" y="225.9375"/><text fill="#000000" font-family="sans-serif" font-size="12" lengthAdjust="spacing" textLength="208" x="463" y="247.0762">Rechercher &#224; nouveau ou quitter</text><polygon fill="#F1F1F1" points="454.25,403.8438,466.25,415.8438,454.25,427.8438,442.25,415.8438,454.25,403.8438" style="stroke:#181818;stroke-width:0.5;"/><rect fill="#F1F1F1" height="33.9688" rx="12.5" ry="12.5" style="stroke:#181818;stroke-width:0.5;" width="276" x="316.25" y="447.8438"/><text fill="#000000" font-family="sans-serif" font-size="12" lengthAdjust="spacing" textLength="256" x="326.25" y="468.9824">Consulter d'autres livres ou d&#233;connecter</text><polygon fill="#F1F1F1" points="284.875,487.8125,296.875,499.8125,284.875,511.8125,272.875,499.8125,284.875,487.8125" style="stroke:#181818;stroke-width:0.5;"/><ellipse cx="284.875" cy="542.8125" fill="none" rx="11" ry="11" style="stroke:#222222;stroke-width:1.0;"/><ellipse cx="284.875" cy="542.8125" fill="#222222" rx="6" ry="6" style="stroke:#222222;stroke-width:1.0;"/><line style="stroke:#181818;stroke-width:1.0;" x1="284.875" x2="284.875" y1="30" y2="50"/><polygon fill="#181818" points="280.875,40,284.875,50,288.875,40,284.875,44" style="stroke:#181818;stroke-width:1.0;"/><line style="stroke:#181818;stroke-width:1.0;" x1="115.5" x2="115.5" y1="171.9375" y2="191.9375"/><polygon fill="#181818" points="111.5,181.9375,115.5,191.9375,119.5,181.9375,115.5,185.9375" style="stroke:#181818;stroke-width:1.0;"/><line style="stroke:#181818;stroke-width:1.0;" x1="115.5" x2="115.5" y1="225.9063" y2="260.9063"/><polygon fill="#181818" points="111.5,250.9063,115.5,260.9063,119.5,250.9063,115.5,254.9063" style="stroke:#181818;stroke-width:1.0;"/><line style="stroke:#181818;stroke-width:1.0;" x1="115.5" x2="115.5" y1="294.875" y2="329.875"/><polygon fill="#181818" points="111.5,319.875,115.5,329.875,119.5,319.875,115.5,323.875" style="stroke:#181818;stroke-width:1.0;"/><line style="stroke:#181818;stroke-width:1.0;" x1="341.5" x2="341.5" y1="259.9063" y2="294.9063"/><polygon fill="#181818" points="337.5,284.9063,341.5,294.9063,345.5,284.9063,341.5,288.9063" style="stroke:#181818;stroke-width:1.0;"/><line style="stroke:#181818;stroke-width:1.0;" x1="341.5" x2="341.5" y1="328.875" y2="363.875"/><polygon fill="#181818" points="337.5,353.875,341.5,363.875,345.5,353.875,341.5,357.875" style="stroke:#181818;stroke-width:1.0;"/><line style="stroke:#181818;stroke-width:1.0;" x1="405.75" x2="341.5" y1="203.9375" y2="203.9375"/><line style="stroke:#181818;stroke-width:1.0;" x1="341.5" x2="341.5" y1="203.9375" y2="225.9375"/><polygon fill="#181818" points="337.5,215.9375,341.5,225.9375,345.5,215.9375,341.5,219.9375" style="stroke:#181818;stroke-width:1.0;"/><line style="stroke:#181818;stroke-width:1.0;" x1="502.75" x2="567" y1="203.9375" y2="203.9375"/><line style="stroke:#181818;stroke-width:1.0;" x1="567" x2="567" y1="203.9375" y2="225.9375"/><polygon fill="#181818" points="563,215.9375,567,225.9375,571,215.9375,567,219.9375" style="stroke:#181818;stroke-width:1.0;"/><line style="stroke:#181818;stroke-width:1.0;" x1="341.5" x2="341.5" y1="397.8438" y2="415.8438"/><line style="stroke:#181818;stroke-width:1.0;" x1="341.5" x2="442.25" y1="415.8438" y2="415.8438"/><polygon fill="#181818" points="432.25,411.8438,442.25,415.8438,432.25,419.8438,436.25,415.8438" style="stroke:#181818;stroke-width:1.0;"/><line style="stroke:#181818;stroke-width:1.0;" x1="567" x2="567" y1="259.9063" y2="415.8438"/><line style="stroke:#181818;stroke-width:1.0;" x1="567" x2="466.25" y1="415.8438" y2="415.8438"/><polygon fill="#181818" points="476.25,411.8438,466.25,415.8438,476.25,419.8438,472.25,415.8438" style="stroke:#181818;stroke-width:1.0;"/><line style="stroke:#181818;stroke-width:1.0;" x1="454.25" x2="454.25" y1="171.9375" y2="191.9375"/><polygon fill="#181818" points="450.25,181.9375,454.25,191.9375,458.25,181.9375,454.25,185.9375" style="stroke:#181818;stroke-width:1.0;"/><line style="stroke:#181818;stroke-width:1.0;" x1="454.25" x2="454.25" y1="427.8438" y2="447.8438"/><polygon fill="#181818" points="450.25,437.8438,454.25,447.8438,458.25,437.8438,454.25,441.8438" style="stroke:#181818;stroke-width:1.0;"/><line style="stroke:#181818;stroke-width:1.0;" x1="207.875" x2="115.5" y1="115.9688" y2="115.9688"/><line style="stroke:#181818;stroke-width:1.0;" x1="115.5" x2="115.5" y1="115.9688" y2="137.9688"/><polygon fill="#181818" points="111.5,127.9688,115.5,137.9688,119.5,127.9688,115.5,131.9688" style="stroke:#181818;stroke-width:1.0;"/><line style="stroke:#181818;stroke-width:1.0;" x1="361.875" x2="454.25" y1="115.9688" y2="115.9688"/><line style="stroke:#181818;stroke-width:1.0;" x1="454.25" x2="454.25" y1="115.9688" y2="137.9688"/><polygon fill="#181818" points="450.25,127.9688,454.25,137.9688,458.25,127.9688,454.25,131.9688" style="stroke:#181818;stroke-width:1.0;"/><line style="stroke:#181818;stroke-width:1.0;" x1="115.5" x2="115.5" y1="363.8438" y2="499.8125"/><line style="stroke:#181818;stroke-width:1.0;" x1="115.5" x2="272.875" y1="499.8125" y2="499.8125"/><polygon fill="#181818" points="262.875,495.8125,272.875,499.8125,262.875,503.8125,266.875,499.8125" style="stroke:#181818;stroke-width:1.0;"/><line style="stroke:#181818;stroke-width:1.0;" x1="454.25" x2="454.25" y1="481.8125" y2="499.8125"/><line style="stroke:#181818;stroke-width:1.0;" x1="454.25" x2="296.875" y1="499.8125" y2="499.8125"/><polygon fill="#181818" points="306.875,495.8125,296.875,499.8125,306.875,503.8125,302.875,499.8125" style="stroke:#181818;stroke-width:1.0;"/><line style="stroke:#181818;stroke-width:1.0;" x1="284.875" x2="284.875" y1="83.9688" y2="103.9688"/><polygon fill="#181818" points="280.875,93.9688,284.875,103.9688,288.875,93.9688,284.875,97.9688" style="stroke:#181818;stroke-width:1.0;"/><line style="stroke:#181818;stroke-width:1.0;" x1="284.875" x2="284.875" y1="511.8125" y2="531.8125"/><polygon fill="#181818" points="280.875,521.8125,284.875,531.8125,288.875,521.8125,284.875,525.8125" style="stroke:#181818;stroke-width:1.0;"/><!--SRC=[NP0nRiCm34Ltdu9RdAbxCXH5KNJfr9n0iUcQXImv4kdpPApFeOkLLD8KoI084Zy_tsTcbxZP7H2w609sZ0dA6Ro38nqzHHxBpqaGC82dhu3xXWPetpA3173zH84o9ySewNaBFAgkZKBR1c3tyXr5_PuECi-99dKMSrcIkcZvlQn9_pncdJtDhBSmUShLBLVDQmnPF5zbcHthE5AWIrcn-xBUoFSD-epGXXWgm2Ts8oOxslu_sH9ys0CuHLdA-aXkpcNrwabcVTzzeHeeMI2_mMbE4lXQqOcuHBAaTQCcS-PYTOExoVx0TDb18T09H86J4DSWgWuz3VSxw3TEEEaYAaosXeVujITpd7y1]--></g></svg>