<?xml version="1.0" encoding="us-ascii" standalone="no"?><svg xmlns="http://www.w3.org/2000/svg" xmlns:xlink="http://www.w3.org/1999/xlink" contentStyleType="text/css" height="362px" preserveAspectRatio="none" style="width:453px;height:362px;background:#FFFFFF;" version="1.1" viewBox="0 0 453 362" width="453px" zoomAndPan="magnify"><defs/><g><ellipse cx="215.25" cy="20" fill="#222222" rx="10" ry="10" style="stroke:#222222;stroke-width:1.0;"/><rect fill="#F1F1F1" height="33.9688" rx="12.5" ry="12.5" style="stroke:#181818;stroke-width:0.5;" width="136" x="147.25" y="50"/><text fill="#000000" font-family="sans-serif" font-size="12" lengthAdjust="spacing" textLength="116" x="157.25" y="71.1387">Rechercher le livre</text><polygon fill="#F1F1F1" points="178.75,103.9688,251.75,103.9688,263.75,115.9688,251.75,127.9688,178.75,127.9688,166.75,115.9688,178.75,103.9688" style="stroke:#181818;stroke-width:0.5;"/><text fill="#000000" font-family="sans-serif" font-size="11" lengthAdjust="spacing" textLength="73" x="178.75" y="119.7769">Livre trouv&#233;?</text><text fill="#000000" font-family="sans-serif" font-size="11" lengthAdjust="spacing" textLength="17" x="149.75" y="113.3745">oui</text><text fill="#000000" font-family="sans-serif" font-size="11" lengthAdjust="spacing" textLength="21" x="263.75" y="113.3745">non</text><rect fill="#F1F1F1" height="33.9688" rx="12.5" ry="12.5" style="stroke:#181818;stroke-width:0.5;" width="143" x="31" y="137.9688"/><text fill="#000000" font-family="sans-serif" font-size="12" lengthAdjust="spacing" textLength="123" x="41" y="159.1074">S&#233;lectionner le livre</text><rect fill="#F1F1F1" height="33.9688" rx="12.5" ry="12.5" style="stroke:#181818;stroke-width:0.5;" width="143" x="31" y="191.9375"/><text fill="#000000" font-family="sans-serif" font-size="12" lengthAdjust="spacing" textLength="123" x="41" y="213.0762">Confirmer l'emprunt</text><rect fill="#F1F1F1" height="33.9688" rx="12.5" ry="12.5" style="stroke:#181818;stroke-width:0.5;" width="183" x="11" y="245.9063"/><text fill="#000000" font-family="sans-serif" font-size="12" lengthAdjust="spacing" textLength="163" x="21" y="267.0449">Recevoir une confirmation</text><rect fill="#F1F1F1" height="33.9688" rx="12.5" ry="12.5" style="stroke:#181818;stroke-width:0.5;" width="228" x="214" y="137.9688"/><text fill="#000000" font-family="sans-serif" font-size="12" lengthAdjust="spacing" textLength="208" x="224" y="159.1074">Rechercher &#224; nouveau ou quitter</text><polygon fill="#F1F1F1" points="215.25,285.875,227.25,297.875,215.25,309.875,203.25,297.875,215.25,285.875" style="stroke:#181818;stroke-width:0.5;"/><ellipse cx="215.25" cy="340.875" fill="none" rx="11" ry="11" style="stroke:#222222;stroke-width:1.0;"/><ellipse cx="215.25" cy="340.875" fill="#222222" rx="6" ry="6" style="stroke:#222222;stroke-width:1.0;"/><line style="stroke:#181818;stroke-width:1.0;" x1="215.25" x2="215.25" y1="30" y2="50"/><polygon fill="#181818" points="211.25,40,215.25,50,219.25,40,215.25,44" style="stroke:#181818;stroke-width:1.0;"/><line style="stroke:#181818;stroke-width:1.0;" x1="102.5" x2="102.5" y1="171.9375" y2="191.9375"/><polygon fill="#181818" points="98.5,181.9375,102.5,191.9375,106.5,181.9375,102.5,185.9375" style="stroke:#181818;stroke-width:1.0;"/><line style="stroke:#181818;stroke-width:1.0;" x1="102.5" x2="102.5" y1="225.9063" y2="245.9063"/><polygon fill="#181818" points="98.5,235.9063,102.5,245.9063,106.5,235.9063,102.5,239.9063" style="stroke:#181818;stroke-width:1.0;"/><line style="stroke:#181818;stroke-width:1.0;" x1="166.75" x2="102.5" y1="115.9688" y2="115.9688"/><line style="stroke:#181818;stroke-width:1.0;" x1="102.5" x2="102.5" y1="115.9688" y2="137.9688"/><polygon fill="#181818" points="98.5,127.9688,102.5,137.9688,106.5,127.9688,102.5,131.9688" style="stroke:#181818;stroke-width:1.0;"/><line style="stroke:#181818;stroke-width:1.0;" x1="263.75" x2="328" y1="115.9688" y2="115.9688"/><line style="stroke:#181818;stroke-width:1.0;" x1="328" x2="328" y1="115.9688" y2="137.9688"/><polygon fill="#181818" points="324,127.9688,328,137.9688,332,127.9688,328,131.9688" style="stroke:#181818;stroke-width:1.0;"/><line style="stroke:#181818;stroke-width:1.0;" x1="102.5" x2="102.5" y1="279.875" y2="297.875"/><line style="stroke:#181818;stroke-width:1.0;" x1="102.5" x2="203.25" y1="297.875" y2="297.875"/><polygon fill="#181818" points="193.25,293.875,203.25,297.875,193.25,301.875,197.25,297.875" style="stroke:#181818;stroke-width:1.0;"/><line style="stroke:#181818;stroke-width:1.0;" x1="328" x2="328" y1="171.9375" y2="297.875"/><line style="stroke:#181818;stroke-width:1.0;" x1="328" x2="227.25" y1="297.875" y2="297.875"/><polygon fill="#181818" points="237.25,293.875,227.25,297.875,237.25,301.875,233.25,297.875" style="stroke:#181818;stroke-width:1.0;"/><line style="stroke:#181818;stroke-width:1.0;" x1="215.25" x2="215.25" y1="83.9688" y2="103.9688"/><polygon fill="#181818" points="211.25,93.9688,215.25,103.9688,219.25,93.9688,215.25,97.9688" style="stroke:#181818;stroke-width:1.0;"/><line style="stroke:#181818;stroke-width:1.0;" x1="215.25" x2="215.25" y1="309.875" y2="329.875"/><polygon fill="#181818" points="211.25,319.875,215.25,329.875,219.25,319.875,215.25,323.875" style="stroke:#181818;stroke-width:1.0;"/><!--SRC=[LOux3eD034JxFSLqWIj0aI9jgkG4Y1XXQR69yNAUj9o3Yx6RJv72aZL-uvd5E_FGtAWVoSeW4YAlHctW0TMrh73JjExRkOQF9AWqSHs0vhvlaNfd5VbpvjD5PM2RYdoYQROa_jPp4gtAXYI4_WDrvKCRA2w4IbJgB_YhjByWkG1r2PhmJEnEbdbvy10Mr_a0]--></g></svg>