<?xml version="1.0" encoding="us-ascii" standalone="no"?><svg xmlns="http://www.w3.org/2000/svg" xmlns:xlink="http://www.w3.org/1999/xlink" contentStyleType="text/css" height="200px" preserveAspectRatio="none" style="width:1241px;height:200px;background:#FFFFFF;" version="1.1" viewBox="0 0 1241 200" width="1241px" zoomAndPan="magnify"><defs/><g><!--entity Utilisateur--><g id="elem_Utilisateur"><ellipse cx="297.6" cy="14" fill="#F1F1F1" rx="8" ry="8" style="stroke:#181818;stroke-width:0.5;"/><path d="M297.6,22 L297.6,49 M284.6,30 L310.6,30 M297.6,49 L284.6,64 M297.6,49 L310.6,64 " fill="none" style="stroke:#181818;stroke-width:0.5;"/><text fill="#000000" font-family="sans-serif" font-size="14" lengthAdjust="spacing" textLength="68" x="263.6" y="78.4951">Utilisateur</text></g><g id="elem_Rechercher un livre"><ellipse cx="92.5998" cy="168.16" fill="#F1F1F1" rx="86.5998" ry="19.72" style="stroke:#181818;stroke-width:0.5;"/><text fill="#000000" font-family="sans-serif" font-size="14" lengthAdjust="spacing" textLength="134" x="25.5998" y="171.0066">Rechercher un livre</text></g><g id="elem_Emprunter un livre"><ellipse cx="297.5979" cy="168.1576" fill="#F1F1F1" rx="83.1379" ry="19.0276" style="stroke:#181818;stroke-width:0.5;"/><text fill="#000000" font-family="sans-serif" font-size="14" lengthAdjust="spacing" textLength="126" x="234.0514" y="171.1894">Emprunter un livre</text></g><g id="elem_Retourner un livre"><ellipse cx="497.5958" cy="168.1632" fill="#F1F1F1" rx="81.8658" ry="18.7732" style="stroke:#181818;stroke-width:0.5;"/><text fill="#000000" font-family="sans-serif" font-size="14" lengthAdjust="spacing" textLength="123" x="435.1105" y="171.3363">Retourner un livre</text></g><!--entity Administrateur--><g id="elem_Administrateur"><ellipse cx="878.6" cy="14" fill="#F1F1F1" rx="8" ry="8" style="stroke:#181818;stroke-width:0.5;"/><path d="M878.6,22 L878.6,49 M865.6,30 L891.6,30 M878.6,49 L865.6,64 M878.6,49 L891.6,64 " fill="none" style="stroke:#181818;stroke-width:0.5;"/><text fill="#000000" font-family="sans-serif" font-size="14" lengthAdjust="spacing" textLength="100" x="828.6" y="78.4951">Administrateur</text></g><g id="elem_Ajouter un livre"><ellipse cx="687.6004" cy="168.1601" fill="#F1F1F1" rx="73.4504" ry="17.0901" style="stroke:#181818;stroke-width:0.5;"/><text fill="#000000" font-family="sans-serif" font-size="14" lengthAdjust="spacing" textLength="102" x="633.6004" y="171.9076">Ajouter un livre</text></g><g id="elem_Supprimer un livre"><ellipse cx="878.598" cy="168.1576" fill="#F1F1F1" rx="82.288" ry="18.8576" style="stroke:#181818;stroke-width:0.5;"/><text fill="#000000" font-family="sans-serif" font-size="14" lengthAdjust="spacing" textLength="124" x="815.7605" y="171.2838">Supprimer un livre</text></g><g id="elem_G&#233;rer les comptes utilisateurs"><ellipse cx="1115.604" cy="168.1568" fill="#F1F1F1" rx="119.834" ry="26.3668" style="stroke:#181818;stroke-width:0.5;"/><text fill="#000000" font-family="sans-serif" font-size="14" lengthAdjust="spacing" textLength="207" x="1012.104" y="171.0035">G&#233;rer les comptes utilisateurs</text></g><!--link Utilisateur to Rechercher un livre--><g id="link_Utilisateur_Rechercher un livre"><path d="M263.29,65.15 C223.85,88.72 164.9098,123.9411 127.5098,146.3011 " fill="none" id="Utilisateur-to-Rechercher un livre" style="stroke:#181818;stroke-width:1.0;"/><polygon fill="#181818" points="122.36,149.38,132.1373,148.1949,126.6515,146.8143,128.0321,141.3285,122.36,149.38" style="stroke:#181818;stroke-width:1.0;"/></g><!--link Utilisateur to Emprunter un livre--><g id="link_Utilisateur_Emprunter un livre"><path d="M297.6,82.07 C297.6,104.17 297.6,125.17 297.6,142.74 " fill="none" id="Utilisateur-to-Emprunter un livre" style="stroke:#181818;stroke-width:1.0;"/><polygon fill="#181818" points="297.6,148.74,301.6,139.74,297.6,143.74,293.6,139.74,297.6,148.74" style="stroke:#181818;stroke-width:1.0;"/></g><!--link Utilisateur to Retourner un livre--><g id="link_Utilisateur_Retourner un livre"><path d="M331.98,65.71 C370.96,89.59 428.6336,124.916 464.6636,146.986 " fill="none" id="Utilisateur-to-Retourner un livre" style="stroke:#181818;stroke-width:1.0;"/><polygon fill="#181818" points="469.78,150.12,464.1947,142.008,465.5163,147.5083,460.016,148.8299,469.78,150.12" style="stroke:#181818;stroke-width:1.0;"/></g><!--link Administrateur to Ajouter un livre--><g id="link_Administrateur_Ajouter un livre"><path d="M828.17,77 C790.59,101.1 745.9802,129.7104 716.8602,148.3904 " fill="none" id="Administrateur-to-Ajouter un livre" style="stroke:#181818;stroke-width:1.0;"/><polygon fill="#181818" points="711.81,151.63,721.5451,150.1374,716.0185,148.9303,717.2256,143.4037,711.81,151.63" style="stroke:#181818;stroke-width:1.0;"/></g><!--link Administrateur to Supprimer un livre--><g id="link_Administrateur_Supprimer un livre"><path d="M878.6,82.07 C878.6,104.31 878.6,125.51 878.6,143.08 " fill="none" id="Administrateur-to-Supprimer un livre" style="stroke:#181818;stroke-width:1.0;"/><polygon fill="#181818" points="878.6,149.08,882.6,140.08,878.6,144.08,874.6,140.08,878.6,149.08" style="stroke:#181818;stroke-width:1.0;"/></g><!--link Administrateur to G?rer les comptes utilisateurs--><g id="link_Administrateur_G&#233;rer les comptes utilisateurs"><path d="M928.86,70.63 C970.58,92.19 1024.0703,119.8442 1064.4903,140.7442 " fill="none" id="Administrateur-to-G&#233;rer les comptes utilisateurs" style="stroke:#181818;stroke-width:1.0;"/><polygon fill="#181818" points="1069.82,143.5,1063.6627,135.8132,1065.3786,141.2035,1059.9883,142.9194,1069.82,143.5" style="stroke:#181818;stroke-width:1.0;"/></g><!--SRC=[imejoSp9B4uiIIqjibBGrRLJq0XAJSv8BG9XXT8yXPpCig9KJIuhJ7MkkGL5fNabX9G5fPRabnRbeIfpJCdDpCiiBYb2LkcObLzQGeIwuDA2WgBCN29KkXzUMGHKbfDQh92SdrjG0gHB4GuirWG0]--></g></svg>