<?xml version="1.0" encoding="us-ascii" standalone="no"?><svg xmlns="http://www.w3.org/2000/svg" xmlns:xlink="http://www.w3.org/1999/xlink" contentStyleType="text/css" height="182px" preserveAspectRatio="none" style="width:628px;height:182px;background:#FFFFFF;" version="1.1" viewBox="0 0 628 182" width="628px" zoomAndPan="magnify"><defs/><g><line style="stroke:#181818;stroke-width:0.5;stroke-dasharray:5.0,5.0;" x1="95" x2="95" y1="81.2969" y2="101.2969"/><line style="stroke:#181818;stroke-width:0.5;stroke-dasharray:5.0,5.0;" x1="269" x2="269" y1="81.2969" y2="101.2969"/><line style="stroke:#181818;stroke-width:0.5;stroke-dasharray:5.0,5.0;" x1="407" x2="407" y1="81.2969" y2="101.2969"/><line style="stroke:#181818;stroke-width:0.5;stroke-dasharray:5.0,5.0;" x1="548" x2="548" y1="81.2969" y2="101.2969"/><text fill="#000000" font-family="sans-serif" font-size="14" lengthAdjust="spacing" textLength="174" x="5" y="77.9951">Utilisateur non enregistr&#233;</text><ellipse cx="95" cy="13.5" fill="#E2E2F0" rx="8" ry="8" style="stroke:#181818;stroke-width:0.5;"/><path d="M95,21.5 L95,48.5 M82,29.5 L108,29.5 M95,48.5 L82,63.5 M95,48.5 L108,63.5 " fill="none" style="stroke:#181818;stroke-width:0.5;"/><text fill="#000000" font-family="sans-serif" font-size="14" lengthAdjust="spacing" textLength="174" x="5" y="113.292">Utilisateur non enregistr&#233;</text><ellipse cx="95" cy="125.0938" fill="#E2E2F0" rx="8" ry="8" style="stroke:#181818;stroke-width:0.5;"/><path d="M95,133.0938 L95,160.0938 M82,141.0938 L108,141.0938 M95,160.0938 L82,175.0938 M95,160.0938 L108,175.0938 " fill="none" style="stroke:#181818;stroke-width:0.5;"/><text fill="#000000" font-family="sans-serif" font-size="14" lengthAdjust="spacing" textLength="143" x="195" y="77.9951">Utilisateur enregistr&#233;</text><ellipse cx="269.5" cy="13.5" fill="#E2E2F0" rx="8" ry="8" style="stroke:#181818;stroke-width:0.5;"/><path d="M269.5,21.5 L269.5,48.5 M256.5,29.5 L282.5,29.5 M269.5,48.5 L256.5,63.5 M269.5,48.5 L282.5,63.5 " fill="none" style="stroke:#181818;stroke-width:0.5;"/><text fill="#000000" font-family="sans-serif" font-size="14" lengthAdjust="spacing" textLength="143" x="195" y="113.292">Utilisateur enregistr&#233;</text><ellipse cx="269.5" cy="125.0938" fill="#E2E2F0" rx="8" ry="8" style="stroke:#181818;stroke-width:0.5;"/><path d="M269.5,133.0938 L269.5,160.0938 M256.5,141.0938 L282.5,141.0938 M269.5,160.0938 L256.5,175.0938 M269.5,160.0938 L282.5,175.0938 " fill="none" style="stroke:#181818;stroke-width:0.5;"/><text fill="#000000" font-family="sans-serif" font-size="14" lengthAdjust="spacing" textLength="100" x="354" y="77.9951">Administrateur</text><ellipse cx="407" cy="13.5" fill="#E2E2F0" rx="8" ry="8" style="stroke:#181818;stroke-width:0.5;"/><path d="M407,21.5 L407,48.5 M394,29.5 L420,29.5 M407,48.5 L394,63.5 M407,48.5 L420,63.5 " fill="none" style="stroke:#181818;stroke-width:0.5;"/><text fill="#000000" font-family="sans-serif" font-size="14" lengthAdjust="spacing" textLength="100" x="354" y="113.292">Administrateur</text><ellipse cx="407" cy="125.0938" fill="#E2E2F0" rx="8" ry="8" style="stroke:#181818;stroke-width:0.5;"/><path d="M407,133.0938 L407,160.0938 M394,141.0938 L420,141.0938 M407,160.0938 L394,175.0938 M407,160.0938 L420,175.0938 " fill="none" style="stroke:#181818;stroke-width:0.5;"/><text fill="#000000" font-family="sans-serif" font-size="14" lengthAdjust="spacing" textLength="151" x="470" y="77.9951">Syst&#232;me de paiement</text><ellipse cx="548.5" cy="13.5" fill="#E2E2F0" rx="8" ry="8" style="stroke:#181818;stroke-width:0.5;"/><path d="M548.5,21.5 L548.5,48.5 M535.5,29.5 L561.5,29.5 M548.5,48.5 L535.5,63.5 M548.5,48.5 L561.5,63.5 " fill="none" style="stroke:#181818;stroke-width:0.5;"/><text fill="#000000" font-family="sans-serif" font-size="14" lengthAdjust="spacing" textLength="151" x="470" y="113.292">Syst&#232;me de paiement</text><ellipse cx="548.5" cy="125.0938" fill="#E2E2F0" rx="8" ry="8" style="stroke:#181818;stroke-width:0.5;"/><path d="M548.5,133.0938 L548.5,160.0938 M535.5,141.0938 L561.5,141.0938 M548.5,160.0938 L535.5,175.0938 M548.5,160.0938 L561.5,175.0938 " fill="none" style="stroke:#181818;stroke-width:0.5;"/><!--SRC=[PSl12O1030J0lrK4Ex43KImWU8i4l2Yv-B0ZhSF6v0xzw2-RdUNH5wDwS9abiMCpqaK9QfWakLrdJPneU38CeUB_vkkxdsv25CsY30eghxVlz-JN4K41jB8WGhseblTyvnxn1W00]--></g></svg>