<?xml version="1.0" encoding="us-ascii" standalone="no"?><svg xmlns="http://www.w3.org/2000/svg" xmlns:xlink="http://www.w3.org/1999/xlink" contentStyleType="text/css" height="644px" preserveAspectRatio="none" style="width:489px;height:644px;background:#FFFFFF;" version="1.1" viewBox="0 0 489 644" width="489px" zoomAndPan="magnify"><defs/><g><!--entity Unregistered--><g id="elem_Unregistered"><ellipse cx="93" cy="328" fill="#F1F1F1" rx="8" ry="8" style="stroke:#181818;stroke-width:0.5;"/><path d="M93,336 L93,363 M80,344 L106,344 M93,363 L80,378 M93,363 L106,378 " fill="none" style="stroke:#181818;stroke-width:0.5;"/><text fill="#000000" font-family="sans-serif" font-size="14" lengthAdjust="spacing" textLength="174" x="6" y="392.4951">Utilisateur non enregistr&#233;</text></g><!--entity Registered--><g id="elem_Registered"><ellipse cx="93" cy="516" fill="#F1F1F1" rx="8" ry="8" style="stroke:#181818;stroke-width:0.5;"/><path d="M93,524 L93,551 M80,532 L106,532 M93,551 L80,566 M93,551 L106,566 " fill="none" style="stroke:#181818;stroke-width:0.5;"/><text fill="#000000" font-family="sans-serif" font-size="14" lengthAdjust="spacing" textLength="143" x="21.5" y="580.4951">Utilisateur enregistr&#233;</text></g><!--entity Admin--><g id="elem_Admin"><ellipse cx="93" cy="156" fill="#F1F1F1" rx="8" ry="8" style="stroke:#181818;stroke-width:0.5;"/><path d="M93,164 L93,191 M80,172 L106,172 M93,191 L80,206 M93,191 L106,206 " fill="none" style="stroke:#181818;stroke-width:0.5;"/><text fill="#000000" font-family="sans-serif" font-size="14" lengthAdjust="spacing" textLength="100" x="43" y="220.4951">Administrateur</text></g><!--entity PaymentSystem--><g id="elem_PaymentSystem"><ellipse cx="93" cy="14" fill="#F1F1F1" rx="8" ry="8" style="stroke:#181818;stroke-width:0.5;"/><path d="M93,22 L93,49 M80,30 L106,30 M93,49 L80,64 M93,49 L106,64 " fill="none" style="stroke:#181818;stroke-width:0.5;"/><text fill="#000000" font-family="sans-serif" font-size="14" lengthAdjust="spacing" textLength="151" x="17.5" y="78.4951">Syst&#232;me de paiement</text></g><g id="elem_Rechercher un livre"><ellipse cx="393.1098" cy="398.65" fill="#F1F1F1" rx="86.5998" ry="19.72" style="stroke:#181818;stroke-width:0.5;"/><text fill="#000000" font-family="sans-serif" font-size="14" lengthAdjust="spacing" textLength="134" x="326.1098" y="401.4966">Rechercher un livre</text></g><g id="elem_S'inscrire"><ellipse cx="393.1133" cy="329.6455" fill="#F1F1F1" rx="56.3333" ry="14.7455" style="stroke:#181818;stroke-width:0.5;"/><text fill="#000000" font-family="sans-serif" font-size="14" lengthAdjust="spacing" textLength="62" x="359.1133" y="333.3931">S'inscrire</text></g><g id="elem_Emprunter un livre"><ellipse cx="393.1079" cy="619.6476" fill="#F1F1F1" rx="83.1379" ry="19.0276" style="stroke:#181818;stroke-width:0.5;"/><text fill="#000000" font-family="sans-serif" font-size="14" lengthAdjust="spacing" textLength="126" x="329.5614" y="622.6794">Emprunter un livre</text></g><g id="elem_Retourner un livre"><ellipse cx="393.1058" cy="471.6532" fill="#F1F1F1" rx="81.8658" ry="18.7732" style="stroke:#181818;stroke-width:0.5;"/><text fill="#000000" font-family="sans-serif" font-size="14" lengthAdjust="spacing" textLength="123" x="330.6205" y="474.8263">Retourner un livre</text></g><g id="elem_Payer des amendes"><ellipse cx="393.1128" cy="545.6526" fill="#F1F1F1" rx="87.9128" ry="19.9826" style="stroke:#181818;stroke-width:0.5;"/><text fill="#000000" font-family="sans-serif" font-size="14" lengthAdjust="spacing" textLength="137" x="324.6128" y="548.4992">Payer des amendes</text></g><g id="elem_Ajouter un livre"><ellipse cx="393.1104" cy="114.6501" fill="#F1F1F1" rx="73.4504" ry="17.0901" style="stroke:#181818;stroke-width:0.5;"/><text fill="#000000" font-family="sans-serif" font-size="14" lengthAdjust="spacing" textLength="102" x="339.1104" y="118.3976">Ajouter un livre</text></g><g id="elem_Supprimer un livre"><ellipse cx="393.108" cy="185.6476" fill="#F1F1F1" rx="82.288" ry="18.8576" style="stroke:#181818;stroke-width:0.5;"/><text fill="#000000" font-family="sans-serif" font-size="14" lengthAdjust="spacing" textLength="124" x="330.2705" y="188.7738">Supprimer un livre</text></g><g id="elem_G&#233;rer les utilisateurs"><ellipse cx="393.1144" cy="259.6529" fill="#F1F1F1" rx="90.1144" ry="20.4229" style="stroke:#181818;stroke-width:0.5;"/><text fill="#000000" font-family="sans-serif" font-size="14" lengthAdjust="spacing" textLength="142" x="322.1144" y="262.4996">G&#233;rer les utilisateurs</text></g><g id="elem_Traiter le paiement"><ellipse cx="393.1063" cy="43.6453" fill="#F1F1F1" rx="84.4263" ry="19.2853" style="stroke:#181818;stroke-width:0.5;"/><text fill="#000000" font-family="sans-serif" font-size="14" lengthAdjust="spacing" textLength="129" x="328.485" y="46.5339">Traiter le paiement</text></g><!--link Unregistered to Rechercher un livre--><g id="link_Unregistered_Rechercher un livre"><path d="M180.23,369.51 C223.91,375.52 270.4459,381.9225 312.2559,387.6725 " fill="none" id="Unregistered-to-Rechercher un livre" style="stroke:#181818;stroke-width:1.0;"/><polygon fill="#181818" points="318.2,388.49,309.8289,383.3011,313.2466,387.8088,308.7389,391.2265,318.2,388.49" style="stroke:#181818;stroke-width:1.0;"/></g><!--link Unregistered to S'inscrire--><g id="link_Unregistered_S'inscrire"><path d="M180.23,349.55 C231.82,344.71 289.7163,339.2713 333.7763,335.1313 " fill="none" id="Unregistered-to-S'inscrire" style="stroke:#181818;stroke-width:1.0;"/><polygon fill="#181818" points="339.75,334.57,330.4153,331.4295,334.7719,335.0378,331.1637,339.3944,339.75,334.57" style="stroke:#181818;stroke-width:1.0;"/></g><!--link Registered to Emprunter un livre--><g id="link_Registered_Emprunter un livre"><path d="M164.65,563.19 C216.82,576.14 281.0866,592.095 329.6066,604.135 " fill="none" id="Registered-to-Emprunter un livre" style="stroke:#181818;stroke-width:1.0;"/><polygon fill="#181818" points="335.43,605.58,327.6583,599.5302,330.5772,604.3758,325.7316,607.2947,335.43,605.58" style="stroke:#181818;stroke-width:1.0;"/></g><!--link Rechercher un livre to Emprunter un livre--><g id="link_Rechercher un livre_Emprunter un livre"><path d="M340.71,414.71 C302.38,429.75 253.94,456.58 235.27,500.15 C212.93,552.28 279.2676,584.9536 333.2976,602.9536 " fill="none" id="Rechercher un livre-to-Emprunter un livre" style="stroke:#181818;stroke-width:1.0;stroke-dasharray:7.0,7.0;"/><polygon fill="#181818" points="338.99,604.85,331.7157,598.2104,334.2463,603.2697,329.1871,605.8003,338.99,604.85" style="stroke:#181818;stroke-width:1.0;"/><text fill="#000000" font-family="sans-serif" font-size="13" lengthAdjust="spacing" textLength="61" x="211" y="513.2169">&#171;include&#187;</text></g><!--link Registered to Retourner un livre--><g id="link_Registered_Retourner un livre"><path d="M164.84,509.87 C179.48,503.63 195.01,497.81 210,493.65 C243.14,484.45 274.7576,479.6753 307.1476,476.5553 " fill="none" id="Registered-to-Retourner un livre" style="stroke:#181818;stroke-width:1.0;"/><polygon fill="#181818" points="313.12,475.98,303.7779,472.8614,308.143,476.4594,304.545,480.8245,313.12,475.98" style="stroke:#181818;stroke-width:1.0;"/></g><!--link Registered to Payer des amendes--><g id="link_Registered_Payer des amendes"><path d="M164.65,545.65 C206.66,545.65 254.29,545.65 298.92,545.65 " fill="none" id="Registered-to-Payer des amendes" style="stroke:#181818;stroke-width:1.0;"/><polygon fill="#181818" points="304.92,545.65,295.92,541.65,299.92,545.65,295.92,549.65,304.92,545.65" style="stroke:#181818;stroke-width:1.0;"/></g><!--link Admin to Ajouter un livre--><g id="link_Admin_Ajouter un livre"><path d="M143.23,173.93 C197.72,160.95 279.3133,141.5204 334.7233,128.3204 " fill="none" id="Admin-to-Ajouter un livre" style="stroke:#181818;stroke-width:1.0;"/><polygon fill="#181818" points="340.56,126.93,330.878,125.1245,335.6961,128.0887,332.732,132.9068,340.56,126.93" style="stroke:#181818;stroke-width:1.0;"/></g><!--link Admin to Supprimer un livre--><g id="link_Admin_Supprimer un livre"><path d="M143.23,185.65 C188.62,185.65 250.88,185.65 304.44,185.65 " fill="none" id="Admin-to-Supprimer un livre" style="stroke:#181818;stroke-width:1.0;"/><polygon fill="#181818" points="310.44,185.65,301.44,181.65,305.44,185.65,301.44,189.65,310.44,185.65" style="stroke:#181818;stroke-width:1.0;"/></g><!--link Admin to G?rer les utilisateurs--><g id="link_Admin_G&#233;rer les utilisateurs"><path d="M143.23,197.87 C194.66,210.64 269.6168,229.2442 325.1168,243.0242 " fill="none" id="Admin-to-G&#233;rer les utilisateurs" style="stroke:#181818;stroke-width:1.0;"/><polygon fill="#181818" points="330.94,244.47,323.1691,238.4191,326.0873,243.2651,321.2413,246.1834,330.94,244.47" style="stroke:#181818;stroke-width:1.0;"/></g><!--link PaymentSystem to Traiter le paiement--><g id="link_PaymentSystem_Traiter le paiement"><path d="M168.84,43.65 C211.27,43.65 258.47,43.65 302.3,43.65 " fill="none" id="PaymentSystem-to-Traiter le paiement" style="stroke:#181818;stroke-width:1.0;"/><polygon fill="#181818" points="308.3,43.65,299.3,39.65,303.3,43.65,299.3,47.65,308.3,43.65" style="stroke:#181818;stroke-width:1.0;"/></g><!--SRC=[TP7BRSCm38RldeB89VKX7Q083EHGz5hOpG22nIOiBCgWg0BPA9d3YrLM-eWTzo3eyNtw8L8TlYke1w73KS6IOAlakJ2jUe7LNgcZO1IZ07i6PC431PNXiW8JOF-zHq6xT6VkrtVspZhYqSWNifIFVdXp2ZgS7O95w0sXGzPilPhJk1uvkgAuVGbiDXKyrDWUKSO1aQ6ZJy5oGMlMnA4L6cazOy-kbyWwILZCXSTb6vvWkoLkksYngkxoQrGVXIVvSoVLcRZ502RLc-Qoo0swqjs7ZzFttS0czhsG-m-_31T9h4lHyU_FKlwajLVtJGnfbdz_eVm2]--></g></svg>