<?xml version="1.0" encoding="us-ascii" standalone="no"?><svg xmlns="http://www.w3.org/2000/svg" xmlns:xlink="http://www.w3.org/1999/xlink" contentStyleType="text/css" height="645px" preserveAspectRatio="none" style="width:426px;height:645px;background:#FFFFFF;" version="1.1" viewBox="0 0 426 645" width="426px" zoomAndPan="magnify"><defs/><g><!--entity Unregistered--><g id="elem_Unregistered"><ellipse cx="93" cy="560" fill="#F1F1F1" rx="8" ry="8" style="stroke:#181818;stroke-width:0.5;"/><path d="M93,568 L93,595 M80,576 L106,576 M93,595 L80,610 M93,595 L106,610 " fill="none" style="stroke:#181818;stroke-width:0.5;"/><text fill="#000000" font-family="sans-serif" font-size="14" lengthAdjust="spacing" textLength="174" x="6" y="624.4951">Utilisateur non enregistr&#233;</text></g><!--entity Registered--><g id="elem_Registered"><ellipse cx="93" cy="377" fill="#F1F1F1" rx="8" ry="8" style="stroke:#181818;stroke-width:0.5;"/><path d="M93,385 L93,412 M80,393 L106,393 M93,412 L80,427 M93,412 L106,427 " fill="none" style="stroke:#181818;stroke-width:0.5;"/><text fill="#000000" font-family="sans-serif" font-size="14" lengthAdjust="spacing" textLength="143" x="21.5" y="441.4951">Utilisateur enregistr&#233;</text></g><!--entity Admin--><g id="elem_Admin"><ellipse cx="93" cy="156" fill="#F1F1F1" rx="8" ry="8" style="stroke:#181818;stroke-width:0.5;"/><path d="M93,164 L93,191 M80,172 L106,172 M93,191 L80,206 M93,191 L106,206 " fill="none" style="stroke:#181818;stroke-width:0.5;"/><text fill="#000000" font-family="sans-serif" font-size="14" lengthAdjust="spacing" textLength="100" x="43" y="220.4951">Administrateur</text></g><!--entity PaymentSystem--><g id="elem_PaymentSystem"><ellipse cx="93" cy="14" fill="#F1F1F1" rx="8" ry="8" style="stroke:#181818;stroke-width:0.5;"/><path d="M93,22 L93,49 M80,30 L106,30 M93,49 L80,64 M93,49 L106,64 " fill="none" style="stroke:#181818;stroke-width:0.5;"/><text fill="#000000" font-family="sans-serif" font-size="14" lengthAdjust="spacing" textLength="151" x="17.5" y="78.4951">Syst&#232;me de paiement</text></g><g id="elem_Rechercher un livre"><ellipse cx="330.1098" cy="555.64" fill="#F1F1F1" rx="86.5998" ry="19.72" style="stroke:#181818;stroke-width:0.5;"/><text fill="#000000" font-family="sans-serif" font-size="14" lengthAdjust="spacing" textLength="134" x="263.1098" y="558.4866">Rechercher un livre</text></g><g id="elem_S'inscrire"><ellipse cx="330.1133" cy="624.6355" fill="#F1F1F1" rx="56.3333" ry="14.7455" style="stroke:#181818;stroke-width:0.5;"/><text fill="#000000" font-family="sans-serif" font-size="14" lengthAdjust="spacing" textLength="62" x="296.1133" y="628.3831">S'inscrire</text></g><g id="elem_Emprunter un livre"><ellipse cx="330.1079" cy="333.6376" fill="#F1F1F1" rx="83.1379" ry="19.0276" style="stroke:#181818;stroke-width:0.5;"/><text fill="#000000" font-family="sans-serif" font-size="14" lengthAdjust="spacing" textLength="126" x="266.5614" y="336.6694">Emprunter un livre</text></g><g id="elem_Retourner un livre"><ellipse cx="330.1058" cy="406.6432" fill="#F1F1F1" rx="81.8658" ry="18.7732" style="stroke:#181818;stroke-width:0.5;"/><text fill="#000000" font-family="sans-serif" font-size="14" lengthAdjust="spacing" textLength="123" x="267.6205" y="409.8163">Retourner un livre</text></g><g id="elem_Payer des amendes"><ellipse cx="330.1128" cy="480.6426" fill="#F1F1F1" rx="87.9128" ry="19.9826" style="stroke:#181818;stroke-width:0.5;"/><text fill="#000000" font-family="sans-serif" font-size="14" lengthAdjust="spacing" textLength="137" x="261.6128" y="483.4892">Payer des amendes</text></g><g id="elem_Ajouter un livre"><ellipse cx="330.1104" cy="114.6401" fill="#F1F1F1" rx="73.4504" ry="17.0901" style="stroke:#181818;stroke-width:0.5;"/><text fill="#000000" font-family="sans-serif" font-size="14" lengthAdjust="spacing" textLength="102" x="276.1104" y="118.3876">Ajouter un livre</text></g><g id="elem_Supprimer un livre"><ellipse cx="330.108" cy="185.6376" fill="#F1F1F1" rx="82.288" ry="18.8576" style="stroke:#181818;stroke-width:0.5;"/><text fill="#000000" font-family="sans-serif" font-size="14" lengthAdjust="spacing" textLength="124" x="267.2705" y="188.7638">Supprimer un livre</text></g><g id="elem_G&#233;rer les utilisateurs"><ellipse cx="330.1144" cy="259.6429" fill="#F1F1F1" rx="90.1144" ry="20.4229" style="stroke:#181818;stroke-width:0.5;"/><text fill="#000000" font-family="sans-serif" font-size="14" lengthAdjust="spacing" textLength="142" x="259.1144" y="262.4896">G&#233;rer les utilisateurs</text></g><g id="elem_Traiter le paiement"><ellipse cx="330.1063" cy="43.6353" fill="#F1F1F1" rx="84.4263" ry="19.2853" style="stroke:#181818;stroke-width:0.5;"/><text fill="#000000" font-family="sans-serif" font-size="14" lengthAdjust="spacing" textLength="129" x="265.485" y="46.5239">Traiter le paiement</text></g><!--link Unregistered to Rechercher un livre--><g id="link_Unregistered_Rechercher un livre"><path d="M180.21,577.18 C205.11,573.58 226.1016,570.5379 250.1216,567.0679 " fill="none" id="Unregistered-to-Rechercher un livre" style="stroke:#181818;stroke-width:1.0;"/><polygon fill="#181818" points="256.06,566.21,246.5806,563.5379,251.1114,566.9249,247.7244,571.4557,256.06,566.21" style="stroke:#181818;stroke-width:1.0;"/></g><!--link Unregistered to S'inscrire--><g id="link_Unregistered_S'inscrire"><path d="M180.21,602.48 C214.03,607.51 245.6355,612.2159 274.5655,616.5259 " fill="none" id="Unregistered-to-S'inscrire" style="stroke:#181818;stroke-width:1.0;"/><polygon fill="#181818" points="280.5,617.41,272.1877,612.1275,275.5546,616.6732,271.0088,620.0401,280.5,617.41" style="stroke:#181818;stroke-width:1.0;"/></g><!--link Registered to Emprunter un livre--><g id="link_Registered_Emprunter un livre"><path d="M164.86,384.64 C201.77,373.18 240.2894,361.2176 273.5594,350.8976 " fill="none" id="Registered-to-Emprunter un livre" style="stroke:#181818;stroke-width:1.0;"/><polygon fill="#181818" points="279.29,349.12,269.509,347.9659,274.5145,350.6013,271.8791,355.6068,279.29,349.12" style="stroke:#181818;stroke-width:1.0;"/></g><!--link Registered to Retourner un livre--><g id="link_Registered_Retourner un livre"><path d="M164.86,406.64 C191.09,406.64 215.03,406.64 242.09,406.64 " fill="none" id="Registered-to-Retourner un livre" style="stroke:#181818;stroke-width:1.0;"/><polygon fill="#181818" points="248.09,406.64,239.09,402.64,243.09,406.64,239.09,410.64,248.09,406.64" style="stroke:#181818;stroke-width:1.0;"/></g><!--link Registered to Payer des amendes--><g id="link_Registered_Payer des amendes"><path d="M164.86,428.95 C200.96,440.31 238.357,452.0781 271.357,462.4681 " fill="none" id="Registered-to-Payer des amendes" style="stroke:#181818;stroke-width:1.0;"/><polygon fill="#181818" points="277.08,464.27,269.6967,457.7518,272.3108,462.7684,267.2942,465.3825,277.08,464.27" style="stroke:#181818;stroke-width:1.0;"/></g><!--link Admin to Ajouter un livre--><g id="link_Admin_Ajouter un livre"><path d="M143.29,170.76 C184.76,158.24 237.8359,142.2036 278.1259,130.0436 " fill="none" id="Admin-to-Ajouter un livre" style="stroke:#181818;stroke-width:1.0;"/><polygon fill="#181818" points="283.87,128.31,274.0981,127.0811,279.0833,129.7547,276.4096,134.7398,283.87,128.31" style="stroke:#181818;stroke-width:1.0;"/></g><!--link Admin to Supprimer un livre--><g id="link_Admin_Supprimer un livre"><path d="M143.29,185.64 C173.45,185.64 206.79,185.64 241.5,185.64 " fill="none" id="Admin-to-Supprimer un livre" style="stroke:#181818;stroke-width:1.0;"/><polygon fill="#181818" points="247.5,185.64,238.5,181.64,242.5,185.64,238.5,189.64,247.5,185.64" style="stroke:#181818;stroke-width:1.0;"/></g><!--link Admin to G?rer les utilisateurs--><g id="link_Admin_G&#233;rer les utilisateurs"><path d="M143.29,201.16 C182.2,213.41 230.6667,228.6591 270.4867,241.1891 " fill="none" id="Admin-to-G&#233;rer les utilisateurs" style="stroke:#181818;stroke-width:1.0;"/><polygon fill="#181818" points="276.21,242.99,268.8256,236.473,271.4406,241.4892,266.4244,244.1041,276.21,242.99" style="stroke:#181818;stroke-width:1.0;"/></g><!--link PaymentSystem to Traiter le paiement--><g id="link_PaymentSystem_Traiter le paiement"><path d="M168.71,43.64 C193.05,43.64 214.23,43.64 239.19,43.64 " fill="none" id="PaymentSystem-to-Traiter le paiement" style="stroke:#181818;stroke-width:1.0;"/><polygon fill="#181818" points="245.19,43.64,236.19,39.64,240.19,43.64,236.19,47.64,245.19,43.64" style="stroke:#181818;stroke-width:1.0;"/></g><!--SRC=[VP1BZi8m343tFON5Xkc2Ao2n6CqMjSC1eiQ0HurJEGuIDu9pz68aOJwKpooYVDxp9-vngw0UX7Px1Kk2dPBdodJg1MORfPw2KOm2x1cG1NSKLCRp34o0pVST1Uspc7k_UR1NrX5demGKgJpzyFOOT3mv18im64A7hCLQcsC-PuwkgcuxWSLY2MyDTdkKl20oz7GGh9zexPmuT4APDdVitGqIMISPceSowgFmlqxgDN6B0KpgEUrrLJvvfQil7wSrRc0RXq78lS8VuraIwrFg-3Vtb7yodglxAOQqoB-Jh2y0]--></g></svg>