<?xml version="1.0" encoding="us-ascii" standalone="no"?><svg xmlns="http://www.w3.org/2000/svg" xmlns:xlink="http://www.w3.org/1999/xlink" contentStyleType="text/css" height="134px" preserveAspectRatio="none" style="width:176px;height:134px;background:#FFFFFF;" version="1.1" viewBox="0 0 176 134" width="176px" zoomAndPan="magnify"><defs/><g><!--class Livre--><g id="elem_Livre"><rect codeLine="6" fill="#D3D3D3" height="113.1875" id="Livre" rx="12.5" ry="12.5" style="stroke:#000000;stroke-width:0.5;" width="155" x="7" y="7"/><ellipse cx="64.75" cy="23" fill="#ADD1B2" rx="11" ry="11" style="stroke:#181818;stroke-width:1.0;"/><path d="M67.7188,28.6406 Q67.1406,28.9375 66.5,29.0781 Q65.8594,29.2344 65.1563,29.2344 Q62.6563,29.2344 61.3281,27.5938 Q60.0156,25.9375 60.0156,22.8125 Q60.0156,19.6875 61.3281,18.0313 Q62.6563,16.375 65.1563,16.375 Q65.8594,16.375 66.5,16.5313 Q67.1563,16.6875 67.7188,16.9844 L67.7188,19.7031 Q67.0938,19.125 66.5,18.8594 Q65.9063,18.5781 65.2813,18.5781 Q63.9375,18.5781 63.25,19.6563 Q62.5625,20.7188 62.5625,22.8125 Q62.5625,24.9063 63.25,25.9844 Q63.9375,27.0469 65.2813,27.0469 Q65.9063,27.0469 66.5,26.7813 Q67.0938,26.5 67.7188,25.9219 L67.7188,28.6406 Z " fill="#000000"/><text fill="#000000" font-family="sans-serif" font-size="14" lengthAdjust="spacing" textLength="31" x="85.25" y="27.8467">Livre</text><line style="stroke:#000000;stroke-width:0.5;" x1="8" x2="161" y1="39" y2="39"/><text fill="#000000" font-family="sans-serif" font-size="14" lengthAdjust="spacing" textLength="76" x="13" y="55.9951">titre: String</text><text fill="#000000" font-family="sans-serif" font-size="14" lengthAdjust="spacing" textLength="81" x="13" y="72.292">ISBN: String</text><text fill="#000000" font-family="sans-serif" font-size="14" lengthAdjust="spacing" textLength="143" x="13" y="88.5889">nombreDePages: int</text><line style="stroke:#000000;stroke-width:0.5;" x1="8" x2="161" y1="95.8906" y2="95.8906"/><text fill="#000000" font-family="sans-serif" font-size="14" lengthAdjust="spacing" textLength="83" x="13" y="112.8857">emprunter()</text></g><!--SRC=[ROt12i8m44Jl-OezwbNmqfjL446aq2-8xH93azqoIHKH_zqIJnRt-ERDR1gyZ1OsKXTiIhNj1WUTfDzhKD3Pkri-mZvDMeYAdl6LwZ2tbi8EqCV_lEnt2c7GPcjCyUTNTp2z3CsNVGPNr6PuSOMSslho0qJZ5NpWnZfE5Nd91NCSCKbchDRc_G40]--></g></svg>