<?xml version="1.0" encoding="us-ascii" standalone="no"?><svg xmlns="http://www.w3.org/2000/svg" xmlns:xlink="http://www.w3.org/1999/xlink" contentStyleType="text/css" height="170px" preserveAspectRatio="none" style="width:223px;height:170px;background:#FFFFFF;" version="1.1" viewBox="0 0 223 170" width="223px" zoomAndPan="magnify"><defs/><g><!--class Livre--><g id="elem_Livre"><rect codeLine="6" fill="#D3D3D3" height="48" id="Livre" rx="12.5" ry="12.5" style="stroke:#000000;stroke-width:0.5;" width="63" x="32.5" y="7"/><ellipse cx="47.5" cy="23" fill="#ADD1B2" rx="11" ry="11" style="stroke:#181818;stroke-width:1.0;"/><path d="M50.4688,28.6406 Q49.8906,28.9375 49.25,29.0781 Q48.6094,29.2344 47.9063,29.2344 Q45.4063,29.2344 44.0781,27.5938 Q42.7656,25.9375 42.7656,22.8125 Q42.7656,19.6875 44.0781,18.0313 Q45.4063,16.375 47.9063,16.375 Q48.6094,16.375 49.25,16.5313 Q49.9063,16.6875 50.4688,16.9844 L50.4688,19.7031 Q49.8438,19.125 49.25,18.8594 Q48.6563,18.5781 48.0313,18.5781 Q46.6875,18.5781 46,19.6563 Q45.3125,20.7188 45.3125,22.8125 Q45.3125,24.9063 46,25.9844 Q46.6875,27.0469 48.0313,27.0469 Q48.6563,27.0469 49.25,26.7813 Q49.8438,26.5 50.4688,25.9219 L50.4688,28.6406 Z " fill="#000000"/><text fill="#000000" font-family="sans-serif" font-size="14" lengthAdjust="spacing" textLength="31" x="61.5" y="27.8467">Livre</text><line style="stroke:#000000;stroke-width:0.5;" x1="33.5" x2="94.5" y1="39" y2="39"/><line style="stroke:#000000;stroke-width:0.5;" x1="33.5" x2="94.5" y1="47" y2="47"/></g><!--class Auteur--><g id="elem_Auteur"><rect codeLine="8" fill="#D3D3D3" height="48" id="Auteur" rx="12.5" ry="12.5" style="stroke:#000000;stroke-width:0.5;" width="78" x="130" y="7"/><ellipse cx="145" cy="23" fill="#ADD1B2" rx="11" ry="11" style="stroke:#181818;stroke-width:1.0;"/><path d="M147.9688,28.6406 Q147.3906,28.9375 146.75,29.0781 Q146.1094,29.2344 145.4063,29.2344 Q142.9063,29.2344 141.5781,27.5938 Q140.2656,25.9375 140.2656,22.8125 Q140.2656,19.6875 141.5781,18.0313 Q142.9063,16.375 145.4063,16.375 Q146.1094,16.375 146.75,16.5313 Q147.4063,16.6875 147.9688,16.9844 L147.9688,19.7031 Q147.3438,19.125 146.75,18.8594 Q146.1563,18.5781 145.5313,18.5781 Q144.1875,18.5781 143.5,19.6563 Q142.8125,20.7188 142.8125,22.8125 Q142.8125,24.9063 143.5,25.9844 Q144.1875,27.0469 145.5313,27.0469 Q146.1563,27.0469 146.75,26.7813 Q147.3438,26.5 147.9688,25.9219 L147.9688,28.6406 Z " fill="#000000"/><text fill="#000000" font-family="sans-serif" font-size="14" lengthAdjust="spacing" textLength="46" x="159" y="27.8467">Auteur</text><line style="stroke:#000000;stroke-width:0.5;" x1="131" x2="207" y1="39" y2="39"/><line style="stroke:#000000;stroke-width:0.5;" x1="131" x2="207" y1="47" y2="47"/></g><!--class Emprunteur--><g id="elem_Emprunteur"><rect codeLine="10" fill="#D3D3D3" height="48" id="Emprunteur" rx="12.5" ry="12.5" style="stroke:#000000;stroke-width:0.5;" width="114" x="7" y="115"/><ellipse cx="22" cy="131" fill="#ADD1B2" rx="11" ry="11" style="stroke:#181818;stroke-width:1.0;"/><path d="M24.9688,136.6406 Q24.3906,136.9375 23.75,137.0781 Q23.1094,137.2344 22.4063,137.2344 Q19.9063,137.2344 18.5781,135.5938 Q17.2656,133.9375 17.2656,130.8125 Q17.2656,127.6875 18.5781,126.0313 Q19.9063,124.375 22.4063,124.375 Q23.1094,124.375 23.75,124.5313 Q24.4063,124.6875 24.9688,124.9844 L24.9688,127.7031 Q24.3438,127.125 23.75,126.8594 Q23.1563,126.5781 22.5313,126.5781 Q21.1875,126.5781 20.5,127.6563 Q19.8125,128.7188 19.8125,130.8125 Q19.8125,132.9063 20.5,133.9844 Q21.1875,135.0469 22.5313,135.0469 Q23.1563,135.0469 23.75,134.7813 Q24.3438,134.5 24.9688,133.9219 L24.9688,136.6406 Z " fill="#000000"/><text fill="#000000" font-family="sans-serif" font-size="14" lengthAdjust="spacing" textLength="82" x="36" y="135.8467">Emprunteur</text><line style="stroke:#000000;stroke-width:0.5;" x1="8" x2="120" y1="147" y2="147"/><line style="stroke:#000000;stroke-width:0.5;" x1="8" x2="120" y1="155" y2="155"/></g><!--class Pr?t--><g id="elem_Pr&#234;t"><rect codeLine="12" fill="#D3D3D3" height="48" id="Pr&#234;t" rx="12.5" ry="12.5" style="stroke:#000000;stroke-width:0.5;" width="60" x="156" y="115"/><ellipse cx="171" cy="131" fill="#ADD1B2" rx="11" ry="11" style="stroke:#181818;stroke-width:1.0;"/><path d="M173.9688,136.6406 Q173.3906,136.9375 172.75,137.0781 Q172.1094,137.2344 171.4063,137.2344 Q168.9063,137.2344 167.5781,135.5938 Q166.2656,133.9375 166.2656,130.8125 Q166.2656,127.6875 167.5781,126.0313 Q168.9063,124.375 171.4063,124.375 Q172.1094,124.375 172.75,124.5313 Q173.4063,124.6875 173.9688,124.9844 L173.9688,127.7031 Q173.3438,127.125 172.75,126.8594 Q172.1563,126.5781 171.5313,126.5781 Q170.1875,126.5781 169.5,127.6563 Q168.8125,128.7188 168.8125,130.8125 Q168.8125,132.9063 169.5,133.9844 Q170.1875,135.0469 171.5313,135.0469 Q172.1563,135.0469 172.75,134.7813 Q173.3438,134.5 173.9688,133.9219 L173.9688,136.6406 Z " fill="#000000"/><text fill="#000000" font-family="sans-serif" font-size="14" lengthAdjust="spacing" textLength="28" x="185" y="135.8467">Pr&#234;t</text><line style="stroke:#000000;stroke-width:0.5;" x1="157" x2="215" y1="147" y2="147"/><line style="stroke:#000000;stroke-width:0.5;" x1="157" x2="215" y1="155" y2="155"/></g><!--SRC=[AyxEp2j8B4hCLKZEIImkTafCpauloY_DIt7EpyalKl39JCyeSIzAhEGgHbEONvIIMWHHv9G3r8MkmB6eABySkppO_EJyehpK8WKZKouki7gWLML5gGhLNBLGlcDfIMff4PA0Qsv1KMaUcc10qU5L9I0-0000]--></g></svg>