<?xml version="1.0" encoding="us-ascii" standalone="no"?><svg xmlns="http://www.w3.org/2000/svg" xmlns:xlink="http://www.w3.org/1999/xlink" contentStyleType="text/css" height="813px" preserveAspectRatio="none" style="width:269px;height:813px;background:#FFFFFF;" version="1.1" viewBox="0 0 269 813" width="269px" zoomAndPan="magnify"><defs/><g><!--cluster Interface Utilisateur (UI)--><g id="cluster_Interface Utilisateur (UI)"><path d="M30.5,628.1317 L219.5,628.1317 A3.75,3.75 0 0 1 222,630.6317 L229,650.4286 L228.5,650.4286 A2.5,2.5 0 0 1 231,652.9286 L231,803.6317 A2.5,2.5 0 0 1 228.5,806.1317 L30.5,806.1317 A2.5,2.5 0 0 1 28,803.6317 L28,630.6317 A2.5,2.5 0 0 1 30.5,628.1317 " fill="none" style="stroke:#000000;stroke-width:1.5;"/><line style="stroke:#000000;stroke-width:1.5;" x1="28" x2="229" y1="650.4286" y2="650.4286"/><text fill="#000000" font-family="sans-serif" font-size="14" font-weight="bold" lengthAdjust="spacing" textLength="188" x="32" y="643.1269">Interface Utilisateur (UI)</text></g><!--cluster Gestionnaire de Livres--><g id="cluster_Gestionnaire de Livres"><path d="M18,426.1317 L198,426.1317 A3.75,3.75 0 0 1 200.5,428.6317 L207.5,448.4286 L240,448.4286 A2.5,2.5 0 0 1 242.5,450.9286 L242.5,601.6317 A2.5,2.5 0 0 1 240,604.1317 L18,604.1317 A2.5,2.5 0 0 1 15.5,601.6317 L15.5,428.6317 A2.5,2.5 0 0 1 18,426.1317 " fill="none" style="stroke:#000000;stroke-width:1.5;"/><line style="stroke:#000000;stroke-width:1.5;" x1="15.5" x2="207.5" y1="448.4286" y2="448.4286"/><text fill="#000000" font-family="sans-serif" font-size="14" font-weight="bold" lengthAdjust="spacing" textLength="179" x="19.5" y="441.1269">Gestionnaire de Livres</text></g><!--cluster Base de Donn?es--><g id="cluster_Base de Donn&#233;es"><path d="M6,219.1317 C6,209.1317 129,209.1317 129,209.1317 C129,209.1317 252,209.1317 252,219.1317 L252,392.1317 C252,402.1317 129,402.1317 129,402.1317 C129,402.1317 6,402.1317 6,392.1317 L6,219.1317 " fill="none" style="stroke:#181818;stroke-width:1.0;"/><path d="M6,219.1317 C6,229.1317 129,229.1317 129,229.1317 C129,229.1317 252,229.1317 252,219.1317 " fill="none" style="stroke:#181818;stroke-width:1.0;"/><text fill="#000000" font-family="sans-serif" font-size="14" font-weight="bold" lengthAdjust="spacing" textLength="138" x="60" y="244.1269">Base de Donn&#233;es</text></g><!--cluster Syst?me d'Authentification--><g id="cluster_Syst&#232;me d'Authentification"><path d="M31.4401,16.3559 C36.6251,9.4528 41.776,7.4325 47.6895,15.5688 C54.2923,7.217 60.0852,9.0759 65.6498,16.7336 C69.1443,9.8669 76.9068,8.187 81.4599,15.5583 C86.8753,8.8058 92.8469,7.0753 97.7955,16.0434 C101.1406,8.0226 109.014,6.4255 114.2387,14.0704 C119.2738,6 127.1151,6.594 131.2059,15.0404 C136.4673,6.2809 142.7066,8.089 147.8528,15.1615 C153.2536,7.5279 158.7107,7.3238 163.5366,15.7238 C168.6339,7.3917 175.0082,6.7306 180.5264,15.3007 C185.0676,7.6295 192.4373,7.2686 196.578,15.7001 C202.711,7.5067 209.1034,8.3721 213.8125,17.1464 C222.3624,9.8792 230.5336,10.3789 234.5,22.1317 C234.9578,22.3832 234.9633,22.7564 234.5813,23.0799 C244.676,25.0351 246.1998,32.9622 239.2834,39.7233 C245.3723,42.5055 247.0582,47.1839 241.1968,51.8515 C250.0877,56.7143 250.9492,62.4356 243.0004,69.063 C250.228,72.9679 250.3282,77.7207 244.0872,82.6991 C251.353,86.2053 253.142,93.7972 245.7061,98.7831 C251.5162,103.8693 250.8789,108.4828 244.1694,112.1272 C249.6583,118.214 250.1015,122.7939 241.5889,126.3382 C249.3159,131.1028 249.4734,139.1098 240.6594,142.9488 C246.8772,149.7098 244.0513,153.3854 237.0761,156.7114 C244.1143,167.6875 240.1758,175.4005 227.5,177.1317 C228.6558,176.7533 229.3138,177.0954 229.2405,178.4016 C226.3003,186.5624 219.5375,188.5352 213.7768,181.2198 C209.4081,189.6801 201.5854,188.9721 197.3539,181.082 C194.2473,190.7805 185.0942,192.0115 178.7316,184.6326 C174.0672,194.3056 168.9712,193.7691 162.298,186.5918 C158.2189,195.1901 153.4053,193.9846 147.5783,188.4068 C143.448,196.084 135.8076,196.1869 130.5897,189.7124 C124.9734,197.7683 117.0268,195.8983 113.1333,187.8455 C107.9516,195.2883 102.6225,195.9429 97.7625,187.5335 C92.2209,194.3474 84.5256,194.3531 80.5479,185.7835 C74.8708,191.2251 68.399,191.2335 65.6894,182.6415 C59.5748,190.0131 53.8099,189.4646 48.3478,181.8847 C36.6934,188.9002 25.2589,184.037 23.5,170.1317 C24.3903,169.5957 24.8958,169.9345 24.9348,170.9296 C15.911,167.298 17.0047,161.1516 22.8992,155.5459 C16.6816,152.7391 15.1785,146.4754 21.7855,142.5681 C13.9671,140.3409 12.7122,132.9539 18.7651,127.8752 C10.5389,123.8146 11.8228,115.8441 18.331,111.3953 C10.8156,108.2235 11.4321,103.3265 16.3913,98.3062 C8.0742,93.6528 9.251,85.989 16.7033,81.6307 C10.7327,76.8096 10.7479,69.4975 18.8285,66.6728 C12.8356,60.6601 14.5359,55.9645 22.1193,53.2902 C15.4413,48.4584 14.567,41.4511 23.1715,37.6473 C13.515,26.0905 17.4544,19.2993 30.5,15.1317 C31.3399,15.1243 31.6693,15.5423 31.4401,16.3559 " fill="none" style="stroke:#181818;stroke-width:1.0;"/><text fill="#000000" font-family="sans-serif" font-size="14" font-weight="bold" lengthAdjust="spacing" textLength="212" x="23" y="33.1269">Syst&#232;me d'Authentification</text></g><!--entity Interface Web--><g id="elem_Interface Web"><rect fill="#F1F1F1" height="46.2969" rx="2.5" ry="2.5" style="stroke:#181818;stroke-width:0.5;" width="135" x="61.5" y="662.9817"/><rect fill="#F1F1F1" height="10" style="stroke:#181818;stroke-width:0.5;" width="15" x="176.5" y="667.9817"/><rect fill="#F1F1F1" height="2" style="stroke:#181818;stroke-width:0.5;" width="4" x="174.5" y="669.9817"/><rect fill="#F1F1F1" height="2" style="stroke:#181818;stroke-width:0.5;" width="4" x="174.5" y="673.9817"/><text fill="#000000" font-family="sans-serif" font-size="14" lengthAdjust="spacing" textLength="95" x="76.5" y="695.9769">Interface Web</text></g><!--entity Application Mobile--><g id="elem_Application Mobile"><rect fill="#F1F1F1" height="46.2969" rx="2.5" ry="2.5" style="stroke:#181818;stroke-width:0.5;" width="164" x="47" y="743.9817"/><rect fill="#F1F1F1" height="10" style="stroke:#181818;stroke-width:0.5;" width="15" x="191" y="748.9817"/><rect fill="#F1F1F1" height="2" style="stroke:#181818;stroke-width:0.5;" width="4" x="189" y="750.9817"/><rect fill="#F1F1F1" height="2" style="stroke:#181818;stroke-width:0.5;" width="4" x="189" y="754.9817"/><text fill="#000000" font-family="sans-serif" font-size="14" lengthAdjust="spacing" textLength="124" x="62" y="776.9769">Application Mobile</text></g><!--entity Recherche de Livres--><g id="elem_Recherche de Livres"><rect fill="#F1F1F1" height="46.2969" rx="2.5" ry="2.5" style="stroke:#181818;stroke-width:0.5;" width="181" x="38.5" y="460.9817"/><rect fill="#F1F1F1" height="10" style="stroke:#181818;stroke-width:0.5;" width="15" x="199.5" y="465.9817"/><rect fill="#F1F1F1" height="2" style="stroke:#181818;stroke-width:0.5;" width="4" x="197.5" y="467.9817"/><rect fill="#F1F1F1" height="2" style="stroke:#181818;stroke-width:0.5;" width="4" x="197.5" y="471.9817"/><text fill="#000000" font-family="sans-serif" font-size="14" lengthAdjust="spacing" textLength="141" x="53.5" y="493.9769">Recherche de Livres</text></g><!--entity Gestion des Emprunts--><g id="elem_Gestion des Emprunts"><rect fill="#F1F1F1" height="46.2969" rx="2.5" ry="2.5" style="stroke:#181818;stroke-width:0.5;" width="195" x="31.5" y="541.9817"/><rect fill="#F1F1F1" height="10" style="stroke:#181818;stroke-width:0.5;" width="15" x="206.5" y="546.9817"/><rect fill="#F1F1F1" height="2" style="stroke:#181818;stroke-width:0.5;" width="4" x="204.5" y="548.9817"/><rect fill="#F1F1F1" height="2" style="stroke:#181818;stroke-width:0.5;" width="4" x="204.5" y="552.9817"/><text fill="#000000" font-family="sans-serif" font-size="14" lengthAdjust="spacing" textLength="155" x="46.5" y="574.9769">Gestion des Emprunts</text></g><!--entity Donn?es des Livres--><g id="elem_Donn&#233;es des Livres"><rect fill="#F1F1F1" height="46.2969" rx="2.5" ry="2.5" style="stroke:#181818;stroke-width:0.5;" width="177" x="40.5" y="258.9817"/><rect fill="#F1F1F1" height="10" style="stroke:#181818;stroke-width:0.5;" width="15" x="197.5" y="263.9817"/><rect fill="#F1F1F1" height="2" style="stroke:#181818;stroke-width:0.5;" width="4" x="195.5" y="265.9817"/><rect fill="#F1F1F1" height="2" style="stroke:#181818;stroke-width:0.5;" width="4" x="195.5" y="269.9817"/><text fill="#000000" font-family="sans-serif" font-size="14" lengthAdjust="spacing" textLength="137" x="55.5" y="291.9769">Donn&#233;es des Livres</text></g><!--entity Donn?es des Utilisateurs--><g id="elem_Donn&#233;es des Utilisateurs"><rect fill="#F1F1F1" height="46.2969" rx="2.5" ry="2.5" style="stroke:#181818;stroke-width:0.5;" width="214" x="22" y="339.9817"/><rect fill="#F1F1F1" height="10" style="stroke:#181818;stroke-width:0.5;" width="15" x="216" y="344.9817"/><rect fill="#F1F1F1" height="2" style="stroke:#181818;stroke-width:0.5;" width="4" x="214" y="346.9817"/><rect fill="#F1F1F1" height="2" style="stroke:#181818;stroke-width:0.5;" width="4" x="214" y="350.9817"/><text fill="#000000" font-family="sans-serif" font-size="14" lengthAdjust="spacing" textLength="174" x="37" y="372.9769">Donn&#233;es des Utilisateurs</text></g><!--entity Authentification--><g id="elem_Authentification"><rect fill="#F1F1F1" height="46.2969" rx="2.5" ry="2.5" style="stroke:#181818;stroke-width:0.5;" width="147" x="55.5" y="41.9817"/><rect fill="#F1F1F1" height="10" style="stroke:#181818;stroke-width:0.5;" width="15" x="182.5" y="46.9817"/><rect fill="#F1F1F1" height="2" style="stroke:#181818;stroke-width:0.5;" width="4" x="180.5" y="48.9817"/><rect fill="#F1F1F1" height="2" style="stroke:#181818;stroke-width:0.5;" width="4" x="180.5" y="52.9817"/><text fill="#000000" font-family="sans-serif" font-size="14" lengthAdjust="spacing" textLength="107" x="70.5" y="74.9769">Authentification</text></g><!--entity Inscription--><g id="elem_Inscription"><rect fill="#F1F1F1" height="46.2969" rx="2.5" ry="2.5" style="stroke:#181818;stroke-width:0.5;" width="111" x="73.5" y="122.9817"/><rect fill="#F1F1F1" height="10" style="stroke:#181818;stroke-width:0.5;" width="15" x="164.5" y="127.9817"/><rect fill="#F1F1F1" height="2" style="stroke:#181818;stroke-width:0.5;" width="4" x="162.5" y="129.9817"/><rect fill="#F1F1F1" height="2" style="stroke:#181818;stroke-width:0.5;" width="4" x="162.5" y="133.9817"/><text fill="#000000" font-family="sans-serif" font-size="14" lengthAdjust="spacing" textLength="71" x="88.5" y="155.9769">Inscription</text></g><!--SRC=[NT1B2i8m40RWVKynTACUGr54q8qYBgIBQJgrWp4DoLGGyJvw3Yzc-j2gYmJcJ-OB4qsvW9JW-508PEn82PScigYEU2285qR8vQW8jiAQFGfL3eRRnIY6QmImxo_iA4tgP6ojPeMr0wioPKr9T8jwSaw-FZCONeECOCbdHxxZrgGASc7r9mtQDONKm-naNMN4Dso6WYdwu4xgFNHDW_ryVCHtsRH-YJ_vrt0jgtHPPH1lBbwUzrDm1-DA2ZB2UJTRn__7IVifNZcsRNrx0G00]--></g></svg>