<?xml version="1.0" encoding="us-ascii" standalone="no"?><svg xmlns="http://www.w3.org/2000/svg" xmlns:xlink="http://www.w3.org/1999/xlink" contentStyleType="text/css" height="505px" preserveAspectRatio="none" style="width:484px;height:505px;background:#FFFFFF;" version="1.1" viewBox="0 0 484 505" width="484px" zoomAndPan="magnify"><defs/><g><!--cluster Interface Utilisateur (UI)--><g id="cluster_Interface Utilisateur (UI)"><rect fill="none" height="97" rx="2.5" ry="2.5" style="stroke:#181818;stroke-width:1.0;" width="386" x="64" y="7"/><text fill="#000000" font-family="sans-serif" font-size="14" font-weight="bold" lengthAdjust="spacing" textLength="200" x="157" y="21.9951">Interface Utilisateur (UI)</text></g><!--cluster Gestionnaire de Livres--><g id="cluster_Gestionnaire de Livres"><rect fill="none" height="97" rx="2.5" ry="2.5" style="stroke:#181818;stroke-width:1.0;" width="452" x="19" y="128"/><text fill="#000000" font-family="sans-serif" font-size="14" font-weight="bold" lengthAdjust="spacing" textLength="181" x="154.5" y="142.9951">Gestionnaire de Livres</text></g><!--cluster Base de Donn?es--><g id="cluster_Base de Donn&#233;es"><path d="M6,259 C6,249 236.5,249 236.5,249 C236.5,249 467,249 467,259 L467,351 C467,361 236.5,361 236.5,361 C236.5,361 6,361 6,351 L6,259 " fill="none" style="stroke:#181818;stroke-width:1.0;"/><path d="M6,259 C6,269 236.5,269 236.5,269 C236.5,269 467,269 467,259 " fill="none" style="stroke:#181818;stroke-width:1.0;"/><text fill="#000000" font-family="sans-serif" font-size="14" font-weight="bold" lengthAdjust="spacing" textLength="136" x="168.5" y="283.9951">Base de Donn&#233;es</text></g><!--cluster Syst?me d'Authentification--><g id="cluster_Syst&#232;me d'Authentification"><path d="M125.9287,393.2849 C131.9474,384.185 141.8418,383.3369 146.2283,394.8893 C153.5756,385.503 160.6615,385.0333 168.7249,394.0119 C176.2819,381.7295 185.1527,382.2626 192.8252,393.8955 C199.4904,383.3734 211.0204,382.1532 217.9952,393.5399 C224.8155,382.3113 235.7906,383.4098 242.2221,393.9723 C247.2303,381.9557 255.7832,382.5052 263.7434,390.8525 C272.193,378.2904 280.2091,377.2517 289.7143,389.7589 C297.8054,380.3982 305.0562,378.7361 311.6317,391.2757 C317.7665,380.3696 326.983,382.2182 332.835,391.5718 C341.2943,381.502 351.1274,382.0811 357.4258,393.9896 C364.536,381.351 372.3501,382.4596 381.1262,392.2275 C390.0712,381.0536 397.037,380.8234 404.0435,394.0482 C412.436,383.3333 420.9089,380.914 429.7778,393.5226 C435.7177,383.1435 445.4236,386.2198 449.7523,395.1861 C471.7209,402.4644 474.3504,420.1287 460.8992,436.8771 C474.6351,450.6334 472.4268,469.7291 451.1373,474.3646 C445.1094,488.184 437.0946,491.3793 425.7042,479.7169 C418.7353,487.4067 411.4819,487.1971 406.5268,477.4962 C398.8003,489.8138 391.1509,493.4763 380.6823,480.2731 C375.499,491.7718 364.4345,492.4038 356.9536,482.8645 C350.5694,492.5156 339.4296,492.7644 334.3187,481.4873 C328.5848,491.258 319.3732,492.289 312.4096,482.893 C307.3531,494.5312 295.9204,496.9118 288.0464,485.9272 C280.5876,496.5641 272.8532,497.6321 265.4819,485.8391 C258.0857,498.6826 247.1442,498.0256 240.7166,484.9148 C232.0629,495.318 220.9383,494.3814 216.0212,481.0303 C209.3172,489.892 200.7789,489.1232 196.1421,478.8795 C189.9483,492.0393 178.4831,492.4995 170.5058,480.7124 C160.9055,490.2642 152.9035,491.9087 146.0238,477.887 C139.6044,488.1922 130.2005,486.9169 124.6278,476.9915 C99.6538,471.9122 95.7497,451.7365 111.0636,433.9583 C92.8923,414.9441 103.262,397.3739 125.9287,393.2849 " fill="none" style="stroke:#181818;stroke-width:1.0;"/><text fill="#000000" font-family="sans-serif" font-size="14" font-weight="bold" lengthAdjust="spacing" textLength="223" x="174" y="410.9951">Syst&#232;me d'Authentification</text></g><!--entity Interface Web--><g id="elem_Interface Web"><rect fill="#F1F1F1" height="46.2969" rx="2.5" ry="2.5" style="stroke:#181818;stroke-width:0.5;" width="143" x="290.5" y="42"/><rect fill="#F1F1F1" height="10" style="stroke:#181818;stroke-width:0.5;" width="15" x="413.5" y="47"/><rect fill="#F1F1F1" height="2" style="stroke:#181818;stroke-width:0.5;" width="4" x="411.5" y="49"/><rect fill="#F1F1F1" height="2" style="stroke:#181818;stroke-width:0.5;" width="4" x="411.5" y="53"/><text fill="#000000" font-family="sans-serif" font-size="14" lengthAdjust="spacing" textLength="103" x="305.5" y="74.9951">Interface Web</text></g><!--entity Application Mobile--><g id="elem_Application Mobile"><rect fill="#F1F1F1" height="46.2969" rx="2.5" ry="2.5" style="stroke:#181818;stroke-width:0.5;" width="175" x="80.5" y="42"/><rect fill="#F1F1F1" height="10" style="stroke:#181818;stroke-width:0.5;" width="15" x="235.5" y="47"/><rect fill="#F1F1F1" height="2" style="stroke:#181818;stroke-width:0.5;" width="4" x="233.5" y="49"/><rect fill="#F1F1F1" height="2" style="stroke:#181818;stroke-width:0.5;" width="4" x="233.5" y="53"/><text fill="#000000" font-family="sans-serif" font-size="14" lengthAdjust="spacing" textLength="135" x="95.5" y="74.9951">Application Mobile</text></g><!--entity Recherche de Livres--><g id="elem_Recherche de Livres"><rect fill="#F1F1F1" height="46.2969" rx="2.5" ry="2.5" style="stroke:#181818;stroke-width:0.5;" width="185" x="269.5" y="163"/><rect fill="#F1F1F1" height="10" style="stroke:#181818;stroke-width:0.5;" width="15" x="434.5" y="168"/><rect fill="#F1F1F1" height="2" style="stroke:#181818;stroke-width:0.5;" width="4" x="432.5" y="170"/><rect fill="#F1F1F1" height="2" style="stroke:#181818;stroke-width:0.5;" width="4" x="432.5" y="174"/><text fill="#000000" font-family="sans-serif" font-size="14" lengthAdjust="spacing" textLength="145" x="284.5" y="195.9951">Recherche de Livres</text></g><!--entity Gestion des Emprunts--><g id="elem_Gestion des Emprunts"><rect fill="#F1F1F1" height="46.2969" rx="2.5" ry="2.5" style="stroke:#181818;stroke-width:0.5;" width="199" x="35.5" y="163"/><rect fill="#F1F1F1" height="10" style="stroke:#181818;stroke-width:0.5;" width="15" x="214.5" y="168"/><rect fill="#F1F1F1" height="2" style="stroke:#181818;stroke-width:0.5;" width="4" x="212.5" y="170"/><rect fill="#F1F1F1" height="2" style="stroke:#181818;stroke-width:0.5;" width="4" x="212.5" y="174"/><text fill="#000000" font-family="sans-serif" font-size="14" lengthAdjust="spacing" textLength="159" x="50.5" y="195.9951">Gestion des Emprunts</text></g><!--entity Donn?es des Livres--><g id="elem_Donn&#233;es des Livres"><rect fill="#F1F1F1" height="46.2969" rx="2.5" ry="2.5" style="stroke:#181818;stroke-width:0.5;" width="178" x="273" y="299"/><rect fill="#F1F1F1" height="10" style="stroke:#181818;stroke-width:0.5;" width="15" x="431" y="304"/><rect fill="#F1F1F1" height="2" style="stroke:#181818;stroke-width:0.5;" width="4" x="429" y="306"/><rect fill="#F1F1F1" height="2" style="stroke:#181818;stroke-width:0.5;" width="4" x="429" y="310"/><text fill="#000000" font-family="sans-serif" font-size="14" lengthAdjust="spacing" textLength="138" x="288" y="331.9951">Donn&#233;es des Livres</text></g><!--entity Donn?es des Utilisateurs--><g id="elem_Donn&#233;es des Utilisateurs"><rect fill="#F1F1F1" height="46.2969" rx="2.5" ry="2.5" style="stroke:#181818;stroke-width:0.5;" width="216" x="22" y="299"/><rect fill="#F1F1F1" height="10" style="stroke:#181818;stroke-width:0.5;" width="15" x="218" y="304"/><rect fill="#F1F1F1" height="2" style="stroke:#181818;stroke-width:0.5;" width="4" x="216" y="306"/><rect fill="#F1F1F1" height="2" style="stroke:#181818;stroke-width:0.5;" width="4" x="216" y="310"/><text fill="#000000" font-family="sans-serif" font-size="14" lengthAdjust="spacing" textLength="176" x="37" y="331.9951">Donn&#233;es des Utilisateurs</text></g><!--entity Authentification--><g id="elem_Authentification"><rect fill="#F1F1F1" height="46.2969" rx="2.5" ry="2.5" style="stroke:#181818;stroke-width:0.5;" width="158" x="283" y="420"/><rect fill="#F1F1F1" height="10" style="stroke:#181818;stroke-width:0.5;" width="15" x="421" y="425"/><rect fill="#F1F1F1" height="2" style="stroke:#181818;stroke-width:0.5;" width="4" x="419" y="427"/><rect fill="#F1F1F1" height="2" style="stroke:#181818;stroke-width:0.5;" width="4" x="419" y="431"/><text fill="#000000" font-family="sans-serif" font-size="14" lengthAdjust="spacing" textLength="118" x="298" y="452.9951">Authentification</text></g><!--entity Inscription--><g id="elem_Inscription"><rect fill="#F1F1F1" height="46.2969" rx="2.5" ry="2.5" style="stroke:#181818;stroke-width:0.5;" width="117" x="130.5" y="420"/><rect fill="#F1F1F1" height="10" style="stroke:#181818;stroke-width:0.5;" width="15" x="227.5" y="425"/><rect fill="#F1F1F1" height="2" style="stroke:#181818;stroke-width:0.5;" width="4" x="225.5" y="427"/><rect fill="#F1F1F1" height="2" style="stroke:#181818;stroke-width:0.5;" width="4" x="225.5" y="431"/><text fill="#000000" font-family="sans-serif" font-size="14" lengthAdjust="spacing" textLength="77" x="145.5" y="452.9951">Inscription</text></g><!--link Interface Web to Recherche de Livres--><g id="link_Interface Web_Recherche de Livres"><path d="M362,88.044 C362,109.437 362,141.132 362,162.63 " fill="none" id="Interface Web-Recherche de Livres" style="stroke:#181818;stroke-width:1.0;stroke-dasharray:7.0,7.0;"/></g><!--link Recherche de Livres to Donn?es des Livres--><g id="link_Recherche de Livres_Donn&#233;es des Livres"><path d="M362,209.071 C362,234.079 362,273.763 362,298.816 " fill="none" id="Recherche de Livres-Donn&#233;es des Livres" style="stroke:#181818;stroke-width:1.0;stroke-dasharray:7.0,7.0;"/></g><!--link Donn?es des Livres to Authentification--><g id="link_Donn&#233;es des Livres_Authentification"><path d="M362,345.044 C362,366.437 362,398.1323 362,419.6297 " fill="none" id="Donn&#233;es des Livres-Authentification" style="stroke:#181818;stroke-width:1.0;stroke-dasharray:7.0,7.0;"/></g><!--SRC=[TPB1RW8X48RlFCN4Y-t5Tx2nQKpQIutfeV60EAj45YWCJKtZ-xZFiI_M0RVLjNg0m3ypt-xymn0cRLDfgmCOZE1ba7LxeC3d5KAadK4HjzgM08VLLgvnbcK8g4ZQTI_1Q8kqymWkqCO9CRp4VoIa24ZGDgPjQhGKHKU5mTGIXaegX3bfewCaJ07kvjFx0NmBWFTJmXik5raPUs-qagITXHUtr0ONOYzEo2UCEMQb3fWxUjQVt5k7UqMrmS3h52dGheZL28-r3ud_ic1NakHIHkO-v9sh9inkcp_YxxMKdX5x-bbpHwmoBgrWCDj5QWyrSuVZH1lsHbTTRnt-KbuSJOagQ7-yxtkUvwy5D2MNtNVifWiQiukzUUHpicNy4AJtF3sGwOjNUGbHSgmoxO6j4XT3WD7eXf5NrP9-rQMhQad_r_KF]--></g></svg>