<?xml version="1.0" encoding="us-ascii" standalone="no"?><svg xmlns="http://www.w3.org/2000/svg" xmlns:xlink="http://www.w3.org/1999/xlink" contentStyleType="text/css" height="118px" preserveAspectRatio="none" style="width:739px;height:118px;background:#FFFFFF;" version="1.1" viewBox="0 0 739 118" width="739px" zoomAndPan="magnify"><defs/><g><!--cluster WebServer--><g id="cluster_WebServer"><polygon fill="none" points="16,16,26,6,198,6,198,91,188,101,16,101,16,16" style="stroke:#181818;stroke-width:1.0;"/><line style="stroke:#181818;stroke-width:1.0;" x1="188" x2="198" y1="16" y2="6"/><line style="stroke:#181818;stroke-width:1.0;" x1="16" x2="188" y1="16" y2="16"/><line style="stroke:#181818;stroke-width:1.0;" x1="188" x2="188" y1="16" y2="101"/><text fill="#000000" font-family="sans-serif" font-size="14" font-weight="bold" lengthAdjust="spacing" textLength="100" x="53" y="31.9951">Serveur Web</text></g><!--cluster DatabaseServer--><g id="cluster_DatabaseServer"><polygon fill="none" points="222,16,232,6,522,6,522,91,512,101,222,101,222,16" style="stroke:#181818;stroke-width:1.0;"/><line style="stroke:#181818;stroke-width:1.0;" x1="512" x2="522" y1="16" y2="6"/><line style="stroke:#181818;stroke-width:1.0;" x1="222" x2="512" y1="16" y2="16"/><line style="stroke:#181818;stroke-width:1.0;" x1="512" x2="512" y1="16" y2="101"/><text fill="#000000" font-family="sans-serif" font-size="14" font-weight="bold" lengthAdjust="spacing" textLength="224" x="256" y="31.9951">Serveur de base de donn&#233;es</text></g><!--cluster Client--><g id="cluster_Client"><polygon fill="none" points="546,16,556,6,722,6,722,91,712,101,546,101,546,16" style="stroke:#181818;stroke-width:1.0;"/><line style="stroke:#181818;stroke-width:1.0;" x1="712" x2="722" y1="16" y2="6"/><line style="stroke:#181818;stroke-width:1.0;" x1="546" x2="712" y1="16" y2="16"/><line style="stroke:#181818;stroke-width:1.0;" x1="712" x2="712" y1="16" y2="101"/><text fill="#000000" font-family="sans-serif" font-size="14" font-weight="bold" lengthAdjust="spacing" textLength="47" x="606.5" y="31.9951">Client</text></g><!--entity Application Web--><g id="elem_Application Web"><rect fill="#F1F1F1" height="39.2969" rx="2.5" ry="2.5" style="stroke:#181818;stroke-width:0.5;" width="150" x="32" y="46"/><polygon fill="#F1F1F1" points="165,51,165,65,177,65,177,57,171,51,165,51" style="stroke:#181818;stroke-width:0.5;"/><line style="stroke:#181818;stroke-width:0.5;" x1="171" x2="171" y1="51" y2="57"/><line style="stroke:#181818;stroke-width:0.5;" x1="177" x2="171" y1="57" y2="57"/><text fill="#000000" font-family="sans-serif" font-size="14" lengthAdjust="spacing" textLength="120" x="42" y="71.9951">Application Web</text></g><!--entity Base de donn?es--><g id="elem_Base de donn&#233;es"><rect fill="#F1F1F1" height="39.2969" rx="2.5" ry="2.5" style="stroke:#181818;stroke-width:0.5;" width="151" x="296.5" y="46"/><polygon fill="#F1F1F1" points="430.5,51,430.5,65,442.5,65,442.5,57,436.5,51,430.5,51" style="stroke:#181818;stroke-width:0.5;"/><line style="stroke:#181818;stroke-width:0.5;" x1="436.5" x2="436.5" y1="51" y2="57"/><line style="stroke:#181818;stroke-width:0.5;" x1="442.5" x2="436.5" y1="57" y2="57"/><text fill="#000000" font-family="sans-serif" font-size="14" lengthAdjust="spacing" textLength="121" x="306.5" y="71.9951">Base de donn&#233;es</text></g><!--entity Navigateur Web--><g id="elem_Navigateur Web"><rect fill="#F1F1F1" height="39.2969" rx="2.5" ry="2.5" style="stroke:#181818;stroke-width:0.5;" width="144" x="562" y="46"/><polygon fill="#F1F1F1" points="689,51,689,65,701,65,701,57,695,51,689,51" style="stroke:#181818;stroke-width:0.5;"/><line style="stroke:#181818;stroke-width:0.5;" x1="695" x2="695" y1="51" y2="57"/><line style="stroke:#181818;stroke-width:0.5;" x1="701" x2="695" y1="57" y2="57"/><text fill="#000000" font-family="sans-serif" font-size="14" lengthAdjust="spacing" textLength="114" x="572" y="71.9951">Navigateur Web</text></g><!--SRC=[oyjFILLG2aujAaijBL88JqrIKaWi1j5WeIA5QYu5XSIYaioqnEGI1IN7WeASpEJ4aipyFB1QhbgkF1G3WEoanE9K49sIdvTtU6LgCTX0byIIH904LbETq7N0ZNNEoKpDAm6R066YwVHBBCjCJoo1EPsh5W00]--></g></svg>