<?xml version="1.0" encoding="us-ascii" standalone="no"?><svg xmlns="http://www.w3.org/2000/svg" xmlns:xlink="http://www.w3.org/1999/xlink" contentStyleType="text/css" height="175px" preserveAspectRatio="none" style="width:442px;height:175px;background:#FFFFFF;" version="1.1" viewBox="0 0 442 175" width="442px" zoomAndPan="magnify"><defs/><g><!--entity WebServer--><g id="elem_WebServer"><polygon fill="#F1F1F1" points="16,16,26,6,148,6,148,42.2969,138,52.2969,16,52.2969,16,16" style="stroke:#181818;stroke-width:0.5;"/><line style="stroke:#181818;stroke-width:0.5;" x1="138" x2="148" y1="16" y2="6"/><line style="stroke:#181818;stroke-width:0.5;" x1="16" x2="138" y1="16" y2="16"/><line style="stroke:#181818;stroke-width:0.5;" x1="138" x2="138" y1="16" y2="52.2969"/><text fill="#000000" font-family="sans-serif" font-size="14" lengthAdjust="spacing" textLength="92" x="31" y="38.9951">Serveur Web</text></g><!--entity DatabaseServer--><g id="elem_DatabaseServer"><polygon fill="#F1F1F1" points="183,16,193,6,425,6,425,42.2969,415,52.2969,183,52.2969,183,16" style="stroke:#181818;stroke-width:0.5;"/><line style="stroke:#181818;stroke-width:0.5;" x1="415" x2="425" y1="16" y2="6"/><line style="stroke:#181818;stroke-width:0.5;" x1="183" x2="415" y1="16" y2="16"/><line style="stroke:#181818;stroke-width:0.5;" x1="415" x2="415" y1="16" y2="52.2969"/><text fill="#000000" font-family="sans-serif" font-size="14" lengthAdjust="spacing" textLength="202" x="198" y="38.9951">Serveur de base de donn&#233;es</text></g><!--entity Client--><g id="elem_Client"><polygon fill="#F1F1F1" points="40.5,122,50.5,112,123.5,112,123.5,148.2969,113.5,158.2969,40.5,158.2969,40.5,122" style="stroke:#181818;stroke-width:0.5;"/><line style="stroke:#181818;stroke-width:0.5;" x1="113.5" x2="123.5" y1="122" y2="112"/><line style="stroke:#181818;stroke-width:0.5;" x1="40.5" x2="113.5" y1="122" y2="122"/><line style="stroke:#181818;stroke-width:0.5;" x1="113.5" x2="113.5" y1="122" y2="158.2969"/><text fill="#000000" font-family="sans-serif" font-size="14" lengthAdjust="spacing" textLength="43" x="55.5" y="144.9951">Client</text></g><!--SRC=[oyjFILLG2aujAaijBL88JqrIKaWi1j5WeIAkF1Hv83ifiJWLHAVav-KTNfbQ35RlabYI2990qUISavcQLmAMXp01]--></g></svg>