<?xml version="1.0" encoding="us-ascii" standalone="no"?><svg xmlns="http://www.w3.org/2000/svg" xmlns:xlink="http://www.w3.org/1999/xlink" contentStyleType="text/css" height="486px" preserveAspectRatio="none" style="width:333px;height:486px;background:#FFFFFF;" version="1.1" viewBox="0 0 333 486" width="333px" zoomAndPan="magnify"><defs/><g><!--cluster WebServer--><g id="cluster_WebServer"><polygon fill="none" points="26,192,36,182,243,182,243,283,233,293,26,293,26,192" style="stroke:#181818;stroke-width:1.0;"/><line style="stroke:#181818;stroke-width:1.0;" x1="233" x2="243" y1="192" y2="182"/><line style="stroke:#181818;stroke-width:1.0;" x1="26" x2="233" y1="192" y2="192"/><line style="stroke:#181818;stroke-width:1.0;" x1="233" x2="233" y1="192" y2="293"/><text fill="#000000" font-family="sans-serif" font-size="14" font-weight="bold" lengthAdjust="spacing" textLength="100" x="80.5" y="207.9951">Serveur Web</text></g><!--cluster DatabaseServer--><g id="cluster_DatabaseServer"><polygon fill="none" points="16,368,26,358,316,358,316,459,306,469,16,469,16,368" style="stroke:#181818;stroke-width:1.0;"/><line style="stroke:#181818;stroke-width:1.0;" x1="306" x2="316" y1="368" y2="358"/><line style="stroke:#181818;stroke-width:1.0;" x1="16" x2="306" y1="368" y2="368"/><line style="stroke:#181818;stroke-width:1.0;" x1="306" x2="306" y1="368" y2="469"/><text fill="#000000" font-family="sans-serif" font-size="14" font-weight="bold" lengthAdjust="spacing" textLength="224" x="50" y="383.9951">Serveur de base de donn&#233;es</text></g><!--cluster Client--><g id="cluster_Client"><polygon fill="none" points="26,16,36,6,237,6,237,107,227,117,26,117,26,16" style="stroke:#181818;stroke-width:1.0;"/><line style="stroke:#181818;stroke-width:1.0;" x1="227" x2="237" y1="16" y2="6"/><line style="stroke:#181818;stroke-width:1.0;" x1="26" x2="227" y1="16" y2="16"/><line style="stroke:#181818;stroke-width:1.0;" x1="227" x2="227" y1="16" y2="117"/><text fill="#000000" font-family="sans-serif" font-size="14" font-weight="bold" lengthAdjust="spacing" textLength="47" x="104" y="31.9951">Client</text></g><!--entity Application Web--><g id="elem_Application Web"><rect fill="#F1F1F1" height="39.2969" rx="2.5" ry="2.5" style="stroke:#181818;stroke-width:0.5;" width="150" x="69" y="230"/><polygon fill="#F1F1F1" points="202,235,202,249,214,249,214,241,208,235,202,235" style="stroke:#181818;stroke-width:0.5;"/><line style="stroke:#181818;stroke-width:0.5;" x1="208" x2="208" y1="235" y2="241"/><line style="stroke:#181818;stroke-width:0.5;" x1="214" x2="208" y1="241" y2="241"/><text fill="#000000" font-family="sans-serif" font-size="14" lengthAdjust="spacing" textLength="120" x="79" y="255.9951">Application Web</text></g><!--entity Base de donn?es--><g id="elem_Base de donn&#233;es"><rect fill="#F1F1F1" height="39.2969" rx="2.5" ry="2.5" style="stroke:#181818;stroke-width:0.5;" width="151" x="109.5" y="406"/><polygon fill="#F1F1F1" points="243.5,411,243.5,425,255.5,425,255.5,417,249.5,411,243.5,411" style="stroke:#181818;stroke-width:0.5;"/><line style="stroke:#181818;stroke-width:0.5;" x1="249.5" x2="249.5" y1="411" y2="417"/><line style="stroke:#181818;stroke-width:0.5;" x1="255.5" x2="249.5" y1="417" y2="417"/><text fill="#000000" font-family="sans-serif" font-size="14" lengthAdjust="spacing" textLength="121" x="119.5" y="431.9951">Base de donn&#233;es</text></g><!--entity Navigateur Web--><g id="elem_Navigateur Web"><rect fill="#F1F1F1" height="39.2969" rx="2.5" ry="2.5" style="stroke:#181818;stroke-width:0.5;" width="144" x="69" y="54"/><polygon fill="#F1F1F1" points="196,59,196,73,208,73,208,65,202,59,196,59" style="stroke:#181818;stroke-width:0.5;"/><line style="stroke:#181818;stroke-width:0.5;" x1="202" x2="202" y1="59" y2="65"/><line style="stroke:#181818;stroke-width:0.5;" x1="208" x2="202" y1="65" y2="65"/><text fill="#000000" font-family="sans-serif" font-size="14" lengthAdjust="spacing" textLength="114" x="79" y="79.9951">Navigateur Web</text></g><!--link Client to WebServer--><g id="link_Client_WebServer"><path d="M34,117.0551 C34,117.3428 34,117.6313 34,117.9207 C34,118.4996 34,119.0819 34,119.6676 C34,120.8389 34,122.0235 34,123.2201 C34,125.6134 34,128.0549 34,130.5351 C34,140.4557 34,150.9942 34,161.532 C34,166.8009 34,172.0697 34,177.2609 C34,178.5588 34,179.8518 34,181.1387 C34,181.2996 34,175.4603 34,175.621 " fill="none" id="Client-to-WebServer" style="stroke:#181818;stroke-width:1.0;"/><polygon fill="#181818" points="34,181.621,38,172.621,34,176.621,30,172.621,34,181.621" style="stroke:#181818;stroke-width:1.0;"/><text fill="#000000" font-family="sans-serif" font-size="13" lengthAdjust="spacing" textLength="33" x="35" y="154.0669">HTTP</text></g><!--link WebServer to DatabaseServer--><g id="link_WebServer_DatabaseServer"><path d="M34,293.0551 C34,293.3428 34,293.6313 34,293.9207 C34,294.4996 34,295.0819 34,295.6676 C34,296.8389 34,298.0234 34,299.2201 C34,301.6134 34,304.0549 34,306.5351 C34,316.4557 34,326.9942 34,337.532 C34,342.8009 34,348.0696 34,353.2609 C34,354.5587 34,355.8517 34,357.1387 C34,357.2995 34,351.4603 34,351.621 " fill="none" id="WebServer-to-DatabaseServer" style="stroke:#181818;stroke-width:1.0;"/><polygon fill="#181818" points="34,357.621,38,348.621,34,352.621,30,348.621,34,357.621" style="stroke:#181818;stroke-width:1.0;"/><text fill="#000000" font-family="sans-serif" font-size="13" lengthAdjust="spacing" textLength="31" x="35" y="330.0669">JDBC</text></g><!--SRC=[oyjFILLG2aujAaijBL88JqrIKaWi1j5WeIA5QYu5XSIYaioqnEGI1IN7WeASpEJ4aipyFB1QhbgkF1G3WEoanE9K49sIdvTtU6LgCTX0byIIH904LbETq7N0ZNNEoKpDAm6R066YwVHBBCjCJoo1EHse3wfCLzSEuGah1O-Ga00kXAT0igWkibBmSd5o1W00]--></g></svg>