<?xml version="1.0" encoding="us-ascii" standalone="no"?><svg xmlns="http://www.w3.org/2000/svg" xmlns:xlink="http://www.w3.org/1999/xlink" contentStyleType="text/css" height="63px" preserveAspectRatio="none" style="width:798px;height:63px;background:#FFFFFF;" version="1.1" viewBox="0 0 798 63" width="798px" zoomAndPan="magnify"><defs/><g><g id="NonConnecte"><rect fill="#F1F1F1" height="50" rx="12.5" ry="12.5" style="stroke:#181818;stroke-width:0.5;" width="118" x="7" y="7"/><line style="stroke:#181818;stroke-width:0.5;" x1="7" x2="125" y1="33.2969" y2="33.2969"/><text fill="#000000" font-family="sans-serif" font-size="14" lengthAdjust="spacing" textLength="98" x="17" y="24.9951">Non connect&#233;</text></g><g id="Connecte"><rect fill="#F1F1F1" height="50" rx="12.5" ry="12.5" style="stroke:#181818;stroke-width:0.5;" width="88" x="160" y="7"/><line style="stroke:#181818;stroke-width:0.5;" x1="160" x2="248" y1="33.2969" y2="33.2969"/><text fill="#000000" font-family="sans-serif" font-size="14" lengthAdjust="spacing" textLength="68" x="170" y="24.9951">Connect&#233;</text></g><g id="Recherche"><rect fill="#F1F1F1" height="50" rx="12.5" ry="12.5" style="stroke:#181818;stroke-width:0.5;" width="149" x="282.5" y="7"/><line style="stroke:#181818;stroke-width:0.5;" x1="282.5" x2="431.5" y1="33.2969" y2="33.2969"/><text fill="#000000" font-family="sans-serif" font-size="14" lengthAdjust="spacing" textLength="129" x="292.5" y="24.9951">Recherche de livre</text></g><g id="Visualisation"><rect fill="#F1F1F1" height="50" rx="12.5" ry="12.5" style="stroke:#181818;stroke-width:0.5;" width="158" x="466" y="7"/><line style="stroke:#181818;stroke-width:0.5;" x1="466" x2="624" y1="33.2969" y2="33.2969"/><text fill="#000000" font-family="sans-serif" font-size="14" lengthAdjust="spacing" textLength="138" x="476" y="24.9951">Visualisation de livre</text></g><g id="Emprunt"><rect fill="#F1F1F1" height="50" rx="12.5" ry="12.5" style="stroke:#181818;stroke-width:0.5;" width="132" x="659" y="7"/><line style="stroke:#181818;stroke-width:0.5;" x1="659" x2="791" y1="33.2969" y2="33.2969"/><text fill="#000000" font-family="sans-serif" font-size="14" lengthAdjust="spacing" textLength="112" x="669" y="24.9951">Emprunt de livre</text></g><!--SRC=[Aov9B4bLKFBBprD8pi_BIqqkERnIII6nM04euWmHIEKgXYXoHb60BXkKcfoHMWJ42Ycf2ZcPPKMfO6LmOPYwiCpYqiISpEB4aaoWfIXgKQHWwbrp2ufAyqfGLK850G00]--></g></svg>