<?xml version="1.0" encoding="us-ascii" standalone="no"?><svg xmlns="http://www.w3.org/2000/svg" xmlns:xlink="http://www.w3.org/1999/xlink" contentStyleType="text/css" height="571px" preserveAspectRatio="none" style="width:235px;height:571px;background:#FFFFFF;" version="1.1" viewBox="0 0 235 571" width="235px" zoomAndPan="magnify"><defs/><g><g id="NonConnecte"><rect fill="#F1F1F1" height="50" rx="12.5" ry="12.5" style="stroke:#181818;stroke-width:0.5;" width="118" x="27" y="7"/><line style="stroke:#181818;stroke-width:0.5;" x1="27" x2="145" y1="33.2969" y2="33.2969"/><text fill="#000000" font-family="sans-serif" font-size="14" lengthAdjust="spacing" textLength="98" x="37" y="24.9951">Non connect&#233;</text></g><g id="Connecte"><rect fill="#F1F1F1" height="50" rx="12.5" ry="12.5" style="stroke:#181818;stroke-width:0.5;" width="88" x="42" y="134"/><line style="stroke:#181818;stroke-width:0.5;" x1="42" x2="130" y1="160.2969" y2="160.2969"/><text fill="#000000" font-family="sans-serif" font-size="14" lengthAdjust="spacing" textLength="68" x="52" y="151.9951">Connect&#233;</text></g><g id="Recherche"><rect fill="#F1F1F1" height="50" rx="12.5" ry="12.5" style="stroke:#181818;stroke-width:0.5;" width="149" x="11.5" y="261"/><line style="stroke:#181818;stroke-width:0.5;" x1="11.5" x2="160.5" y1="287.2969" y2="287.2969"/><text fill="#000000" font-family="sans-serif" font-size="14" lengthAdjust="spacing" textLength="129" x="21.5" y="278.9951">Recherche de livre</text></g><g id="Visualisation"><rect fill="#F1F1F1" height="50" rx="12.5" ry="12.5" style="stroke:#181818;stroke-width:0.5;" width="158" x="7" y="388"/><line style="stroke:#181818;stroke-width:0.5;" x1="7" x2="165" y1="414.2969" y2="414.2969"/><text fill="#000000" font-family="sans-serif" font-size="14" lengthAdjust="spacing" textLength="138" x="17" y="405.9951">Visualisation de livre</text></g><g id="Emprunt"><rect fill="#F1F1F1" height="50" rx="12.5" ry="12.5" style="stroke:#181818;stroke-width:0.5;" width="132" x="20" y="515"/><line style="stroke:#181818;stroke-width:0.5;" x1="20" x2="152" y1="541.2969" y2="541.2969"/><text fill="#000000" font-family="sans-serif" font-size="14" lengthAdjust="spacing" textLength="112" x="30" y="532.9951">Emprunt de livre</text></g><!--link NonConnecte to Connecte--><g id="link_NonConnecte_Connecte"><path d="M86,57.4 C86,79.42 86,105.66 86,127.66 " fill="none" id="NonConnecte-to-Connecte" style="stroke:#181818;stroke-width:1.0;"/><polygon fill="#181818" points="86,133.66,90,124.66,86,128.66,82,124.66,86,133.66" style="stroke:#181818;stroke-width:1.0;"/><text fill="#000000" font-family="sans-serif" font-size="13" lengthAdjust="spacing" textLength="140" x="87" y="100.0669">Entrer des identifiants</text></g><!--link Connecte to Recherche--><g id="link_Connecte_Recherche"><path d="M86,184.4 C86,206.42 86,232.66 86,254.66 " fill="none" id="Connecte-to-Recherche" style="stroke:#181818;stroke-width:1.0;"/><polygon fill="#181818" points="86,260.66,90,251.66,86,255.66,82,251.66,86,260.66" style="stroke:#181818;stroke-width:1.0;"/><text fill="#000000" font-family="sans-serif" font-size="13" lengthAdjust="spacing" textLength="122" x="87" y="227.0669">Rechercher un livre</text></g><!--link Recherche to Visualisation--><g id="link_Recherche_Visualisation"><path d="M86,311.4 C86,333.42 86,359.66 86,381.66 " fill="none" id="Recherche-to-Visualisation" style="stroke:#181818;stroke-width:1.0;"/><polygon fill="#181818" points="86,387.66,90,378.66,86,382.66,82,378.66,86,387.66" style="stroke:#181818;stroke-width:1.0;"/><text fill="#000000" font-family="sans-serif" font-size="13" lengthAdjust="spacing" textLength="130" x="87" y="354.0669">S&#233;lectionner un livre</text></g><!--link Visualisation to Emprunt--><g id="link_Visualisation_Emprunt"><path d="M86,438.4 C86,460.42 86,486.66 86,508.66 " fill="none" id="Visualisation-to-Emprunt" style="stroke:#181818;stroke-width:1.0;"/><polygon fill="#181818" points="86,514.66,90,505.66,86,509.66,82,505.66,86,514.66" style="stroke:#181818;stroke-width:1.0;"/><text fill="#000000" font-family="sans-serif" font-size="13" lengthAdjust="spacing" textLength="113" x="87" y="481.0669">Emprunter le livre</text></g><!--SRC=[NOyn3eCm34NtdCBgpWKoT46i7LgfUmIkQYarLMnw9yx1nHeA0Tp1alN_i_qj6XJXTEaPsfuPMvt64mI1hDIBW4uMg3R0ltl5zeaf5tG8aJu9VzWc5-vECeH84fJoKSCQg_3Dwvq6LakkedE7c51LvoqLU6XO4wOy9q0TijA30gium- -f_Tud67WvvdP_fcrs3xTfZ7aLpHiFGnQR1yiJldGPZ-j3Nm00]--></g></svg>