<?xml version="1.0" encoding="us-ascii" standalone="no"?><svg xmlns="http://www.w3.org/2000/svg" xmlns:xlink="http://www.w3.org/1999/xlink" contentStyleType="text/css" height="728px" preserveAspectRatio="none" style="width:985px;height:728px;background:#FFFFFF;" version="1.1" viewBox="0 0 985 728" width="985px" zoomAndPan="magnify"><defs/><g><!--cluster Utilisateur--><g id="cluster_Utilisateur"><path d="M261.5,6 L349.5,6 A3.75,3.75 0 0 1 352,8.5 L359,28.2969 L696.5,28.2969 A2.5,2.5 0 0 1 699,30.7969 L699,183.5 A2.5,2.5 0 0 1 696.5,186 L261.5,186 A2.5,2.5 0 0 1 259,183.5 L259,8.5 A2.5,2.5 0 0 1 261.5,6 " fill="none" style="stroke:#000000;stroke-width:1.5;"/><line style="stroke:#000000;stroke-width:1.5;" x1="259" x2="359" y1="28.2969" y2="28.2969"/><text fill="#000000" font-family="sans-serif" font-size="14" font-weight="bold" lengthAdjust="spacing" textLength="87" x="263" y="20.9951">Utilisateur</text></g><!--cluster Livre--><g id="cluster_Livre"><path d="M8.5,480 L48.5,480 A3.75,3.75 0 0 1 51,482.5 L58,502.2969 L519.5,502.2969 A2.5,2.5 0 0 1 522,504.7969 L522,719.22 A2.5,2.5 0 0 1 519.5,721.72 L8.5,721.72 A2.5,2.5 0 0 1 6,719.22 L6,482.5 A2.5,2.5 0 0 1 8.5,480 " fill="none" style="stroke:#000000;stroke-width:1.5;"/><line style="stroke:#000000;stroke-width:1.5;" x1="6" x2="58" y1="502.2969" y2="502.2969"/><text fill="#000000" font-family="sans-serif" font-size="14" font-weight="bold" lengthAdjust="spacing" textLength="39" x="10" y="494.9951">Livre</text></g><!--cluster Pr?t--><g id="cluster_Pr&#234;t"><path d="M137.5,251 L172.5,251 A3.75,3.75 0 0 1 175,253.5 L182,273.2969 L486.5,273.2969 A2.5,2.5 0 0 1 489,275.7969 L489,412.5 A2.5,2.5 0 0 1 486.5,415 L137.5,415 A2.5,2.5 0 0 1 135,412.5 L135,253.5 A2.5,2.5 0 0 1 137.5,251 " fill="none" style="stroke:#000000;stroke-width:1.5;"/><line style="stroke:#000000;stroke-width:1.5;" x1="135" x2="182" y1="273.2969" y2="273.2969"/><text fill="#000000" font-family="sans-serif" font-size="14" font-weight="bold" lengthAdjust="spacing" textLength="34" x="139" y="265.9951">Pr&#234;t</text></g><!--cluster Authentification--><g id="cluster_Authentification"><path d="M531.5,259 L667.5,259 A3.75,3.75 0 0 1 670,261.5 L677,281.2969 L975.5,281.2969 A2.5,2.5 0 0 1 978,283.7969 L978,404.5 A2.5,2.5 0 0 1 975.5,407 L531.5,407 A2.5,2.5 0 0 1 529,404.5 L529,261.5 A2.5,2.5 0 0 1 531.5,259 " fill="none" style="stroke:#000000;stroke-width:1.5;"/><line style="stroke:#000000;stroke-width:1.5;" x1="529" x2="677" y1="281.2969" y2="281.2969"/><text fill="#000000" font-family="sans-serif" font-size="14" font-weight="bold" lengthAdjust="spacing" textLength="135" x="533" y="273.9951">Authentification</text></g><!--class Utilisateur--><g id="elem_Utilisateur"><rect codeLine="2" fill="#F1F1F1" height="113.1875" id="Utilisateur" rx="2.5" ry="2.5" style="stroke:#181818;stroke-width:0.5;" width="153" x="521.5" y="49"/><ellipse cx="558.1" cy="65" fill="#ADD1B2" rx="11" ry="11" style="stroke:#181818;stroke-width:1.0;"/><path d="M560.4438,60.6719 C559.5063,60.2344 558.9125,60.0938 558.0375,60.0938 C555.4125,60.0938 553.4125,62.1719 553.4125,64.8906 L553.4125,66.0156 C553.4125,68.5938 555.5219,70.4844 558.4125,70.4844 C559.6313,70.4844 560.7875,70.1875 561.5375,69.6406 C562.1156,69.2344 562.4438,68.7813 562.4438,68.3906 C562.4438,67.9375 562.0531,67.5469 561.5844,67.5469 C561.3656,67.5469 561.1625,67.625 560.975,67.8125 C560.5219,68.2969 560.5219,68.2969 560.3344,68.3906 C559.9125,68.6563 559.225,68.7813 558.4594,68.7813 C556.4125,68.7813 555.1156,67.6875 555.1156,65.9844 L555.1156,64.8906 C555.1156,63.1094 556.3656,61.7969 558.1,61.7969 C558.6781,61.7969 559.2875,61.9531 559.7563,62.2031 C560.2406,62.4844 560.4125,62.7031 560.5063,63.1094 C560.5688,63.5156 560.6,63.6406 560.7406,63.7656 C560.8813,63.9063 561.1156,64.0156 561.3344,64.0156 C561.6,64.0156 561.8656,63.875 562.0375,63.6563 C562.1469,63.5 562.1781,63.3125 562.1781,62.8906 L562.1781,61.4688 C562.1781,61.0313 562.1625,60.9063 562.0688,60.75 C561.9125,60.4844 561.6313,60.3438 561.3344,60.3438 C561.0375,60.3438 560.8344,60.4375 560.6156,60.75 L560.4438,60.6719 Z " fill="#000000"/><text fill="#000000" font-family="sans-serif" font-size="14" lengthAdjust="spacing" textLength="73" x="576.9" y="69.8467">Utilisateur</text><line style="stroke:#181818;stroke-width:0.5;" x1="522.5" x2="673.5" y1="81" y2="81"/><ellipse cx="532.5" cy="94.6484" fill="none" rx="3" ry="3" style="stroke:#038048;stroke-width:1.0;"/><text fill="#000000" font-family="sans-serif" font-size="14" lengthAdjust="spacing" textLength="75" x="541.5" y="97.9951">id: Integer</text><ellipse cx="532.5" cy="110.9453" fill="none" rx="3" ry="3" style="stroke:#038048;stroke-width:1.0;"/><text fill="#000000" font-family="sans-serif" font-size="14" lengthAdjust="spacing" textLength="85" x="541.5" y="114.292">nom: String</text><ellipse cx="532.5" cy="127.2422" fill="none" rx="3" ry="3" style="stroke:#038048;stroke-width:1.0;"/><text fill="#000000" font-family="sans-serif" font-size="14" lengthAdjust="spacing" textLength="92" x="541.5" y="130.5889">email: String</text><line style="stroke:#181818;stroke-width:0.5;" x1="522.5" x2="673.5" y1="137.8906" y2="137.8906"/><ellipse cx="532.5" cy="151.5391" fill="#84BE84" rx="3" ry="3" style="stroke:#038048;stroke-width:1.0;"/><text fill="#000000" font-family="sans-serif" font-size="14" lengthAdjust="spacing" textLength="127" x="541.5" y="154.8857">emprunter(): void</text></g><!--class Admin--><g id="elem_Admin"><rect codeLine="8" fill="#F1F1F1" height="80.5938" id="Admin" rx="2.5" ry="2.5" style="stroke:#181818;stroke-width:0.5;" width="184" x="302" y="65"/><ellipse cx="366.75" cy="81" fill="#ADD1B2" rx="11" ry="11" style="stroke:#181818;stroke-width:1.0;"/><path d="M369.0938,76.6719 C368.1563,76.2344 367.5625,76.0938 366.6875,76.0938 C364.0625,76.0938 362.0625,78.1719 362.0625,80.8906 L362.0625,82.0156 C362.0625,84.5938 364.1719,86.4844 367.0625,86.4844 C368.2813,86.4844 369.4375,86.1875 370.1875,85.6406 C370.7656,85.2344 371.0938,84.7813 371.0938,84.3906 C371.0938,83.9375 370.7031,83.5469 370.2344,83.5469 C370.0156,83.5469 369.8125,83.625 369.625,83.8125 C369.1719,84.2969 369.1719,84.2969 368.9844,84.3906 C368.5625,84.6563 367.875,84.7813 367.1094,84.7813 C365.0625,84.7813 363.7656,83.6875 363.7656,81.9844 L363.7656,80.8906 C363.7656,79.1094 365.0156,77.7969 366.75,77.7969 C367.3281,77.7969 367.9375,77.9531 368.4063,78.2031 C368.8906,78.4844 369.0625,78.7031 369.1563,79.1094 C369.2188,79.5156 369.25,79.6406 369.3906,79.7656 C369.5313,79.9063 369.7656,80.0156 369.9844,80.0156 C370.25,80.0156 370.5156,79.875 370.6875,79.6563 C370.7969,79.5 370.8281,79.3125 370.8281,78.8906 L370.8281,77.4688 C370.8281,77.0313 370.8125,76.9063 370.7188,76.75 C370.5625,76.4844 370.2813,76.3438 369.9844,76.3438 C369.6875,76.3438 369.4844,76.4375 369.2656,76.75 L369.0938,76.6719 Z " fill="#000000"/><text fill="#000000" font-family="sans-serif" font-size="14" lengthAdjust="spacing" textLength="46" x="387.25" y="85.8467">Admin</text><line style="stroke:#181818;stroke-width:0.5;" x1="303" x2="485" y1="97" y2="97"/><line style="stroke:#181818;stroke-width:0.5;" x1="303" x2="485" y1="105" y2="105"/><ellipse cx="313" cy="118.6484" fill="#84BE84" rx="3" ry="3" style="stroke:#038048;stroke-width:1.0;"/><text fill="#000000" font-family="sans-serif" font-size="14" lengthAdjust="spacing" textLength="135" x="322" y="121.9951">ajouterLivre(): void</text><ellipse cx="313" cy="134.9453" fill="#84BE84" rx="3" ry="3" style="stroke:#038048;stroke-width:1.0;"/><text fill="#000000" font-family="sans-serif" font-size="14" lengthAdjust="spacing" textLength="158" x="322" y="138.292">supprimerLivre(): void</text></g><!--class Livre--><g id="elem_Livre"><rect codeLine="15" fill="#F1F1F1" height="113.1875" id="Livre" rx="2.5" ry="2.5" style="stroke:#181818;stroke-width:0.5;" width="175" x="322.5" y="584.72"/><ellipse cx="388.25" cy="600.72" fill="#ADD1B2" rx="11" ry="11" style="stroke:#181818;stroke-width:1.0;"/><path d="M390.5938,596.3919 C389.6563,595.9544 389.0625,595.8138 388.1875,595.8138 C385.5625,595.8138 383.5625,597.8919 383.5625,600.6106 L383.5625,601.7356 C383.5625,604.3138 385.6719,606.2044 388.5625,606.2044 C389.7813,606.2044 390.9375,605.9075 391.6875,605.3606 C392.2656,604.9544 392.5938,604.5013 392.5938,604.1106 C392.5938,603.6575 392.2031,603.2669 391.7344,603.2669 C391.5156,603.2669 391.3125,603.345 391.125,603.5325 C390.6719,604.0169 390.6719,604.0169 390.4844,604.1106 C390.0625,604.3763 389.375,604.5013 388.6094,604.5013 C386.5625,604.5013 385.2656,603.4075 385.2656,601.7044 L385.2656,600.6106 C385.2656,598.8294 386.5156,597.5169 388.25,597.5169 C388.8281,597.5169 389.4375,597.6731 389.9063,597.9231 C390.3906,598.2044 390.5625,598.4231 390.6563,598.8294 C390.7188,599.2356 390.75,599.3606 390.8906,599.4856 C391.0313,599.6263 391.2656,599.7356 391.4844,599.7356 C391.75,599.7356 392.0156,599.595 392.1875,599.3763 C392.2969,599.22 392.3281,599.0325 392.3281,598.6106 L392.3281,597.1888 C392.3281,596.7513 392.3125,596.6263 392.2188,596.47 C392.0625,596.2044 391.7813,596.0638 391.4844,596.0638 C391.1875,596.0638 390.9844,596.1575 390.7656,596.47 L390.5938,596.3919 Z " fill="#000000"/><text fill="#000000" font-family="sans-serif" font-size="14" lengthAdjust="spacing" textLength="35" x="408.75" y="605.5667">Livre</text><line style="stroke:#181818;stroke-width:0.5;" x1="323.5" x2="496.5" y1="616.72" y2="616.72"/><ellipse cx="333.5" cy="630.3684" fill="none" rx="3" ry="3" style="stroke:#038048;stroke-width:1.0;"/><text fill="#000000" font-family="sans-serif" font-size="14" lengthAdjust="spacing" textLength="75" x="342.5" y="633.7151">id: Integer</text><ellipse cx="333.5" cy="646.6653" fill="none" rx="3" ry="3" style="stroke:#038048;stroke-width:1.0;"/><text fill="#000000" font-family="sans-serif" font-size="14" lengthAdjust="spacing" textLength="86" x="342.5" y="650.012">titre: String</text><ellipse cx="333.5" cy="662.9622" fill="none" rx="3" ry="3" style="stroke:#038048;stroke-width:1.0;"/><text fill="#000000" font-family="sans-serif" font-size="14" lengthAdjust="spacing" textLength="103" x="342.5" y="666.3089">auteur: Auteur</text><ellipse cx="333.5" cy="679.2591" fill="none" rx="3" ry="3" style="stroke:#038048;stroke-width:1.0;"/><text fill="#000000" font-family="sans-serif" font-size="14" lengthAdjust="spacing" textLength="149" x="342.5" y="682.6057">cat&#233;gorie: Cat&#233;gorie</text><line style="stroke:#181818;stroke-width:0.5;" x1="323.5" x2="496.5" y1="689.9075" y2="689.9075"/></g><!--class Auteur--><g id="elem_Auteur"><rect codeLine="21" fill="#F1F1F1" height="80.5938" id="Auteur" rx="2.5" ry="2.5" style="stroke:#181818;stroke-width:0.5;" width="111" x="30.5" y="600.72"/><ellipse cx="59.45" cy="616.72" fill="#ADD1B2" rx="11" ry="11" style="stroke:#181818;stroke-width:1.0;"/><path d="M61.7938,612.3919 C60.8563,611.9544 60.2625,611.8138 59.3875,611.8138 C56.7625,611.8138 54.7625,613.8919 54.7625,616.6106 L54.7625,617.7356 C54.7625,620.3138 56.8719,622.2044 59.7625,622.2044 C60.9813,622.2044 62.1375,621.9075 62.8875,621.3606 C63.4656,620.9544 63.7938,620.5013 63.7938,620.1106 C63.7938,619.6575 63.4031,619.2669 62.9344,619.2669 C62.7156,619.2669 62.5125,619.345 62.325,619.5325 C61.8719,620.0169 61.8719,620.0169 61.6844,620.1106 C61.2625,620.3763 60.575,620.5013 59.8094,620.5013 C57.7625,620.5013 56.4656,619.4075 56.4656,617.7044 L56.4656,616.6106 C56.4656,614.8294 57.7156,613.5169 59.45,613.5169 C60.0281,613.5169 60.6375,613.6731 61.1063,613.9231 C61.5906,614.2044 61.7625,614.4231 61.8563,614.8294 C61.9188,615.2356 61.95,615.3606 62.0906,615.4856 C62.2313,615.6263 62.4656,615.7356 62.6844,615.7356 C62.95,615.7356 63.2156,615.595 63.3875,615.3763 C63.4969,615.22 63.5281,615.0325 63.5281,614.6106 L63.5281,613.1888 C63.5281,612.7513 63.5125,612.6263 63.4188,612.47 C63.2625,612.2044 62.9813,612.0638 62.6844,612.0638 C62.3875,612.0638 62.1844,612.1575 61.9656,612.47 L61.7938,612.3919 Z " fill="#000000"/><text fill="#000000" font-family="sans-serif" font-size="14" lengthAdjust="spacing" textLength="48" x="76.55" y="621.5667">Auteur</text><line style="stroke:#181818;stroke-width:0.5;" x1="31.5" x2="140.5" y1="632.72" y2="632.72"/><ellipse cx="41.5" cy="646.3684" fill="none" rx="3" ry="3" style="stroke:#038048;stroke-width:1.0;"/><text fill="#000000" font-family="sans-serif" font-size="14" lengthAdjust="spacing" textLength="75" x="50.5" y="649.7151">id: Integer</text><ellipse cx="41.5" cy="662.6653" fill="none" rx="3" ry="3" style="stroke:#038048;stroke-width:1.0;"/><text fill="#000000" font-family="sans-serif" font-size="14" lengthAdjust="spacing" textLength="85" x="50.5" y="666.012">nom: String</text><line style="stroke:#181818;stroke-width:0.5;" x1="31.5" x2="140.5" y1="673.3138" y2="673.3138"/></g><!--class Cat?gorie--><g id="elem_Cat&#233;gorie"><rect codeLine="25" fill="#F1F1F1" height="80.5938" id="Cat&#233;gorie" rx="2.5" ry="2.5" style="stroke:#181818;stroke-width:0.5;" width="111" x="176.5" y="600.72"/><ellipse cx="195.1" cy="616.72" fill="#ADD1B2" rx="11" ry="11" style="stroke:#181818;stroke-width:1.0;"/><path d="M197.4438,612.3919 C196.5063,611.9544 195.9125,611.8138 195.0375,611.8138 C192.4125,611.8138 190.4125,613.8919 190.4125,616.6106 L190.4125,617.7356 C190.4125,620.3138 192.5219,622.2044 195.4125,622.2044 C196.6313,622.2044 197.7875,621.9075 198.5375,621.3606 C199.1156,620.9544 199.4438,620.5013 199.4438,620.1106 C199.4438,619.6575 199.0531,619.2669 198.5844,619.2669 C198.3656,619.2669 198.1625,619.345 197.975,619.5325 C197.5219,620.0169 197.5219,620.0169 197.3344,620.1106 C196.9125,620.3763 196.225,620.5013 195.4594,620.5013 C193.4125,620.5013 192.1156,619.4075 192.1156,617.7044 L192.1156,616.6106 C192.1156,614.8294 193.3656,613.5169 195.1,613.5169 C195.6781,613.5169 196.2875,613.6731 196.7563,613.9231 C197.2406,614.2044 197.4125,614.4231 197.5063,614.8294 C197.5688,615.2356 197.6,615.3606 197.7406,615.4856 C197.8813,615.6263 198.1156,615.7356 198.3344,615.7356 C198.6,615.7356 198.8656,615.595 199.0375,615.3763 C199.1469,615.22 199.1781,615.0325 199.1781,614.6106 L199.1781,613.1888 C199.1781,612.7513 199.1625,612.6263 199.0688,612.47 C198.9125,612.2044 198.6313,612.0638 198.3344,612.0638 C198.0375,612.0638 197.8344,612.1575 197.6156,612.47 L197.4438,612.3919 Z " fill="#000000"/><text fill="#000000" font-family="sans-serif" font-size="14" lengthAdjust="spacing" textLength="71" x="209.9" y="621.5667">Cat&#233;gorie</text><line style="stroke:#181818;stroke-width:0.5;" x1="177.5" x2="286.5" y1="632.72" y2="632.72"/><ellipse cx="187.5" cy="646.3684" fill="none" rx="3" ry="3" style="stroke:#038048;stroke-width:1.0;"/><text fill="#000000" font-family="sans-serif" font-size="14" lengthAdjust="spacing" textLength="75" x="196.5" y="649.7151">id: Integer</text><ellipse cx="187.5" cy="662.6653" fill="none" rx="3" ry="3" style="stroke:#038048;stroke-width:1.0;"/><text fill="#000000" font-family="sans-serif" font-size="14" lengthAdjust="spacing" textLength="85" x="196.5" y="666.012">nom: String</text><line style="stroke:#181818;stroke-width:0.5;" x1="177.5" x2="286.5" y1="673.3138" y2="673.3138"/></g><!--class Pr?t--><g id="elem_Pr&#234;t"><rect codeLine="32" fill="#F1F1F1" height="96.8906" id="Pr&#234;t" rx="2.5" ry="2.5" style="stroke:#181818;stroke-width:0.5;" width="148" x="317" y="294"/><ellipse cx="371.25" cy="310" fill="#ADD1B2" rx="11" ry="11" style="stroke:#181818;stroke-width:1.0;"/><path d="M373.5938,305.6719 C372.6563,305.2344 372.0625,305.0938 371.1875,305.0938 C368.5625,305.0938 366.5625,307.1719 366.5625,309.8906 L366.5625,311.0156 C366.5625,313.5938 368.6719,315.4844 371.5625,315.4844 C372.7813,315.4844 373.9375,315.1875 374.6875,314.6406 C375.2656,314.2344 375.5938,313.7813 375.5938,313.3906 C375.5938,312.9375 375.2031,312.5469 374.7344,312.5469 C374.5156,312.5469 374.3125,312.625 374.125,312.8125 C373.6719,313.2969 373.6719,313.2969 373.4844,313.3906 C373.0625,313.6563 372.375,313.7813 371.6094,313.7813 C369.5625,313.7813 368.2656,312.6875 368.2656,310.9844 L368.2656,309.8906 C368.2656,308.1094 369.5156,306.7969 371.25,306.7969 C371.8281,306.7969 372.4375,306.9531 372.9063,307.2031 C373.3906,307.4844 373.5625,307.7031 373.6563,308.1094 C373.7188,308.5156 373.75,308.6406 373.8906,308.7656 C374.0313,308.9063 374.2656,309.0156 374.4844,309.0156 C374.75,309.0156 375.0156,308.875 375.1875,308.6563 C375.2969,308.5 375.3281,308.3125 375.3281,307.8906 L375.3281,306.4688 C375.3281,306.0313 375.3125,305.9063 375.2188,305.75 C375.0625,305.4844 374.7813,305.3438 374.4844,305.3438 C374.1875,305.3438 373.9844,305.4375 373.7656,305.75 L373.5938,305.6719 Z " fill="#000000"/><text fill="#000000" font-family="sans-serif" font-size="14" lengthAdjust="spacing" textLength="31" x="391.75" y="314.8467">Pr&#234;t</text><line style="stroke:#181818;stroke-width:0.5;" x1="318" x2="464" y1="326" y2="326"/><ellipse cx="328" cy="339.6484" fill="none" rx="3" ry="3" style="stroke:#038048;stroke-width:1.0;"/><text fill="#000000" font-family="sans-serif" font-size="14" lengthAdjust="spacing" textLength="75" x="337" y="342.9951">id: Integer</text><ellipse cx="328" cy="355.9453" fill="none" rx="3" ry="3" style="stroke:#038048;stroke-width:1.0;"/><text fill="#000000" font-family="sans-serif" font-size="14" lengthAdjust="spacing" textLength="122" x="337" y="359.292">dateDebut: Date</text><ellipse cx="328" cy="372.2422" fill="none" rx="3" ry="3" style="stroke:#038048;stroke-width:1.0;"/><text fill="#000000" font-family="sans-serif" font-size="14" lengthAdjust="spacing" textLength="98" x="337" y="375.5889">dateFin: Date</text><line style="stroke:#181818;stroke-width:0.5;" x1="318" x2="464" y1="382.8906" y2="382.8906"/></g><!--class Retour--><g id="elem_Retour"><rect codeLine="37" fill="#F1F1F1" height="80.5938" id="Retour" rx="2.5" ry="2.5" style="stroke:#181818;stroke-width:0.5;" width="103" x="178.5" y="302"/><ellipse cx="203.4" cy="318" fill="#ADD1B2" rx="11" ry="11" style="stroke:#181818;stroke-width:1.0;"/><path d="M205.7438,313.6719 C204.8063,313.2344 204.2125,313.0938 203.3375,313.0938 C200.7125,313.0938 198.7125,315.1719 198.7125,317.8906 L198.7125,319.0156 C198.7125,321.5938 200.8219,323.4844 203.7125,323.4844 C204.9313,323.4844 206.0875,323.1875 206.8375,322.6406 C207.4156,322.2344 207.7438,321.7813 207.7438,321.3906 C207.7438,320.9375 207.3531,320.5469 206.8844,320.5469 C206.6656,320.5469 206.4625,320.625 206.275,320.8125 C205.8219,321.2969 205.8219,321.2969 205.6344,321.3906 C205.2125,321.6563 204.525,321.7813 203.7594,321.7813 C201.7125,321.7813 200.4156,320.6875 200.4156,318.9844 L200.4156,317.8906 C200.4156,316.1094 201.6656,314.7969 203.4,314.7969 C203.9781,314.7969 204.5875,314.9531 205.0563,315.2031 C205.5406,315.4844 205.7125,315.7031 205.8063,316.1094 C205.8688,316.5156 205.9,316.6406 206.0406,316.7656 C206.1813,316.9063 206.4156,317.0156 206.6344,317.0156 C206.9,317.0156 207.1656,316.875 207.3375,316.6563 C207.4469,316.5 207.4781,316.3125 207.4781,315.8906 L207.4781,314.4688 C207.4781,314.0313 207.4625,313.9063 207.3688,313.75 C207.2125,313.4844 206.9313,313.3438 206.6344,313.3438 C206.3375,313.3438 206.1344,313.4375 205.9156,313.75 L205.7438,313.6719 Z " fill="#000000"/><text fill="#000000" font-family="sans-serif" font-size="14" lengthAdjust="spacing" textLength="49" x="219.6" y="322.8467">Retour</text><line style="stroke:#181818;stroke-width:0.5;" x1="179.5" x2="280.5" y1="334" y2="334"/><ellipse cx="189.5" cy="347.6484" fill="none" rx="3" ry="3" style="stroke:#038048;stroke-width:1.0;"/><text fill="#000000" font-family="sans-serif" font-size="14" lengthAdjust="spacing" textLength="75" x="198.5" y="350.9951">id: Integer</text><ellipse cx="189.5" cy="363.9453" fill="none" rx="3" ry="3" style="stroke:#038048;stroke-width:1.0;"/><text fill="#000000" font-family="sans-serif" font-size="14" lengthAdjust="spacing" textLength="77" x="198.5" y="367.292">date: Date</text><line style="stroke:#181818;stroke-width:0.5;" x1="179.5" x2="280.5" y1="374.5938" y2="374.5938"/></g><!--class Login--><g id="elem_Login"><rect codeLine="44" fill="#F1F1F1" height="80.5938" id="Login" rx="2.5" ry="2.5" style="stroke:#181818;stroke-width:0.5;" width="173" x="780.5" y="302"/><ellipse cx="843.25" cy="318" fill="#ADD1B2" rx="11" ry="11" style="stroke:#181818;stroke-width:1.0;"/><path d="M845.5938,313.6719 C844.6563,313.2344 844.0625,313.0938 843.1875,313.0938 C840.5625,313.0938 838.5625,315.1719 838.5625,317.8906 L838.5625,319.0156 C838.5625,321.5938 840.6719,323.4844 843.5625,323.4844 C844.7813,323.4844 845.9375,323.1875 846.6875,322.6406 C847.2656,322.2344 847.5938,321.7813 847.5938,321.3906 C847.5938,320.9375 847.2031,320.5469 846.7344,320.5469 C846.5156,320.5469 846.3125,320.625 846.125,320.8125 C845.6719,321.2969 845.6719,321.2969 845.4844,321.3906 C845.0625,321.6563 844.375,321.7813 843.6094,321.7813 C841.5625,321.7813 840.2656,320.6875 840.2656,318.9844 L840.2656,317.8906 C840.2656,316.1094 841.5156,314.7969 843.25,314.7969 C843.8281,314.7969 844.4375,314.9531 844.9063,315.2031 C845.3906,315.4844 845.5625,315.7031 845.6563,316.1094 C845.7188,316.5156 845.75,316.6406 845.8906,316.7656 C846.0313,316.9063 846.2656,317.0156 846.4844,317.0156 C846.75,317.0156 847.0156,316.875 847.1875,316.6563 C847.2969,316.5 847.3281,316.3125 847.3281,315.8906 L847.3281,314.4688 C847.3281,314.0313 847.3125,313.9063 847.2188,313.75 C847.0625,313.4844 846.7813,313.3438 846.4844,313.3438 C846.1875,313.3438 845.9844,313.4375 845.7656,313.75 L845.5938,313.6719 Z " fill="#000000"/><text fill="#000000" font-family="sans-serif" font-size="14" lengthAdjust="spacing" textLength="39" x="863.75" y="322.8467">Login</text><line style="stroke:#181818;stroke-width:0.5;" x1="781.5" x2="952.5" y1="334" y2="334"/><ellipse cx="791.5" cy="347.6484" fill="none" rx="3" ry="3" style="stroke:#038048;stroke-width:1.0;"/><text fill="#000000" font-family="sans-serif" font-size="14" lengthAdjust="spacing" textLength="147" x="800.5" y="350.9951">utilisateurId: Integer</text><ellipse cx="791.5" cy="363.9453" fill="none" rx="3" ry="3" style="stroke:#038048;stroke-width:1.0;"/><text fill="#000000" font-family="sans-serif" font-size="14" lengthAdjust="spacing" textLength="143" x="800.5" y="367.292">motDePasse: String</text><line style="stroke:#181818;stroke-width:0.5;" x1="781.5" x2="952.5" y1="374.5938" y2="374.5938"/></g><!--class Logout--><g id="elem_Logout"><rect codeLine="48" fill="#F1F1F1" height="64.2969" id="Logout" rx="2.5" ry="2.5" style="stroke:#181818;stroke-width:0.5;" width="173" x="572.5" y="310.5"/><ellipse cx="629.75" cy="326.5" fill="#ADD1B2" rx="11" ry="11" style="stroke:#181818;stroke-width:1.0;"/><path d="M632.0938,322.1719 C631.1563,321.7344 630.5625,321.5938 629.6875,321.5938 C627.0625,321.5938 625.0625,323.6719 625.0625,326.3906 L625.0625,327.5156 C625.0625,330.0938 627.1719,331.9844 630.0625,331.9844 C631.2813,331.9844 632.4375,331.6875 633.1875,331.1406 C633.7656,330.7344 634.0938,330.2813 634.0938,329.8906 C634.0938,329.4375 633.7031,329.0469 633.2344,329.0469 C633.0156,329.0469 632.8125,329.125 632.625,329.3125 C632.1719,329.7969 632.1719,329.7969 631.9844,329.8906 C631.5625,330.1563 630.875,330.2813 630.1094,330.2813 C628.0625,330.2813 626.7656,329.1875 626.7656,327.4844 L626.7656,326.3906 C626.7656,324.6094 628.0156,323.2969 629.75,323.2969 C630.3281,323.2969 630.9375,323.4531 631.4063,323.7031 C631.8906,323.9844 632.0625,324.2031 632.1563,324.6094 C632.2188,325.0156 632.25,325.1406 632.3906,325.2656 C632.5313,325.4063 632.7656,325.5156 632.9844,325.5156 C633.25,325.5156 633.5156,325.375 633.6875,325.1563 C633.7969,325 633.8281,324.8125 633.8281,324.3906 L633.8281,322.9688 C633.8281,322.5313 633.8125,322.4063 633.7188,322.25 C633.5625,321.9844 633.2813,321.8438 632.9844,321.8438 C632.6875,321.8438 632.4844,321.9375 632.2656,322.25 L632.0938,322.1719 Z " fill="#000000"/><text fill="#000000" font-family="sans-serif" font-size="14" lengthAdjust="spacing" textLength="50" x="650.25" y="331.3467">Logout</text><line style="stroke:#181818;stroke-width:0.5;" x1="573.5" x2="744.5" y1="342.5" y2="342.5"/><ellipse cx="583.5" cy="356.1484" fill="none" rx="3" ry="3" style="stroke:#038048;stroke-width:1.0;"/><text fill="#000000" font-family="sans-serif" font-size="14" lengthAdjust="spacing" textLength="147" x="592.5" y="359.4951">utilisateurId: Integer</text><line style="stroke:#181818;stroke-width:0.5;" x1="573.5" x2="744.5" y1="366.7969" y2="366.7969"/></g><!--link Utilisateur to Pr?t--><g id="link_Utilisateur_Pr&#234;t"><path codeLine="53" d="M258.7316,113.7044 C258.634,113.7919 258.5357,113.8802 258.4366,113.9692 C258.2384,114.1472 258.0373,114.3281 257.8333,114.512 C257.4253,114.8797 257.0058,115.2592 256.5751,115.6501 C255.7137,116.432 254.8078,117.2598 253.8609,118.1319 C246.2852,125.109 236.0798,134.9229 224.9974,146.7395 C202.8325,170.3728 177.1595,202.017 162,235 C160.7646,237.6878 159.6093,240.448 158.529,243.2615 C157.9888,244.6683 157.4673,246.0884 156.9639,247.5194 C156.7123,248.2349 156.4651,248.9532 156.2224,249.6738 C156.101,250.0342 157.8589,244.6967 157.7397,245.0582 " fill="none" id="Utilisateur-to-Pr&#234;t" style="stroke:#181818;stroke-width:1.0;"/><polygon fill="#181818" points="155.8616,250.7567,162.4778,243.4611,157.4267,246.0079,154.8799,240.9569,155.8616,250.7567" style="stroke:#181818;stroke-width:1.0;"/><text fill="#000000" font-family="sans-serif" font-size="13" lengthAdjust="spacing" textLength="63" x="176" y="223.0669">emprunte</text></g><!--link Pr?t to Livre--><g id="link_Pr&#234;t_Livre"><path codeLine="54" d="M143,415.7309 C143,416.3438 143,416.9575 143,417.5717 C143,420.0285 143,422.4943 143,424.9601 C143,444.6864 143,464.4104 143,479.5015 C143,479.6194 143,473.7371 143,473.8544 " fill="none" id="Pr&#234;t-to-Livre" style="stroke:#181818;stroke-width:1.0;"/><polygon fill="#181818" points="143,479.8544,147,470.8544,143,474.8544,139,470.8544,143,479.8544" style="stroke:#181818;stroke-width:1.0;"/><text fill="#000000" font-family="sans-serif" font-size="13" lengthAdjust="spacing" textLength="59" x="144" y="452.0669">concerne</text></g><!--link Utilisateur to Authentification--><g id="link_Utilisateur_Authentification"><path codeLine="55" d="M274.7566,186.3974 C274.8311,186.5452 274.906,186.6928 274.9815,186.84 C275.1324,187.1345 275.2854,187.4278 275.4405,187.7198 C275.7507,188.3039 276.0693,188.8829 276.3965,189.4565 C279.0139,194.0455 282.1809,198.2891 286,202 C349.041,263.254 409.829,183.416 481,235 C502.312,250.447 516.211,276.4878 524.8314,298.952 C525.9089,301.76 526.904,304.5122 527.8207,307.1808 C528.0499,307.8479 528.2742,308.5098 528.4937,309.1661 C528.6034,309.4942 528.712,309.821 528.8193,310.1462 C528.8729,310.3088 527.0574,304.7696 527.1105,304.9315 " fill="none" id="Utilisateur-to-Authentification" style="stroke:#181818;stroke-width:1.0;"/><polygon fill="#181818" points="528.9794,310.633,529.977,300.8348,527.422,305.8817,522.375,303.3267,528.9794,310.633" style="stroke:#181818;stroke-width:1.0;"/><text fill="#000000" font-family="sans-serif" font-size="13" lengthAdjust="spacing" textLength="37" x="469" y="223.0669">utilise</text></g><!--link Livre to Auteur--><g id="link_Livre_Auteur"><path codeLine="56" d="M142.959,507.816 C141.87,510.347 121.857,556.8673 105.48,594.9373 " fill="none" id="Livre-to-Auteur" style="stroke:#181818;stroke-width:1.0;"/><polygon fill="#181818" points="103.109,600.449,110.3399,593.7622,105.0848,595.856,102.9911,590.6008,103.109,600.449" style="stroke:#181818;stroke-width:1.0;"/><text fill="#000000" font-family="sans-serif" font-size="13" lengthAdjust="spacing" textLength="40" x="131" y="550.7869">a &#233;crit</text></g><!--link Livre to Cat?gorie--><g id="link_Livre_Cat&#233;gorie"><path codeLine="57" d="M143.062,507.761 C144.334,508.609 164.874,522.419 177,537.72 C192.052,556.713 202.4657,575.0205 212.0567,594.8515 " fill="none" id="Livre-to-Cat&#233;gorie" style="stroke:#181818;stroke-width:1.0;"/><polygon fill="#181818" points="214.669,600.253,214.3515,590.4093,212.492,595.7518,207.1495,593.8924,214.669,600.253" style="stroke:#181818;stroke-width:1.0;"/><text fill="#000000" font-family="sans-serif" font-size="13" lengthAdjust="spacing" textLength="78" x="190" y="550.7869">appartient &#224;</text></g><!--SRC=[bL91JiD03Bpd5LPF8DGFx06f8aAgnA42yO0bCS6GxAustbvG_yArV2CVmqsQPDD6G4-x6dl67jjEPn-wG5WyCvLKQyRW5_2P06IbhkiP7E26SWLhmrYWxm1ZAmLFxCaK7O2Lfl8KSZu8oLzTAzXQoWNUZNLMUKLcgA3VRP3K1zfwZF8bKWVdF5NdiLsoInBNsscZ4oCHCcU1YJrEEzRXu5h1gdqxBDFSx0lhINBlXl-9bN39j2BYAFX_ScnwuvjldfYEa3cnNFQQuajW1QbyH_2Up0153JuYsz-S7QWHB-vDXlA6XkcLP8HapNGtjeYM7yQJMvzMg2odk14IpezGbEHo_fPgcviUzt9vEmnCGN-kIG-ruUCHASYioT0RdDCujwgWQqJIZmfzOijIeA7PPvvu6e_lGNASqvv9bA7v-W40]--></g></svg>