<?xml version="1.0" encoding="us-ascii" standalone="no"?><svg xmlns="http://www.w3.org/2000/svg" xmlns:xlink="http://www.w3.org/1999/xlink" contentStyleType="text/css" height="220px" preserveAspectRatio="none" style="width:984px;height:220px;background:#FFFFFF;" version="1.1" viewBox="0 0 984 220" width="984px" zoomAndPan="magnify"><defs/><g><!--cluster Utilisateur--><g id="cluster_Utilisateur"><path d="M247.5,6 L335.5,6 A3.75,3.75 0 0 1 338,8.5 L345,28.2969 L493.5,28.2969 A2.5,2.5 0 0 1 496,30.7969 L496,102.5 A2.5,2.5 0 0 1 493.5,105 L247.5,105 A2.5,2.5 0 0 1 245,102.5 L245,8.5 A2.5,2.5 0 0 1 247.5,6 " fill="none" style="stroke:#000000;stroke-width:1.5;"/><line style="stroke:#000000;stroke-width:1.5;" x1="245" x2="345" y1="28.2969" y2="28.2969"/><text fill="#000000" font-family="sans-serif" font-size="14" font-weight="bold" lengthAdjust="spacing" textLength="87" x="249" y="20.9951">Utilisateur</text></g><!--cluster Livre--><g id="cluster_Livre"><path d="M8.5,6 L48.5,6 A3.75,3.75 0 0 1 51,8.5 L58,28.2969 L218.5,28.2969 A2.5,2.5 0 0 1 221,30.7969 L221,210.5 A2.5,2.5 0 0 1 218.5,213 L8.5,213 A2.5,2.5 0 0 1 6,210.5 L6,8.5 A2.5,2.5 0 0 1 8.5,6 " fill="none" style="stroke:#000000;stroke-width:1.5;"/><line style="stroke:#000000;stroke-width:1.5;" x1="6" x2="58" y1="28.2969" y2="28.2969"/><text fill="#000000" font-family="sans-serif" font-size="14" font-weight="bold" lengthAdjust="spacing" textLength="39" x="10" y="20.9951">Livre</text></g><!--cluster Pr?t--><g id="cluster_Pr&#234;t"><path d="M522.5,6 L557.5,6 A3.75,3.75 0 0 1 560,8.5 L567,28.2969 L729.5,28.2969 A2.5,2.5 0 0 1 732,30.7969 L732,102.5 A2.5,2.5 0 0 1 729.5,105 L522.5,105 A2.5,2.5 0 0 1 520,102.5 L520,8.5 A2.5,2.5 0 0 1 522.5,6 " fill="none" style="stroke:#000000;stroke-width:1.5;"/><line style="stroke:#000000;stroke-width:1.5;" x1="520" x2="567" y1="28.2969" y2="28.2969"/><text fill="#000000" font-family="sans-serif" font-size="14" font-weight="bold" lengthAdjust="spacing" textLength="34" x="524" y="20.9951">Pr&#234;t</text></g><!--cluster Authentification--><g id="cluster_Authentification"><path d="M758.5,6 L894.5,6 A3.75,3.75 0 0 1 897,8.5 L904,28.2969 L974.5,28.2969 A2.5,2.5 0 0 1 977,30.7969 L977,102.5 A2.5,2.5 0 0 1 974.5,105 L758.5,105 A2.5,2.5 0 0 1 756,102.5 L756,8.5 A2.5,2.5 0 0 1 758.5,6 " fill="none" style="stroke:#000000;stroke-width:1.5;"/><line style="stroke:#000000;stroke-width:1.5;" x1="756" x2="904" y1="28.2969" y2="28.2969"/><text fill="#000000" font-family="sans-serif" font-size="14" font-weight="bold" lengthAdjust="spacing" textLength="135" x="760" y="20.9951">Authentification</text></g><!--class Utilisateur--><g id="elem_Utilisateur"><rect codeLine="2" fill="#F1F1F1" height="48" id="Utilisateur" rx="2.5" ry="2.5" style="stroke:#181818;stroke-width:0.5;" width="105" x="374.5" y="41"/><ellipse cx="389.5" cy="57" fill="#ADD1B2" rx="11" ry="11" style="stroke:#181818;stroke-width:1.0;"/><path d="M391.8438,52.6719 C390.9063,52.2344 390.3125,52.0938 389.4375,52.0938 C386.8125,52.0938 384.8125,54.1719 384.8125,56.8906 L384.8125,58.0156 C384.8125,60.5938 386.9219,62.4844 389.8125,62.4844 C391.0313,62.4844 392.1875,62.1875 392.9375,61.6406 C393.5156,61.2344 393.8438,60.7813 393.8438,60.3906 C393.8438,59.9375 393.4531,59.5469 392.9844,59.5469 C392.7656,59.5469 392.5625,59.625 392.375,59.8125 C391.9219,60.2969 391.9219,60.2969 391.7344,60.3906 C391.3125,60.6563 390.625,60.7813 389.8594,60.7813 C387.8125,60.7813 386.5156,59.6875 386.5156,57.9844 L386.5156,56.8906 C386.5156,55.1094 387.7656,53.7969 389.5,53.7969 C390.0781,53.7969 390.6875,53.9531 391.1563,54.2031 C391.6406,54.4844 391.8125,54.7031 391.9063,55.1094 C391.9688,55.5156 392,55.6406 392.1406,55.7656 C392.2813,55.9063 392.5156,56.0156 392.7344,56.0156 C393,56.0156 393.2656,55.875 393.4375,55.6563 C393.5469,55.5 393.5781,55.3125 393.5781,54.8906 L393.5781,53.4688 C393.5781,53.0313 393.5625,52.9063 393.4688,52.75 C393.3125,52.4844 393.0313,52.3438 392.7344,52.3438 C392.4375,52.3438 392.2344,52.4375 392.0156,52.75 L391.8438,52.6719 Z " fill="#000000"/><text fill="#000000" font-family="sans-serif" font-size="14" lengthAdjust="spacing" textLength="73" x="403.5" y="61.8467">Utilisateur</text><line style="stroke:#181818;stroke-width:0.5;" x1="375.5" x2="478.5" y1="73" y2="73"/><line style="stroke:#181818;stroke-width:0.5;" x1="375.5" x2="478.5" y1="81" y2="81"/></g><!--class Admin--><g id="elem_Admin"><rect codeLine="4" fill="#F1F1F1" height="48" id="Admin" rx="2.5" ry="2.5" style="stroke:#181818;stroke-width:0.5;" width="78" x="261" y="41"/><ellipse cx="276" cy="57" fill="#ADD1B2" rx="11" ry="11" style="stroke:#181818;stroke-width:1.0;"/><path d="M278.3438,52.6719 C277.4063,52.2344 276.8125,52.0938 275.9375,52.0938 C273.3125,52.0938 271.3125,54.1719 271.3125,56.8906 L271.3125,58.0156 C271.3125,60.5938 273.4219,62.4844 276.3125,62.4844 C277.5313,62.4844 278.6875,62.1875 279.4375,61.6406 C280.0156,61.2344 280.3438,60.7813 280.3438,60.3906 C280.3438,59.9375 279.9531,59.5469 279.4844,59.5469 C279.2656,59.5469 279.0625,59.625 278.875,59.8125 C278.4219,60.2969 278.4219,60.2969 278.2344,60.3906 C277.8125,60.6563 277.125,60.7813 276.3594,60.7813 C274.3125,60.7813 273.0156,59.6875 273.0156,57.9844 L273.0156,56.8906 C273.0156,55.1094 274.2656,53.7969 276,53.7969 C276.5781,53.7969 277.1875,53.9531 277.6563,54.2031 C278.1406,54.4844 278.3125,54.7031 278.4063,55.1094 C278.4688,55.5156 278.5,55.6406 278.6406,55.7656 C278.7813,55.9063 279.0156,56.0156 279.2344,56.0156 C279.5,56.0156 279.7656,55.875 279.9375,55.6563 C280.0469,55.5 280.0781,55.3125 280.0781,54.8906 L280.0781,53.4688 C280.0781,53.0313 280.0625,52.9063 279.9688,52.75 C279.8125,52.4844 279.5313,52.3438 279.2344,52.3438 C278.9375,52.3438 278.7344,52.4375 278.5156,52.75 L278.3438,52.6719 Z " fill="#000000"/><text fill="#000000" font-family="sans-serif" font-size="14" lengthAdjust="spacing" textLength="46" x="290" y="61.8467">Admin</text><line style="stroke:#181818;stroke-width:0.5;" x1="262" x2="338" y1="73" y2="73"/><line style="stroke:#181818;stroke-width:0.5;" x1="262" x2="338" y1="81" y2="81"/></g><!--class Livre--><g id="elem_Livre"><rect codeLine="9" fill="#F1F1F1" height="48" id="Livre" rx="2.5" ry="2.5" style="stroke:#181818;stroke-width:0.5;" width="67" x="22.5" y="41"/><ellipse cx="37.5" cy="57" fill="#ADD1B2" rx="11" ry="11" style="stroke:#181818;stroke-width:1.0;"/><path d="M39.8438,52.6719 C38.9063,52.2344 38.3125,52.0938 37.4375,52.0938 C34.8125,52.0938 32.8125,54.1719 32.8125,56.8906 L32.8125,58.0156 C32.8125,60.5938 34.9219,62.4844 37.8125,62.4844 C39.0313,62.4844 40.1875,62.1875 40.9375,61.6406 C41.5156,61.2344 41.8438,60.7813 41.8438,60.3906 C41.8438,59.9375 41.4531,59.5469 40.9844,59.5469 C40.7656,59.5469 40.5625,59.625 40.375,59.8125 C39.9219,60.2969 39.9219,60.2969 39.7344,60.3906 C39.3125,60.6563 38.625,60.7813 37.8594,60.7813 C35.8125,60.7813 34.5156,59.6875 34.5156,57.9844 L34.5156,56.8906 C34.5156,55.1094 35.7656,53.7969 37.5,53.7969 C38.0781,53.7969 38.6875,53.9531 39.1563,54.2031 C39.6406,54.4844 39.8125,54.7031 39.9063,55.1094 C39.9688,55.5156 40,55.6406 40.1406,55.7656 C40.2813,55.9063 40.5156,56.0156 40.7344,56.0156 C41,56.0156 41.2656,55.875 41.4375,55.6563 C41.5469,55.5 41.5781,55.3125 41.5781,54.8906 L41.5781,53.4688 C41.5781,53.0313 41.5625,52.9063 41.4688,52.75 C41.3125,52.4844 41.0313,52.3438 40.7344,52.3438 C40.4375,52.3438 40.2344,52.4375 40.0156,52.75 L39.8438,52.6719 Z " fill="#000000"/><text fill="#000000" font-family="sans-serif" font-size="14" lengthAdjust="spacing" textLength="35" x="51.5" y="61.8467">Livre</text><line style="stroke:#181818;stroke-width:0.5;" x1="23.5" x2="88.5" y1="73" y2="73"/><line style="stroke:#181818;stroke-width:0.5;" x1="23.5" x2="88.5" y1="81" y2="81"/></g><!--class Auteur--><g id="elem_Auteur"><rect codeLine="11" fill="#F1F1F1" height="48" id="Auteur" rx="2.5" ry="2.5" style="stroke:#181818;stroke-width:0.5;" width="80" x="125" y="41"/><ellipse cx="140" cy="57" fill="#ADD1B2" rx="11" ry="11" style="stroke:#181818;stroke-width:1.0;"/><path d="M142.3438,52.6719 C141.4063,52.2344 140.8125,52.0938 139.9375,52.0938 C137.3125,52.0938 135.3125,54.1719 135.3125,56.8906 L135.3125,58.0156 C135.3125,60.5938 137.4219,62.4844 140.3125,62.4844 C141.5313,62.4844 142.6875,62.1875 143.4375,61.6406 C144.0156,61.2344 144.3438,60.7813 144.3438,60.3906 C144.3438,59.9375 143.9531,59.5469 143.4844,59.5469 C143.2656,59.5469 143.0625,59.625 142.875,59.8125 C142.4219,60.2969 142.4219,60.2969 142.2344,60.3906 C141.8125,60.6563 141.125,60.7813 140.3594,60.7813 C138.3125,60.7813 137.0156,59.6875 137.0156,57.9844 L137.0156,56.8906 C137.0156,55.1094 138.2656,53.7969 140,53.7969 C140.5781,53.7969 141.1875,53.9531 141.6563,54.2031 C142.1406,54.4844 142.3125,54.7031 142.4063,55.1094 C142.4688,55.5156 142.5,55.6406 142.6406,55.7656 C142.7813,55.9063 143.0156,56.0156 143.2344,56.0156 C143.5,56.0156 143.7656,55.875 143.9375,55.6563 C144.0469,55.5 144.0781,55.3125 144.0781,54.8906 L144.0781,53.4688 C144.0781,53.0313 144.0625,52.9063 143.9688,52.75 C143.8125,52.4844 143.5313,52.3438 143.2344,52.3438 C142.9375,52.3438 142.7344,52.4375 142.5156,52.75 L142.3438,52.6719 Z " fill="#000000"/><text fill="#000000" font-family="sans-serif" font-size="14" lengthAdjust="spacing" textLength="48" x="154" y="61.8467">Auteur</text><line style="stroke:#181818;stroke-width:0.5;" x1="126" x2="204" y1="73" y2="73"/><line style="stroke:#181818;stroke-width:0.5;" x1="126" x2="204" y1="81" y2="81"/></g><!--class Cat?gorie--><g id="elem_Cat&#233;gorie"><rect codeLine="13" fill="#F1F1F1" height="48" id="Cat&#233;gorie" rx="2.5" ry="2.5" style="stroke:#181818;stroke-width:0.5;" width="103" x="22.5" y="149"/><ellipse cx="37.5" cy="165" fill="#ADD1B2" rx="11" ry="11" style="stroke:#181818;stroke-width:1.0;"/><path d="M39.8438,160.6719 C38.9063,160.2344 38.3125,160.0938 37.4375,160.0938 C34.8125,160.0938 32.8125,162.1719 32.8125,164.8906 L32.8125,166.0156 C32.8125,168.5938 34.9219,170.4844 37.8125,170.4844 C39.0313,170.4844 40.1875,170.1875 40.9375,169.6406 C41.5156,169.2344 41.8438,168.7813 41.8438,168.3906 C41.8438,167.9375 41.4531,167.5469 40.9844,167.5469 C40.7656,167.5469 40.5625,167.625 40.375,167.8125 C39.9219,168.2969 39.9219,168.2969 39.7344,168.3906 C39.3125,168.6563 38.625,168.7813 37.8594,168.7813 C35.8125,168.7813 34.5156,167.6875 34.5156,165.9844 L34.5156,164.8906 C34.5156,163.1094 35.7656,161.7969 37.5,161.7969 C38.0781,161.7969 38.6875,161.9531 39.1563,162.2031 C39.6406,162.4844 39.8125,162.7031 39.9063,163.1094 C39.9688,163.5156 40,163.6406 40.1406,163.7656 C40.2813,163.9063 40.5156,164.0156 40.7344,164.0156 C41,164.0156 41.2656,163.875 41.4375,163.6563 C41.5469,163.5 41.5781,163.3125 41.5781,162.8906 L41.5781,161.4688 C41.5781,161.0313 41.5625,160.9063 41.4688,160.75 C41.3125,160.4844 41.0313,160.3438 40.7344,160.3438 C40.4375,160.3438 40.2344,160.4375 40.0156,160.75 L39.8438,160.6719 Z " fill="#000000"/><text fill="#000000" font-family="sans-serif" font-size="14" lengthAdjust="spacing" textLength="71" x="51.5" y="169.8467">Cat&#233;gorie</text><line style="stroke:#181818;stroke-width:0.5;" x1="23.5" x2="124.5" y1="181" y2="181"/><line style="stroke:#181818;stroke-width:0.5;" x1="23.5" x2="124.5" y1="189" y2="189"/></g><!--class Pr?t--><g id="elem_Pr&#234;t"><rect codeLine="18" fill="#F1F1F1" height="48" id="Pr&#234;t" rx="2.5" ry="2.5" style="stroke:#181818;stroke-width:0.5;" width="63" x="652.5" y="41"/><ellipse cx="667.5" cy="57" fill="#ADD1B2" rx="11" ry="11" style="stroke:#181818;stroke-width:1.0;"/><path d="M669.8438,52.6719 C668.9063,52.2344 668.3125,52.0938 667.4375,52.0938 C664.8125,52.0938 662.8125,54.1719 662.8125,56.8906 L662.8125,58.0156 C662.8125,60.5938 664.9219,62.4844 667.8125,62.4844 C669.0313,62.4844 670.1875,62.1875 670.9375,61.6406 C671.5156,61.2344 671.8438,60.7813 671.8438,60.3906 C671.8438,59.9375 671.4531,59.5469 670.9844,59.5469 C670.7656,59.5469 670.5625,59.625 670.375,59.8125 C669.9219,60.2969 669.9219,60.2969 669.7344,60.3906 C669.3125,60.6563 668.625,60.7813 667.8594,60.7813 C665.8125,60.7813 664.5156,59.6875 664.5156,57.9844 L664.5156,56.8906 C664.5156,55.1094 665.7656,53.7969 667.5,53.7969 C668.0781,53.7969 668.6875,53.9531 669.1563,54.2031 C669.6406,54.4844 669.8125,54.7031 669.9063,55.1094 C669.9688,55.5156 670,55.6406 670.1406,55.7656 C670.2813,55.9063 670.5156,56.0156 670.7344,56.0156 C671,56.0156 671.2656,55.875 671.4375,55.6563 C671.5469,55.5 671.5781,55.3125 671.5781,54.8906 L671.5781,53.4688 C671.5781,53.0313 671.5625,52.9063 671.4688,52.75 C671.3125,52.4844 671.0313,52.3438 670.7344,52.3438 C670.4375,52.3438 670.2344,52.4375 670.0156,52.75 L669.8438,52.6719 Z " fill="#000000"/><text fill="#000000" font-family="sans-serif" font-size="14" lengthAdjust="spacing" textLength="31" x="681.5" y="61.8467">Pr&#234;t</text><line style="stroke:#181818;stroke-width:0.5;" x1="653.5" x2="714.5" y1="73" y2="73"/><line style="stroke:#181818;stroke-width:0.5;" x1="653.5" x2="714.5" y1="81" y2="81"/></g><!--class Retour--><g id="elem_Retour"><rect codeLine="20" fill="#F1F1F1" height="48" id="Retour" rx="2.5" ry="2.5" style="stroke:#181818;stroke-width:0.5;" width="81" x="536.5" y="41"/><ellipse cx="551.5" cy="57" fill="#ADD1B2" rx="11" ry="11" style="stroke:#181818;stroke-width:1.0;"/><path d="M553.8438,52.6719 C552.9063,52.2344 552.3125,52.0938 551.4375,52.0938 C548.8125,52.0938 546.8125,54.1719 546.8125,56.8906 L546.8125,58.0156 C546.8125,60.5938 548.9219,62.4844 551.8125,62.4844 C553.0313,62.4844 554.1875,62.1875 554.9375,61.6406 C555.5156,61.2344 555.8438,60.7813 555.8438,60.3906 C555.8438,59.9375 555.4531,59.5469 554.9844,59.5469 C554.7656,59.5469 554.5625,59.625 554.375,59.8125 C553.9219,60.2969 553.9219,60.2969 553.7344,60.3906 C553.3125,60.6563 552.625,60.7813 551.8594,60.7813 C549.8125,60.7813 548.5156,59.6875 548.5156,57.9844 L548.5156,56.8906 C548.5156,55.1094 549.7656,53.7969 551.5,53.7969 C552.0781,53.7969 552.6875,53.9531 553.1563,54.2031 C553.6406,54.4844 553.8125,54.7031 553.9063,55.1094 C553.9688,55.5156 554,55.6406 554.1406,55.7656 C554.2813,55.9063 554.5156,56.0156 554.7344,56.0156 C555,56.0156 555.2656,55.875 555.4375,55.6563 C555.5469,55.5 555.5781,55.3125 555.5781,54.8906 L555.5781,53.4688 C555.5781,53.0313 555.5625,52.9063 555.4688,52.75 C555.3125,52.4844 555.0313,52.3438 554.7344,52.3438 C554.4375,52.3438 554.2344,52.4375 554.0156,52.75 L553.8438,52.6719 Z " fill="#000000"/><text fill="#000000" font-family="sans-serif" font-size="14" lengthAdjust="spacing" textLength="49" x="565.5" y="61.8467">Retour</text><line style="stroke:#181818;stroke-width:0.5;" x1="537.5" x2="616.5" y1="73" y2="73"/><line style="stroke:#181818;stroke-width:0.5;" x1="537.5" x2="616.5" y1="81" y2="81"/></g><!--class Login--><g id="elem_Login"><rect codeLine="25" fill="#F1F1F1" height="48" id="Login" rx="2.5" ry="2.5" style="stroke:#181818;stroke-width:0.5;" width="71" x="889.5" y="41"/><ellipse cx="904.5" cy="57" fill="#ADD1B2" rx="11" ry="11" style="stroke:#181818;stroke-width:1.0;"/><path d="M906.8438,52.6719 C905.9063,52.2344 905.3125,52.0938 904.4375,52.0938 C901.8125,52.0938 899.8125,54.1719 899.8125,56.8906 L899.8125,58.0156 C899.8125,60.5938 901.9219,62.4844 904.8125,62.4844 C906.0313,62.4844 907.1875,62.1875 907.9375,61.6406 C908.5156,61.2344 908.8438,60.7813 908.8438,60.3906 C908.8438,59.9375 908.4531,59.5469 907.9844,59.5469 C907.7656,59.5469 907.5625,59.625 907.375,59.8125 C906.9219,60.2969 906.9219,60.2969 906.7344,60.3906 C906.3125,60.6563 905.625,60.7813 904.8594,60.7813 C902.8125,60.7813 901.5156,59.6875 901.5156,57.9844 L901.5156,56.8906 C901.5156,55.1094 902.7656,53.7969 904.5,53.7969 C905.0781,53.7969 905.6875,53.9531 906.1563,54.2031 C906.6406,54.4844 906.8125,54.7031 906.9063,55.1094 C906.9688,55.5156 907,55.6406 907.1406,55.7656 C907.2813,55.9063 907.5156,56.0156 907.7344,56.0156 C908,56.0156 908.2656,55.875 908.4375,55.6563 C908.5469,55.5 908.5781,55.3125 908.5781,54.8906 L908.5781,53.4688 C908.5781,53.0313 908.5625,52.9063 908.4688,52.75 C908.3125,52.4844 908.0313,52.3438 907.7344,52.3438 C907.4375,52.3438 907.2344,52.4375 907.0156,52.75 L906.8438,52.6719 Z " fill="#000000"/><text fill="#000000" font-family="sans-serif" font-size="14" lengthAdjust="spacing" textLength="39" x="918.5" y="61.8467">Login</text><line style="stroke:#181818;stroke-width:0.5;" x1="890.5" x2="959.5" y1="73" y2="73"/><line style="stroke:#181818;stroke-width:0.5;" x1="890.5" x2="959.5" y1="81" y2="81"/></g><!--class Logout--><g id="elem_Logout"><rect codeLine="27" fill="#F1F1F1" height="48" id="Logout" rx="2.5" ry="2.5" style="stroke:#181818;stroke-width:0.5;" width="82" x="772" y="41"/><ellipse cx="787" cy="57" fill="#ADD1B2" rx="11" ry="11" style="stroke:#181818;stroke-width:1.0;"/><path d="M789.3438,52.6719 C788.4063,52.2344 787.8125,52.0938 786.9375,52.0938 C784.3125,52.0938 782.3125,54.1719 782.3125,56.8906 L782.3125,58.0156 C782.3125,60.5938 784.4219,62.4844 787.3125,62.4844 C788.5313,62.4844 789.6875,62.1875 790.4375,61.6406 C791.0156,61.2344 791.3438,60.7813 791.3438,60.3906 C791.3438,59.9375 790.9531,59.5469 790.4844,59.5469 C790.2656,59.5469 790.0625,59.625 789.875,59.8125 C789.4219,60.2969 789.4219,60.2969 789.2344,60.3906 C788.8125,60.6563 788.125,60.7813 787.3594,60.7813 C785.3125,60.7813 784.0156,59.6875 784.0156,57.9844 L784.0156,56.8906 C784.0156,55.1094 785.2656,53.7969 787,53.7969 C787.5781,53.7969 788.1875,53.9531 788.6563,54.2031 C789.1406,54.4844 789.3125,54.7031 789.4063,55.1094 C789.4688,55.5156 789.5,55.6406 789.6406,55.7656 C789.7813,55.9063 790.0156,56.0156 790.2344,56.0156 C790.5,56.0156 790.7656,55.875 790.9375,55.6563 C791.0469,55.5 791.0781,55.3125 791.0781,54.8906 L791.0781,53.4688 C791.0781,53.0313 791.0625,52.9063 790.9688,52.75 C790.8125,52.4844 790.5313,52.3438 790.2344,52.3438 C789.9375,52.3438 789.7344,52.4375 789.5156,52.75 L789.3438,52.6719 Z " fill="#000000"/><text fill="#000000" font-family="sans-serif" font-size="14" lengthAdjust="spacing" textLength="50" x="801" y="61.8467">Logout</text><line style="stroke:#181818;stroke-width:0.5;" x1="773" x2="853" y1="73" y2="73"/><line style="stroke:#181818;stroke-width:0.5;" x1="773" x2="853" y1="81" y2="81"/></g><!--SRC=[RSyn3i8m343HFQU8UXF4oe0gSG0hkC6Yn5NYi5Gv45oZ5uEbZIDb_PQUxGNS4ppQuIOqKmB170Ux6clT32brUgcpq_r5OQ_5c6N7BlIEs32gQ21ttJF8zl4S2NluDMvVQN1Lb3AYSCMry5_xm20qaGCX3ksbxEjJkd8-TfGV]--></g></svg>