<?xml version="1.0" encoding="us-ascii" standalone="no"?><svg xmlns="http://www.w3.org/2000/svg" xmlns:xlink="http://www.w3.org/1999/xlink" contentStyleType="text/css" height="65px" preserveAspectRatio="none" style="width:494px;height:65px;background:#FFFFFF;" version="1.1" viewBox="0 0 494 65" width="494px" zoomAndPan="magnify"><defs/><g><path d="M8.5,6 L96.5,6 A3.75,3.75 0 0 1 99,8.5 L106,28.2969 L110.5,28.2969 A2.5,2.5 0 0 1 113,30.7969 L113,56.0938 A2.5,2.5 0 0 1 110.5,58.5938 L8.5,58.5938 A2.5,2.5 0 0 1 6,56.0938 L6,8.5 A2.5,2.5 0 0 1 8.5,6 " fill="#F1F1F1" style="stroke:#181818;stroke-width:0.5;"/><line style="stroke:#181818;stroke-width:0.5;" x1="6" x2="106" y1="28.2969" y2="28.2969"/><text fill="#000000" font-family="sans-serif" font-size="14" font-weight="bold" lengthAdjust="spacing" textLength="87" x="10" y="20.9951">Utilisateur</text><path d="M150.5,6 L190.5,6 A3.75,3.75 0 0 1 193,8.5 L200,28.2969 L204.5,28.2969 A2.5,2.5 0 0 1 207,30.7969 L207,56.0938 A2.5,2.5 0 0 1 204.5,58.5938 L150.5,58.5938 A2.5,2.5 0 0 1 148,56.0938 L148,8.5 A2.5,2.5 0 0 1 150.5,6 " fill="#F1F1F1" style="stroke:#181818;stroke-width:0.5;"/><line style="stroke:#181818;stroke-width:0.5;" x1="148" x2="200" y1="28.2969" y2="28.2969"/><text fill="#000000" font-family="sans-serif" font-size="14" font-weight="bold" lengthAdjust="spacing" textLength="39" x="152" y="20.9951">Livre</text><path d="M245,6 L280,6 A3.75,3.75 0 0 1 282.5,8.5 L289.5,28.2969 L294,28.2969 A2.5,2.5 0 0 1 296.5,30.7969 L296.5,56.0938 A2.5,2.5 0 0 1 294,58.5938 L245,58.5938 A2.5,2.5 0 0 1 242.5,56.0938 L242.5,8.5 A2.5,2.5 0 0 1 245,6 " fill="#F1F1F1" style="stroke:#181818;stroke-width:0.5;"/><line style="stroke:#181818;stroke-width:0.5;" x1="242.5" x2="289.5" y1="28.2969" y2="28.2969"/><text fill="#000000" font-family="sans-serif" font-size="14" font-weight="bold" lengthAdjust="spacing" textLength="34" x="246.5" y="20.9951">Pr&#234;t</text><path d="M334.5,6 L470.5,6 A3.75,3.75 0 0 1 473,8.5 L480,28.2969 L484.5,28.2969 A2.5,2.5 0 0 1 487,30.7969 L487,56.0938 A2.5,2.5 0 0 1 484.5,58.5938 L334.5,58.5938 A2.5,2.5 0 0 1 332,56.0938 L332,8.5 A2.5,2.5 0 0 1 334.5,6 " fill="#F1F1F1" style="stroke:#181818;stroke-width:0.5;"/><line style="stroke:#181818;stroke-width:0.5;" x1="332" x2="480" y1="28.2969" y2="28.2969"/><text fill="#000000" font-family="sans-serif" font-size="14" font-weight="bold" lengthAdjust="spacing" textLength="135" x="336" y="20.9951">Authentification</text><!--SRC=[AqXCpavCJrLG2Yt9pCaiJYn9BIrIKgZcgkKgWCduP9OLfQA91HGTNbM29kPOMfAHcbUIcPQPd5YIcPy7bWO0]--></g></svg>