<?xml version="1.0" encoding="us-ascii" standalone="no"?><svg xmlns="http://www.w3.org/2000/svg" xmlns:xlink="http://www.w3.org/1999/xlink" contentStyleType="text/css" height="549px" preserveAspectRatio="none" style="width:664px;height:549px;background:#FFFFFF;" version="1.1" viewBox="0 0 664 549" width="664px" zoomAndPan="magnify"><defs/><g><!--cluster Utilisateur--><g id="cluster_Utilisateur"><path d="M213.5,6 L301.5,6 A3.75,3.75 0 0 1 304,8.5 L311,28.2969 L494.5,28.2969 A2.5,2.5 0 0 1 497,30.7969 L497,118.5 A2.5,2.5 0 0 1 494.5,121 L213.5,121 A2.5,2.5 0 0 1 211,118.5 L211,8.5 A2.5,2.5 0 0 1 213.5,6 " fill="none" style="stroke:#000000;stroke-width:1.5;"/><line style="stroke:#000000;stroke-width:1.5;" x1="211" x2="311" y1="28.2969" y2="28.2969"/><text fill="#000000" font-family="sans-serif" font-size="14" font-weight="bold" lengthAdjust="spacing" textLength="87" x="215" y="20.9951">Utilisateur</text></g><!--cluster Livre--><g id="cluster_Livre"><path d="M8.5,366 L48.5,366 A3.75,3.75 0 0 1 51,368.5 L58,388.2969 L372.5,388.2969 A2.5,2.5 0 0 1 375,390.7969 L375,540.22 A2.5,2.5 0 0 1 372.5,542.72 L8.5,542.72 A2.5,2.5 0 0 1 6,540.22 L6,368.5 A2.5,2.5 0 0 1 8.5,366 " fill="none" style="stroke:#000000;stroke-width:1.5;"/><line style="stroke:#000000;stroke-width:1.5;" x1="6" x2="58" y1="388.2969" y2="388.2969"/><text fill="#000000" font-family="sans-serif" font-size="14" font-weight="bold" lengthAdjust="spacing" textLength="39" x="10" y="380.9951">Livre</text></g><!--cluster Pr?t--><g id="cluster_Pr&#234;t"><path d="M116.5,186 L151.5,186 A3.75,3.75 0 0 1 154,188.5 L161,208.2969 L358.5,208.2969 A2.5,2.5 0 0 1 361,210.7969 L361,298.5 A2.5,2.5 0 0 1 358.5,301 L116.5,301 A2.5,2.5 0 0 1 114,298.5 L114,188.5 A2.5,2.5 0 0 1 116.5,186 " fill="none" style="stroke:#000000;stroke-width:1.5;"/><line style="stroke:#000000;stroke-width:1.5;" x1="114" x2="161" y1="208.2969" y2="208.2969"/><text fill="#000000" font-family="sans-serif" font-size="14" font-weight="bold" lengthAdjust="spacing" textLength="34" x="118" y="200.9951">Pr&#234;t</text></g><!--cluster Authentification--><g id="cluster_Authentification"><path d="M403.5,186 L539.5,186 A3.75,3.75 0 0 1 542,188.5 L549,208.2969 L654.5,208.2969 A2.5,2.5 0 0 1 657,210.7969 L657,298.5 A2.5,2.5 0 0 1 654.5,301 L403.5,301 A2.5,2.5 0 0 1 401,298.5 L401,188.5 A2.5,2.5 0 0 1 403.5,186 " fill="none" style="stroke:#000000;stroke-width:1.5;"/><line style="stroke:#000000;stroke-width:1.5;" x1="401" x2="549" y1="208.2969" y2="208.2969"/><text fill="#000000" font-family="sans-serif" font-size="14" font-weight="bold" lengthAdjust="spacing" textLength="135" x="405" y="200.9951">Authentification</text></g><!--class Utilisateur--><g id="elem_Utilisateur"><rect codeLine="2" fill="#F1F1F1" height="48" id="Utilisateur" rx="2.5" ry="2.5" style="stroke:#181818;stroke-width:0.5;" width="105" x="367.5" y="49"/><ellipse cx="382.5" cy="65" fill="#ADD1B2" rx="11" ry="11" style="stroke:#181818;stroke-width:1.0;"/><path d="M384.8438,60.6719 C383.9063,60.2344 383.3125,60.0938 382.4375,60.0938 C379.8125,60.0938 377.8125,62.1719 377.8125,64.8906 L377.8125,66.0156 C377.8125,68.5938 379.9219,70.4844 382.8125,70.4844 C384.0313,70.4844 385.1875,70.1875 385.9375,69.6406 C386.5156,69.2344 386.8438,68.7813 386.8438,68.3906 C386.8438,67.9375 386.4531,67.5469 385.9844,67.5469 C385.7656,67.5469 385.5625,67.625 385.375,67.8125 C384.9219,68.2969 384.9219,68.2969 384.7344,68.3906 C384.3125,68.6563 383.625,68.7813 382.8594,68.7813 C380.8125,68.7813 379.5156,67.6875 379.5156,65.9844 L379.5156,64.8906 C379.5156,63.1094 380.7656,61.7969 382.5,61.7969 C383.0781,61.7969 383.6875,61.9531 384.1563,62.2031 C384.6406,62.4844 384.8125,62.7031 384.9063,63.1094 C384.9688,63.5156 385,63.6406 385.1406,63.7656 C385.2813,63.9063 385.5156,64.0156 385.7344,64.0156 C386,64.0156 386.2656,63.875 386.4375,63.6563 C386.5469,63.5 386.5781,63.3125 386.5781,62.8906 L386.5781,61.4688 C386.5781,61.0313 386.5625,60.9063 386.4688,60.75 C386.3125,60.4844 386.0313,60.3438 385.7344,60.3438 C385.4375,60.3438 385.2344,60.4375 385.0156,60.75 L384.8438,60.6719 Z " fill="#000000"/><text fill="#000000" font-family="sans-serif" font-size="14" lengthAdjust="spacing" textLength="73" x="396.5" y="69.8467">Utilisateur</text><line style="stroke:#181818;stroke-width:0.5;" x1="368.5" x2="471.5" y1="81" y2="81"/><line style="stroke:#181818;stroke-width:0.5;" x1="368.5" x2="471.5" y1="89" y2="89"/></g><!--class Admin--><g id="elem_Admin"><rect codeLine="4" fill="#F1F1F1" height="48" id="Admin" rx="2.5" ry="2.5" style="stroke:#181818;stroke-width:0.5;" width="78" x="254" y="49"/><ellipse cx="269" cy="65" fill="#ADD1B2" rx="11" ry="11" style="stroke:#181818;stroke-width:1.0;"/><path d="M271.3438,60.6719 C270.4063,60.2344 269.8125,60.0938 268.9375,60.0938 C266.3125,60.0938 264.3125,62.1719 264.3125,64.8906 L264.3125,66.0156 C264.3125,68.5938 266.4219,70.4844 269.3125,70.4844 C270.5313,70.4844 271.6875,70.1875 272.4375,69.6406 C273.0156,69.2344 273.3438,68.7813 273.3438,68.3906 C273.3438,67.9375 272.9531,67.5469 272.4844,67.5469 C272.2656,67.5469 272.0625,67.625 271.875,67.8125 C271.4219,68.2969 271.4219,68.2969 271.2344,68.3906 C270.8125,68.6563 270.125,68.7813 269.3594,68.7813 C267.3125,68.7813 266.0156,67.6875 266.0156,65.9844 L266.0156,64.8906 C266.0156,63.1094 267.2656,61.7969 269,61.7969 C269.5781,61.7969 270.1875,61.9531 270.6563,62.2031 C271.1406,62.4844 271.3125,62.7031 271.4063,63.1094 C271.4688,63.5156 271.5,63.6406 271.6406,63.7656 C271.7813,63.9063 272.0156,64.0156 272.2344,64.0156 C272.5,64.0156 272.7656,63.875 272.9375,63.6563 C273.0469,63.5 273.0781,63.3125 273.0781,62.8906 L273.0781,61.4688 C273.0781,61.0313 273.0625,60.9063 272.9688,60.75 C272.8125,60.4844 272.5313,60.3438 272.2344,60.3438 C271.9375,60.3438 271.7344,60.4375 271.5156,60.75 L271.3438,60.6719 Z " fill="#000000"/><text fill="#000000" font-family="sans-serif" font-size="14" lengthAdjust="spacing" textLength="46" x="283" y="69.8467">Admin</text><line style="stroke:#181818;stroke-width:0.5;" x1="255" x2="331" y1="81" y2="81"/><line style="stroke:#181818;stroke-width:0.5;" x1="255" x2="331" y1="89" y2="89"/></g><!--class Livre--><g id="elem_Livre"><rect codeLine="9" fill="#F1F1F1" height="48" id="Livre" rx="2.5" ry="2.5" style="stroke:#181818;stroke-width:0.5;" width="67" x="283.5" y="470.72"/><ellipse cx="298.5" cy="486.72" fill="#ADD1B2" rx="11" ry="11" style="stroke:#181818;stroke-width:1.0;"/><path d="M300.8438,482.3919 C299.9063,481.9544 299.3125,481.8138 298.4375,481.8138 C295.8125,481.8138 293.8125,483.8919 293.8125,486.6106 L293.8125,487.7356 C293.8125,490.3138 295.9219,492.2044 298.8125,492.2044 C300.0313,492.2044 301.1875,491.9075 301.9375,491.3606 C302.5156,490.9544 302.8438,490.5013 302.8438,490.1106 C302.8438,489.6575 302.4531,489.2669 301.9844,489.2669 C301.7656,489.2669 301.5625,489.345 301.375,489.5325 C300.9219,490.0169 300.9219,490.0169 300.7344,490.1106 C300.3125,490.3763 299.625,490.5013 298.8594,490.5013 C296.8125,490.5013 295.5156,489.4075 295.5156,487.7044 L295.5156,486.6106 C295.5156,484.8294 296.7656,483.5169 298.5,483.5169 C299.0781,483.5169 299.6875,483.6731 300.1563,483.9231 C300.6406,484.2044 300.8125,484.4231 300.9063,484.8294 C300.9688,485.2356 301,485.3606 301.1406,485.4856 C301.2813,485.6263 301.5156,485.7356 301.7344,485.7356 C302,485.7356 302.2656,485.595 302.4375,485.3763 C302.5469,485.22 302.5781,485.0325 302.5781,484.6106 L302.5781,483.1888 C302.5781,482.7513 302.5625,482.6263 302.4688,482.47 C302.3125,482.2044 302.0313,482.0638 301.7344,482.0638 C301.4375,482.0638 301.2344,482.1575 301.0156,482.47 L300.8438,482.3919 Z " fill="#000000"/><text fill="#000000" font-family="sans-serif" font-size="14" lengthAdjust="spacing" textLength="35" x="312.5" y="491.5667">Livre</text><line style="stroke:#181818;stroke-width:0.5;" x1="284.5" x2="349.5" y1="502.72" y2="502.72"/><line style="stroke:#181818;stroke-width:0.5;" x1="284.5" x2="349.5" y1="510.72" y2="510.72"/></g><!--class Auteur--><g id="elem_Auteur"><rect codeLine="11" fill="#F1F1F1" height="48" id="Auteur" rx="2.5" ry="2.5" style="stroke:#181818;stroke-width:0.5;" width="80" x="30" y="470.72"/><ellipse cx="45" cy="486.72" fill="#ADD1B2" rx="11" ry="11" style="stroke:#181818;stroke-width:1.0;"/><path d="M47.3438,482.3919 C46.4063,481.9544 45.8125,481.8138 44.9375,481.8138 C42.3125,481.8138 40.3125,483.8919 40.3125,486.6106 L40.3125,487.7356 C40.3125,490.3138 42.4219,492.2044 45.3125,492.2044 C46.5313,492.2044 47.6875,491.9075 48.4375,491.3606 C49.0156,490.9544 49.3438,490.5013 49.3438,490.1106 C49.3438,489.6575 48.9531,489.2669 48.4844,489.2669 C48.2656,489.2669 48.0625,489.345 47.875,489.5325 C47.4219,490.0169 47.4219,490.0169 47.2344,490.1106 C46.8125,490.3763 46.125,490.5013 45.3594,490.5013 C43.3125,490.5013 42.0156,489.4075 42.0156,487.7044 L42.0156,486.6106 C42.0156,484.8294 43.2656,483.5169 45,483.5169 C45.5781,483.5169 46.1875,483.6731 46.6563,483.9231 C47.1406,484.2044 47.3125,484.4231 47.4063,484.8294 C47.4688,485.2356 47.5,485.3606 47.6406,485.4856 C47.7813,485.6263 48.0156,485.7356 48.2344,485.7356 C48.5,485.7356 48.7656,485.595 48.9375,485.3763 C49.0469,485.22 49.0781,485.0325 49.0781,484.6106 L49.0781,483.1888 C49.0781,482.7513 49.0625,482.6263 48.9688,482.47 C48.8125,482.2044 48.5313,482.0638 48.2344,482.0638 C47.9375,482.0638 47.7344,482.1575 47.5156,482.47 L47.3438,482.3919 Z " fill="#000000"/><text fill="#000000" font-family="sans-serif" font-size="14" lengthAdjust="spacing" textLength="48" x="59" y="491.5667">Auteur</text><line style="stroke:#181818;stroke-width:0.5;" x1="31" x2="109" y1="502.72" y2="502.72"/><line style="stroke:#181818;stroke-width:0.5;" x1="31" x2="109" y1="510.72" y2="510.72"/></g><!--class Cat?gorie--><g id="elem_Cat&#233;gorie"><rect codeLine="13" fill="#F1F1F1" height="48" id="Cat&#233;gorie" rx="2.5" ry="2.5" style="stroke:#181818;stroke-width:0.5;" width="103" x="145.5" y="470.72"/><ellipse cx="160.5" cy="486.72" fill="#ADD1B2" rx="11" ry="11" style="stroke:#181818;stroke-width:1.0;"/><path d="M162.8438,482.3919 C161.9063,481.9544 161.3125,481.8138 160.4375,481.8138 C157.8125,481.8138 155.8125,483.8919 155.8125,486.6106 L155.8125,487.7356 C155.8125,490.3138 157.9219,492.2044 160.8125,492.2044 C162.0313,492.2044 163.1875,491.9075 163.9375,491.3606 C164.5156,490.9544 164.8438,490.5013 164.8438,490.1106 C164.8438,489.6575 164.4531,489.2669 163.9844,489.2669 C163.7656,489.2669 163.5625,489.345 163.375,489.5325 C162.9219,490.0169 162.9219,490.0169 162.7344,490.1106 C162.3125,490.3763 161.625,490.5013 160.8594,490.5013 C158.8125,490.5013 157.5156,489.4075 157.5156,487.7044 L157.5156,486.6106 C157.5156,484.8294 158.7656,483.5169 160.5,483.5169 C161.0781,483.5169 161.6875,483.6731 162.1563,483.9231 C162.6406,484.2044 162.8125,484.4231 162.9063,484.8294 C162.9688,485.2356 163,485.3606 163.1406,485.4856 C163.2813,485.6263 163.5156,485.7356 163.7344,485.7356 C164,485.7356 164.2656,485.595 164.4375,485.3763 C164.5469,485.22 164.5781,485.0325 164.5781,484.6106 L164.5781,483.1888 C164.5781,482.7513 164.5625,482.6263 164.4688,482.47 C164.3125,482.2044 164.0313,482.0638 163.7344,482.0638 C163.4375,482.0638 163.2344,482.1575 163.0156,482.47 L162.8438,482.3919 Z " fill="#000000"/><text fill="#000000" font-family="sans-serif" font-size="14" lengthAdjust="spacing" textLength="71" x="174.5" y="491.5667">Cat&#233;gorie</text><line style="stroke:#181818;stroke-width:0.5;" x1="146.5" x2="247.5" y1="502.72" y2="502.72"/><line style="stroke:#181818;stroke-width:0.5;" x1="146.5" x2="247.5" y1="510.72" y2="510.72"/></g><!--class Pr?t--><g id="elem_Pr&#234;t"><rect codeLine="18" fill="#F1F1F1" height="48" id="Pr&#234;t" rx="2.5" ry="2.5" style="stroke:#181818;stroke-width:0.5;" width="63" x="273.5" y="229"/><ellipse cx="288.5" cy="245" fill="#ADD1B2" rx="11" ry="11" style="stroke:#181818;stroke-width:1.0;"/><path d="M290.8438,240.6719 C289.9063,240.2344 289.3125,240.0938 288.4375,240.0938 C285.8125,240.0938 283.8125,242.1719 283.8125,244.8906 L283.8125,246.0156 C283.8125,248.5938 285.9219,250.4844 288.8125,250.4844 C290.0313,250.4844 291.1875,250.1875 291.9375,249.6406 C292.5156,249.2344 292.8438,248.7813 292.8438,248.3906 C292.8438,247.9375 292.4531,247.5469 291.9844,247.5469 C291.7656,247.5469 291.5625,247.625 291.375,247.8125 C290.9219,248.2969 290.9219,248.2969 290.7344,248.3906 C290.3125,248.6563 289.625,248.7813 288.8594,248.7813 C286.8125,248.7813 285.5156,247.6875 285.5156,245.9844 L285.5156,244.8906 C285.5156,243.1094 286.7656,241.7969 288.5,241.7969 C289.0781,241.7969 289.6875,241.9531 290.1563,242.2031 C290.6406,242.4844 290.8125,242.7031 290.9063,243.1094 C290.9688,243.5156 291,243.6406 291.1406,243.7656 C291.2813,243.9063 291.5156,244.0156 291.7344,244.0156 C292,244.0156 292.2656,243.875 292.4375,243.6563 C292.5469,243.5 292.5781,243.3125 292.5781,242.8906 L292.5781,241.4688 C292.5781,241.0313 292.5625,240.9063 292.4688,240.75 C292.3125,240.4844 292.0313,240.3438 291.7344,240.3438 C291.4375,240.3438 291.2344,240.4375 291.0156,240.75 L290.8438,240.6719 Z " fill="#000000"/><text fill="#000000" font-family="sans-serif" font-size="14" lengthAdjust="spacing" textLength="31" x="302.5" y="249.8467">Pr&#234;t</text><line style="stroke:#181818;stroke-width:0.5;" x1="274.5" x2="335.5" y1="261" y2="261"/><line style="stroke:#181818;stroke-width:0.5;" x1="274.5" x2="335.5" y1="269" y2="269"/></g><!--class Retour--><g id="elem_Retour"><rect codeLine="20" fill="#F1F1F1" height="48" id="Retour" rx="2.5" ry="2.5" style="stroke:#181818;stroke-width:0.5;" width="81" x="157.5" y="229"/><ellipse cx="172.5" cy="245" fill="#ADD1B2" rx="11" ry="11" style="stroke:#181818;stroke-width:1.0;"/><path d="M174.8438,240.6719 C173.9063,240.2344 173.3125,240.0938 172.4375,240.0938 C169.8125,240.0938 167.8125,242.1719 167.8125,244.8906 L167.8125,246.0156 C167.8125,248.5938 169.9219,250.4844 172.8125,250.4844 C174.0313,250.4844 175.1875,250.1875 175.9375,249.6406 C176.5156,249.2344 176.8438,248.7813 176.8438,248.3906 C176.8438,247.9375 176.4531,247.5469 175.9844,247.5469 C175.7656,247.5469 175.5625,247.625 175.375,247.8125 C174.9219,248.2969 174.9219,248.2969 174.7344,248.3906 C174.3125,248.6563 173.625,248.7813 172.8594,248.7813 C170.8125,248.7813 169.5156,247.6875 169.5156,245.9844 L169.5156,244.8906 C169.5156,243.1094 170.7656,241.7969 172.5,241.7969 C173.0781,241.7969 173.6875,241.9531 174.1563,242.2031 C174.6406,242.4844 174.8125,242.7031 174.9063,243.1094 C174.9688,243.5156 175,243.6406 175.1406,243.7656 C175.2813,243.9063 175.5156,244.0156 175.7344,244.0156 C176,244.0156 176.2656,243.875 176.4375,243.6563 C176.5469,243.5 176.5781,243.3125 176.5781,242.8906 L176.5781,241.4688 C176.5781,241.0313 176.5625,240.9063 176.4688,240.75 C176.3125,240.4844 176.0313,240.3438 175.7344,240.3438 C175.4375,240.3438 175.2344,240.4375 175.0156,240.75 L174.8438,240.6719 Z " fill="#000000"/><text fill="#000000" font-family="sans-serif" font-size="14" lengthAdjust="spacing" textLength="49" x="186.5" y="249.8467">Retour</text><line style="stroke:#181818;stroke-width:0.5;" x1="158.5" x2="237.5" y1="261" y2="261"/><line style="stroke:#181818;stroke-width:0.5;" x1="158.5" x2="237.5" y1="269" y2="269"/></g><!--class Login--><g id="elem_Login"><rect codeLine="25" fill="#F1F1F1" height="48" id="Login" rx="2.5" ry="2.5" style="stroke:#181818;stroke-width:0.5;" width="71" x="561.5" y="229"/><ellipse cx="576.5" cy="245" fill="#ADD1B2" rx="11" ry="11" style="stroke:#181818;stroke-width:1.0;"/><path d="M578.8438,240.6719 C577.9063,240.2344 577.3125,240.0938 576.4375,240.0938 C573.8125,240.0938 571.8125,242.1719 571.8125,244.8906 L571.8125,246.0156 C571.8125,248.5938 573.9219,250.4844 576.8125,250.4844 C578.0313,250.4844 579.1875,250.1875 579.9375,249.6406 C580.5156,249.2344 580.8438,248.7813 580.8438,248.3906 C580.8438,247.9375 580.4531,247.5469 579.9844,247.5469 C579.7656,247.5469 579.5625,247.625 579.375,247.8125 C578.9219,248.2969 578.9219,248.2969 578.7344,248.3906 C578.3125,248.6563 577.625,248.7813 576.8594,248.7813 C574.8125,248.7813 573.5156,247.6875 573.5156,245.9844 L573.5156,244.8906 C573.5156,243.1094 574.7656,241.7969 576.5,241.7969 C577.0781,241.7969 577.6875,241.9531 578.1563,242.2031 C578.6406,242.4844 578.8125,242.7031 578.9063,243.1094 C578.9688,243.5156 579,243.6406 579.1406,243.7656 C579.2813,243.9063 579.5156,244.0156 579.7344,244.0156 C580,244.0156 580.2656,243.875 580.4375,243.6563 C580.5469,243.5 580.5781,243.3125 580.5781,242.8906 L580.5781,241.4688 C580.5781,241.0313 580.5625,240.9063 580.4688,240.75 C580.3125,240.4844 580.0313,240.3438 579.7344,240.3438 C579.4375,240.3438 579.2344,240.4375 579.0156,240.75 L578.8438,240.6719 Z " fill="#000000"/><text fill="#000000" font-family="sans-serif" font-size="14" lengthAdjust="spacing" textLength="39" x="590.5" y="249.8467">Login</text><line style="stroke:#181818;stroke-width:0.5;" x1="562.5" x2="631.5" y1="261" y2="261"/><line style="stroke:#181818;stroke-width:0.5;" x1="562.5" x2="631.5" y1="269" y2="269"/></g><!--class Logout--><g id="elem_Logout"><rect codeLine="27" fill="#F1F1F1" height="48" id="Logout" rx="2.5" ry="2.5" style="stroke:#181818;stroke-width:0.5;" width="82" x="444" y="229"/><ellipse cx="459" cy="245" fill="#ADD1B2" rx="11" ry="11" style="stroke:#181818;stroke-width:1.0;"/><path d="M461.3438,240.6719 C460.4063,240.2344 459.8125,240.0938 458.9375,240.0938 C456.3125,240.0938 454.3125,242.1719 454.3125,244.8906 L454.3125,246.0156 C454.3125,248.5938 456.4219,250.4844 459.3125,250.4844 C460.5313,250.4844 461.6875,250.1875 462.4375,249.6406 C463.0156,249.2344 463.3438,248.7813 463.3438,248.3906 C463.3438,247.9375 462.9531,247.5469 462.4844,247.5469 C462.2656,247.5469 462.0625,247.625 461.875,247.8125 C461.4219,248.2969 461.4219,248.2969 461.2344,248.3906 C460.8125,248.6563 460.125,248.7813 459.3594,248.7813 C457.3125,248.7813 456.0156,247.6875 456.0156,245.9844 L456.0156,244.8906 C456.0156,243.1094 457.2656,241.7969 459,241.7969 C459.5781,241.7969 460.1875,241.9531 460.6563,242.2031 C461.1406,242.4844 461.3125,242.7031 461.4063,243.1094 C461.4688,243.5156 461.5,243.6406 461.6406,243.7656 C461.7813,243.9063 462.0156,244.0156 462.2344,244.0156 C462.5,244.0156 462.7656,243.875 462.9375,243.6563 C463.0469,243.5 463.0781,243.3125 463.0781,242.8906 L463.0781,241.4688 C463.0781,241.0313 463.0625,240.9063 462.9688,240.75 C462.8125,240.4844 462.5313,240.3438 462.2344,240.3438 C461.9375,240.3438 461.7344,240.4375 461.5156,240.75 L461.3438,240.6719 Z " fill="#000000"/><text fill="#000000" font-family="sans-serif" font-size="14" lengthAdjust="spacing" textLength="50" x="473" y="249.8467">Logout</text><line style="stroke:#181818;stroke-width:0.5;" x1="445" x2="525" y1="261" y2="261"/><line style="stroke:#181818;stroke-width:0.5;" x1="445" x2="525" y1="269" y2="269"/></g><!--link Utilisateur to Pr?t--><g id="link_Utilisateur_Pr&#234;t"><path codeLine="31" d="M210.8901,81.4123 C210.8107,81.4873 210.7308,81.5627 210.6504,81.6387 C210.0072,82.2466 209.3333,82.8874 208.6309,83.5599 C203.0123,88.9403 195.5752,96.3517 187.5061,105.1711 C171.368,122.81 152.702,146.081 141,170 C139.0091,174.0693 137.2218,178.3554 135.618,182.7463 C135.4175,183.2951 135.2199,183.8456 135.0251,184.3975 C134.9277,184.6735 134.831,184.9498 134.735,185.2264 C134.687,185.3647 136.5912,179.8295 136.5435,179.968 " fill="none" id="Utilisateur-to-Pr&#234;t" style="stroke:#181818;stroke-width:1.0;"/><polygon fill="#181818" points="134.5915,185.6416,141.3019,178.4325,136.2182,180.9136,133.7371,175.8299,134.5915,185.6416" style="stroke:#181818;stroke-width:1.0;"/><text fill="#000000" font-family="sans-serif" font-size="13" lengthAdjust="spacing" textLength="63" x="156" y="158.0669">emprunte</text></g><!--link Pr?t to Livre--><g id="link_Pr&#234;t_Livre"><path codeLine="32" d="M122,301.5379 C122,302.5384 122,303.5456 122,304.5585 C122,306.5844 122,308.6333 122,310.6975 C122,314.826 122,319.0158 122,323.2055 C122,331.5849 122,339.9638 122,347.8504 C122,351.7937 122,355.614 122,359.2497 C122,361.0676 122,362.8393 122,364.5572 C122,364.9867 122,359.4128 122,359.8355 " fill="none" id="Pr&#234;t-to-Livre" style="stroke:#181818;stroke-width:1.0;"/><polygon fill="#181818" points="122,365.8355,126,356.8355,122,360.8355,118,356.8355,122,365.8355" style="stroke:#181818;stroke-width:1.0;"/><text fill="#000000" font-family="sans-serif" font-size="13" lengthAdjust="spacing" textLength="59" x="123" y="338.0669">concerne</text></g><!--link Utilisateur to Authentification--><g id="link_Utilisateur_Authentification"><path codeLine="33" d="M227.4426,121.2952 C227.4887,121.3974 227.5351,121.4995 227.5817,121.6014 C227.9548,122.417 228.3438,123.2249 228.7495,124.0235 C229.561,125.6207 230.4391,127.1804 231.3894,128.6883 C233.2899,131.7041 235.479,134.5128 238,137 C275.852,174.346 309.895,138.865 353,170 C370.329,182.5165 384.0093,202.1465 393.5098,219.0621 C395.8849,223.291 397.9988,227.3503 399.8431,231.0863 C400.0737,231.5533 400.3,232.0153 400.5221,232.4719 C400.6332,232.7002 398.1341,227.5242 398.243,227.7497 " fill="none" id="Utilisateur-to-Authentification" style="stroke:#181818;stroke-width:1.0;"/><polygon fill="#181818" points="400.8521,233.1528,400.5405,223.3088,398.6778,228.6503,393.3364,226.7876,400.8521,233.1528" style="stroke:#181818;stroke-width:1.0;"/><text fill="#000000" font-family="sans-serif" font-size="13" lengthAdjust="spacing" textLength="37" x="341" y="158.0669">utilise</text></g><!--link Livre to Auteur--><g id="link_Livre_Auteur"><path codeLine="34" d="M121.96,393.765 C121.143,394.696 107.942,409.81 100,423.72 C91.411,438.761 85.9298,451.1462 80.5026,465.1158 " fill="none" id="Livre-to-Auteur" style="stroke:#181818;stroke-width:1.0;"/><polygon fill="#181818" points="78.3298,470.7086,85.3175,463.768,80.1405,466.048,77.8605,460.8709,78.3298,470.7086" style="stroke:#181818;stroke-width:1.0;"/><text fill="#000000" font-family="sans-serif" font-size="13" lengthAdjust="spacing" textLength="40" x="101" y="436.7869">a &#233;crit</text></g><!--link Livre to Cat?gorie--><g id="link_Livre_Cat&#233;gorie"><path codeLine="35" d="M122.039,393.768 C122.849,394.744 135.961,410.574 146,423.72 C157.772,439.136 167.1286,451.9176 176.9896,465.6395 " fill="none" id="Livre-to-Cat&#233;gorie" style="stroke:#181818;stroke-width:1.0;"/><polygon fill="#181818" points="180.491,470.5119,178.4871,460.8691,177.5731,466.4516,171.9906,465.5376,180.491,470.5119" style="stroke:#181818;stroke-width:1.0;"/><text fill="#000000" font-family="sans-serif" font-size="13" lengthAdjust="spacing" textLength="78" x="159" y="436.7869">appartient &#224;</text></g><!--SRC=[RT113e8m40NGFQUOiES2B4oCMnV6n0DCweWJeMtAr8tXBcxn6bpCXb1f8zi_dyTqBAe7DWJbHRZb7eMyA-5L0AWM-tuZ7zRP_jgnZkbG53PYHtuwofWaIG6_wHvGfh4nZcaBFxdf8ncU98bo9Z4hdWhXjtVImZTMA6nqlgbfraUbgV6IOFbXgchtMwC6wgppMgY8qJnUJb23CbgHqxHb_AzMWvzReRu8iJX_LGF2D2h7ai_J6uQEjUY4WmpJ-mi0]--></g></svg>