<?xml version="1.0" encoding="us-ascii" standalone="no"?><svg xmlns="http://www.w3.org/2000/svg" xmlns:xlink="http://www.w3.org/1999/xlink" contentStyleType="text/css" height="531px" preserveAspectRatio="none" style="width:577px;height:531px;background:#FFFFFF;" version="1.1" viewBox="0 0 577 531" width="577px" zoomAndPan="magnify"><defs/><g><line style="stroke:#181818;stroke-width:0.5;stroke-dasharray:5.0,5.0;" x1="42" x2="42" y1="81.2969" y2="450.8906"/><line style="stroke:#181818;stroke-width:0.5;stroke-dasharray:5.0,5.0;" x1="274.5" x2="274.5" y1="81.2969" y2="450.8906"/><line style="stroke:#181818;stroke-width:0.5;stroke-dasharray:5.0,5.0;" x1="511.5" x2="511.5" y1="81.2969" y2="450.8906"/><text fill="#000000" font-family="sans-serif" font-size="14" lengthAdjust="spacing" textLength="68" x="5" y="77.9951">Utilisateur</text><ellipse cx="42" cy="13.5" fill="#E2E2F0" rx="8" ry="8" style="stroke:#181818;stroke-width:0.5;"/><path d="M42,21.5 L42,48.5 M29,29.5 L55,29.5 M42,48.5 L29,63.5 M42,48.5 L55,63.5 " fill="none" style="stroke:#181818;stroke-width:0.5;"/><text fill="#000000" font-family="sans-serif" font-size="14" lengthAdjust="spacing" textLength="68" x="5" y="462.8857">Utilisateur</text><ellipse cx="42" cy="474.6875" fill="#E2E2F0" rx="8" ry="8" style="stroke:#181818;stroke-width:0.5;"/><path d="M42,482.6875 L42,509.6875 M29,490.6875 L55,490.6875 M42,509.6875 L29,524.6875 M42,509.6875 L55,524.6875 " fill="none" style="stroke:#181818;stroke-width:0.5;"/><text fill="#000000" font-family="sans-serif" font-size="14" lengthAdjust="spacing" textLength="231" x="156.5" y="77.9951">Syst&#232;me de biblioth&#232;que en ligne</text><ellipse cx="275" cy="49" fill="#E2E2F0" rx="12" ry="12" style="stroke:#181818;stroke-width:0.5;"/><line style="stroke:#181818;stroke-width:0.5;" x1="263" x2="287" y1="63" y2="63"/><text fill="#000000" font-family="sans-serif" font-size="14" lengthAdjust="spacing" textLength="231" x="156.5" y="462.8857">Syst&#232;me de biblioth&#232;que en ligne</text><ellipse cx="275" cy="482.1875" fill="#E2E2F0" rx="12" ry="12" style="stroke:#181818;stroke-width:0.5;"/><line style="stroke:#181818;stroke-width:0.5;" x1="263" x2="287" y1="496.1875" y2="496.1875"/><text fill="#000000" font-family="sans-serif" font-size="14" lengthAdjust="spacing" textLength="123" x="447.5" y="77.9951">Base de donn&#233;es</text><path d="M494,29 C494,19 512,19 512,19 C512,19 530,19 530,29 L530,55 C530,65 512,65 512,65 C512,65 494,65 494,55 L494,29 " fill="#E2E2F0" style="stroke:#181818;stroke-width:1.5;"/><path d="M494,29 C494,39 512,39 512,39 C512,39 530,39 530,29 " fill="none" style="stroke:#181818;stroke-width:1.5;"/><text fill="#000000" font-family="sans-serif" font-size="14" lengthAdjust="spacing" textLength="123" x="447.5" y="462.8857">Base de donn&#233;es</text><path d="M494,476.1875 C494,466.1875 512,466.1875 512,466.1875 C512,466.1875 530,466.1875 530,476.1875 L530,502.1875 C530,512.1875 512,512.1875 512,512.1875 C512,512.1875 494,512.1875 494,502.1875 L494,476.1875 " fill="#E2E2F0" style="stroke:#181818;stroke-width:1.5;"/><path d="M494,476.1875 C494,486.1875 512,486.1875 512,486.1875 C512,486.1875 530,486.1875 530,476.1875 " fill="none" style="stroke:#181818;stroke-width:1.5;"/><polygon fill="#181818" points="263,108.4297,273,112.4297,263,116.4297,267,112.4297" style="stroke:#181818;stroke-width:1.0;"/><line style="stroke:#181818;stroke-width:1.0;" x1="42" x2="269" y1="112.4297" y2="112.4297"/><text fill="#000000" font-family="sans-serif" font-size="13" lengthAdjust="spacing" textLength="141" x="49" y="107.3638">Requ&#234;te de recherche</text><polygon fill="#181818" points="500,137.5625,510,141.5625,500,145.5625,504,141.5625" style="stroke:#181818;stroke-width:1.0;"/><line style="stroke:#181818;stroke-width:1.0;" x1="275" x2="506" y1="141.5625" y2="141.5625"/><text fill="#000000" font-family="sans-serif" font-size="13" lengthAdjust="spacing" textLength="187" x="282" y="136.4966">Interroge la base de donn&#233;es</text><polygon fill="#181818" points="286,166.6953,276,170.6953,286,174.6953,282,170.6953" style="stroke:#181818;stroke-width:1.0;"/><line style="stroke:#181818;stroke-width:1.0;stroke-dasharray:2.0,2.0;" x1="280" x2="511" y1="170.6953" y2="170.6953"/><text fill="#000000" font-family="sans-serif" font-size="13" lengthAdjust="spacing" textLength="162" x="292" y="165.6294">R&#233;sultats de la recherche</text><polygon fill="#181818" points="53,195.8281,43,199.8281,53,203.8281,49,199.8281" style="stroke:#181818;stroke-width:1.0;"/><line style="stroke:#181818;stroke-width:1.0;stroke-dasharray:2.0,2.0;" x1="47" x2="274" y1="199.8281" y2="199.8281"/><text fill="#000000" font-family="sans-serif" font-size="13" lengthAdjust="spacing" textLength="125" x="59" y="194.7622">Affiche les r&#233;sultats</text><polygon fill="#181818" points="263,224.9609,273,228.9609,263,232.9609,267,228.9609" style="stroke:#181818;stroke-width:1.0;"/><line style="stroke:#181818;stroke-width:1.0;" x1="42" x2="269" y1="228.9609" y2="228.9609"/><text fill="#000000" font-family="sans-serif" font-size="13" lengthAdjust="spacing" textLength="209" x="49" y="223.895">S&#233;lectionne un livre &#224; emprunter</text><polygon fill="#181818" points="500,254.0938,510,258.0938,500,262.0938,504,258.0938" style="stroke:#181818;stroke-width:1.0;"/><line style="stroke:#181818;stroke-width:1.0;" x1="275" x2="506" y1="258.0938" y2="258.0938"/><text fill="#000000" font-family="sans-serif" font-size="13" lengthAdjust="spacing" textLength="213" x="282" y="253.0278">Marque le livre comme emprunt&#233;</text><polygon fill="#181818" points="286,283.2266,276,287.2266,286,291.2266,282,287.2266" style="stroke:#181818;stroke-width:1.0;"/><line style="stroke:#181818;stroke-width:1.0;stroke-dasharray:2.0,2.0;" x1="280" x2="511" y1="287.2266" y2="287.2266"/><text fill="#000000" font-family="sans-serif" font-size="13" lengthAdjust="spacing" textLength="82" x="292" y="282.1606">Confirmation</text><polygon fill="#181818" points="53,312.3594,43,316.3594,53,320.3594,49,316.3594" style="stroke:#181818;stroke-width:1.0;"/><line style="stroke:#181818;stroke-width:1.0;stroke-dasharray:2.0,2.0;" x1="47" x2="274" y1="316.3594" y2="316.3594"/><text fill="#000000" font-family="sans-serif" font-size="13" lengthAdjust="spacing" textLength="179" x="59" y="311.2935">Livre emprunt&#233; avec succ&#232;s</text><polygon fill="#181818" points="263,341.4922,273,345.4922,263,349.4922,267,345.4922" style="stroke:#181818;stroke-width:1.0;"/><line style="stroke:#181818;stroke-width:1.0;" x1="42" x2="269" y1="345.4922" y2="345.4922"/><text fill="#000000" font-family="sans-serif" font-size="13" lengthAdjust="spacing" textLength="154" x="49" y="340.4263">Indique le retour du livre</text><polygon fill="#181818" points="500,370.625,510,374.625,500,378.625,504,374.625" style="stroke:#181818;stroke-width:1.0;"/><line style="stroke:#181818;stroke-width:1.0;" x1="275" x2="506" y1="374.625" y2="374.625"/><text fill="#000000" font-family="sans-serif" font-size="13" lengthAdjust="spacing" textLength="205" x="282" y="369.5591">Marque le livre comme retourn&#233;</text><polygon fill="#181818" points="286,399.7578,276,403.7578,286,407.7578,282,403.7578" style="stroke:#181818;stroke-width:1.0;"/><line style="stroke:#181818;stroke-width:1.0;stroke-dasharray:2.0,2.0;" x1="280" x2="511" y1="403.7578" y2="403.7578"/><text fill="#000000" font-family="sans-serif" font-size="13" lengthAdjust="spacing" textLength="82" x="292" y="398.6919">Confirmation</text><polygon fill="#181818" points="53,428.8906,43,432.8906,53,436.8906,49,432.8906" style="stroke:#181818;stroke-width:1.0;"/><line style="stroke:#181818;stroke-width:1.0;stroke-dasharray:2.0,2.0;" x1="47" x2="274" y1="432.8906" y2="432.8906"/><text fill="#000000" font-family="sans-serif" font-size="13" lengthAdjust="spacing" textLength="171" x="59" y="427.8247">Livre retourn&#233; avec succ&#232;s</text><!--SRC=[fP11ReCm44Ntd6B4FXTWKQcKJQHsqoW7C6P8B1cx6OyZvJPTGg_XYzK6X2WLKgKkO3Fl_taU8TaId5bfvGIZfmmDAtv0Vdeu3ds7q23KgjRAyZNqDu-01hIw6Cn1E4WOTbaZMDJ28UHb-iTCOuq90xgHgieiMos1mzCSBE0TRpvyyPWXb5Ua-6NJD75LMS3HC1BP2u8MK6yMP5K9XtLX69pNBDWbAWP-jqPwPLF0SzkgE0UD3cY9xogVmg1Hiee223vTuqu8uHEm-o2VN3V-RuBIuJJEgBHTFEnCXs7xWXThMaMTI1jsdL_7fgK3n1qbE2zbwFVDZwPHimaXspXi_EJq9-CfO_vbl7JyCFu6]--></g></svg>