<?xml version="1.0" encoding="us-ascii" standalone="no"?><svg xmlns="http://www.w3.org/2000/svg" xmlns:xlink="http://www.w3.org/1999/xlink" contentStyleType="text/css" height="182px" preserveAspectRatio="none" style="width:466px;height:182px;background:#FFFFFF;" version="1.1" viewBox="0 0 466 182" width="466px" zoomAndPan="magnify"><defs/><g><line style="stroke:#181818;stroke-width:0.5;stroke-dasharray:5.0,5.0;" x1="42" x2="42" y1="81.2969" y2="101.2969"/><line style="stroke:#181818;stroke-width:0.5;stroke-dasharray:5.0,5.0;" x1="207" x2="207" y1="81.2969" y2="101.2969"/><line style="stroke:#181818;stroke-width:0.5;stroke-dasharray:5.0,5.0;" x1="400" x2="400" y1="81.2969" y2="101.2969"/><text fill="#000000" font-family="sans-serif" font-size="14" lengthAdjust="spacing" textLength="68" x="5" y="77.9951">Utilisateur</text><ellipse cx="42" cy="13.5" fill="#E2E2F0" rx="8" ry="8" style="stroke:#181818;stroke-width:0.5;"/><path d="M42,21.5 L42,48.5 M29,29.5 L55,29.5 M42,48.5 L29,63.5 M42,48.5 L55,63.5 " fill="none" style="stroke:#181818;stroke-width:0.5;"/><text fill="#000000" font-family="sans-serif" font-size="14" lengthAdjust="spacing" textLength="68" x="5" y="113.292">Utilisateur</text><ellipse cx="42" cy="125.0938" fill="#E2E2F0" rx="8" ry="8" style="stroke:#181818;stroke-width:0.5;"/><path d="M42,133.0938 L42,160.0938 M29,141.0938 L55,141.0938 M42,160.0938 L29,175.0938 M42,160.0938 L55,175.0938 " fill="none" style="stroke:#181818;stroke-width:0.5;"/><text fill="#000000" font-family="sans-serif" font-size="14" lengthAdjust="spacing" textLength="231" x="89" y="77.9951">Syst&#232;me de biblioth&#232;que en ligne</text><ellipse cx="207.5" cy="49" fill="#E2E2F0" rx="12" ry="12" style="stroke:#181818;stroke-width:0.5;"/><line style="stroke:#181818;stroke-width:0.5;" x1="195.5" x2="219.5" y1="63" y2="63"/><text fill="#000000" font-family="sans-serif" font-size="14" lengthAdjust="spacing" textLength="231" x="89" y="113.292">Syst&#232;me de biblioth&#232;que en ligne</text><ellipse cx="207.5" cy="132.5938" fill="#E2E2F0" rx="12" ry="12" style="stroke:#181818;stroke-width:0.5;"/><line style="stroke:#181818;stroke-width:0.5;" x1="195.5" x2="219.5" y1="146.5938" y2="146.5938"/><text fill="#000000" font-family="sans-serif" font-size="14" lengthAdjust="spacing" textLength="123" x="336" y="77.9951">Base de donn&#233;es</text><path d="M382.5,29 C382.5,19 400.5,19 400.5,19 C400.5,19 418.5,19 418.5,29 L418.5,55 C418.5,65 400.5,65 400.5,65 C400.5,65 382.5,65 382.5,55 L382.5,29 " fill="#E2E2F0" style="stroke:#181818;stroke-width:1.5;"/><path d="M382.5,29 C382.5,39 400.5,39 400.5,39 C400.5,39 418.5,39 418.5,29 " fill="none" style="stroke:#181818;stroke-width:1.5;"/><text fill="#000000" font-family="sans-serif" font-size="14" lengthAdjust="spacing" textLength="123" x="336" y="113.292">Base de donn&#233;es</text><path d="M382.5,126.5938 C382.5,116.5938 400.5,116.5938 400.5,116.5938 C400.5,116.5938 418.5,116.5938 418.5,126.5938 L418.5,152.5938 C418.5,162.5938 400.5,162.5938 400.5,162.5938 C400.5,162.5938 382.5,162.5938 382.5,152.5938 L382.5,126.5938 " fill="#E2E2F0" style="stroke:#181818;stroke-width:1.5;"/><path d="M382.5,126.5938 C382.5,136.5938 400.5,136.5938 400.5,136.5938 C400.5,136.5938 418.5,136.5938 418.5,126.5938 " fill="none" style="stroke:#181818;stroke-width:1.5;"/><!--SRC=[7Sl13OCm44JHErMCN0fA1oW5hECHh6JM2hiSw8ZKuSO8NFxfVVb4s_0EhUeItBU15Xe7qdHuz7Cb2f4rLssnzFEx4pHKdOq9uhWPrw58I1OdqdZt_vHcrd_qHxt62m00]--></g></svg>