<?xml version="1.0" encoding="us-ascii" standalone="no"?><svg xmlns="http://www.w3.org/2000/svg" xmlns:xlink="http://www.w3.org/1999/xlink" contentStyleType="text/css" height="216px" preserveAspectRatio="none" style="width:400px;height:216px;background:#FFFFFF;" version="1.1" viewBox="0 0 400 216" width="400px" zoomAndPan="magnify"><defs/><g><!--cluster Sc?narios Principaux--><g id="cluster_Sc&#233;narios Principaux"><path d="M8.5,6 L174.5,6 A3.75,3.75 0 0 1 177,8.5 L184,28.2969 L390.5,28.2969 A2.5,2.5 0 0 1 393,30.7969 L393,207.09 A2.5,2.5 0 0 1 390.5,209.59 L8.5,209.59 A2.5,2.5 0 0 1 6,207.09 L6,8.5 A2.5,2.5 0 0 1 8.5,6 " fill="none" style="stroke:#000000;stroke-width:1.5;"/><line style="stroke:#000000;stroke-width:1.5;" x1="6" x2="184" y1="28.2969" y2="28.2969"/><text fill="#000000" font-family="sans-serif" font-size="14" font-weight="bold" lengthAdjust="spacing" textLength="165" x="10" y="20.9951">Sc&#233;narios Principaux</text></g><!--entity Recherche de livre--><g id="elem_Recherche de livre"><rect fill="#F1F1F1" height="46.2969" rx="2.5" ry="2.5" style="stroke:#181818;stroke-width:0.5;" width="169" x="21.5" y="41"/><rect fill="#F1F1F1" height="10" style="stroke:#181818;stroke-width:0.5;" width="15" x="170.5" y="46"/><rect fill="#F1F1F1" height="2" style="stroke:#181818;stroke-width:0.5;" width="4" x="168.5" y="48"/><rect fill="#F1F1F1" height="2" style="stroke:#181818;stroke-width:0.5;" width="4" x="168.5" y="52"/><text fill="#000000" font-family="sans-serif" font-size="14" lengthAdjust="spacing" textLength="129" x="36.5" y="73.9951">Recherche de livre</text></g><!--entity Emprunt de livre--><g id="elem_Emprunt de livre"><rect fill="#F1F1F1" height="46.2969" rx="2.5" ry="2.5" style="stroke:#181818;stroke-width:0.5;" width="152" x="225" y="41"/><rect fill="#F1F1F1" height="10" style="stroke:#181818;stroke-width:0.5;" width="15" x="357" y="46"/><rect fill="#F1F1F1" height="2" style="stroke:#181818;stroke-width:0.5;" width="4" x="355" y="48"/><rect fill="#F1F1F1" height="2" style="stroke:#181818;stroke-width:0.5;" width="4" x="355" y="52"/><text fill="#000000" font-family="sans-serif" font-size="14" lengthAdjust="spacing" textLength="112" x="240" y="73.9951">Emprunt de livre</text></g><!--entity Retour de livre--><g id="elem_Retour de livre"><rect fill="#F1F1F1" height="46.2969" rx="2.5" ry="2.5" style="stroke:#181818;stroke-width:0.5;" width="140" x="36" y="147.29"/><rect fill="#F1F1F1" height="10" style="stroke:#181818;stroke-width:0.5;" width="15" x="156" y="152.29"/><rect fill="#F1F1F1" height="2" style="stroke:#181818;stroke-width:0.5;" width="4" x="154" y="154.29"/><rect fill="#F1F1F1" height="2" style="stroke:#181818;stroke-width:0.5;" width="4" x="154" y="158.29"/><text fill="#000000" font-family="sans-serif" font-size="14" lengthAdjust="spacing" textLength="100" x="51" y="180.2851">Retour de livre</text></g><!--SRC=[AqXCpavCJrLG2au-l38liIWplrWXe2WpBpcp8B6qGacXcaj18JeeDJaZjGY85L9I5N8ooufIOq72hha5HQLv9QY2GQab-QL5I6Ar0000]--></g></svg>